<svg xmlns="http://www.w3.org/2000/svg" xmlns:xlink="http://www.w3.org/1999/xlink" width="500" zoomAndPan="magnify" viewBox="0 0 375 374.999991" height="500" preserveAspectRatio="xMidYMid meet" version="1.0"><defs><g/><clipPath id="944a7eb5f2"><path d="M 103 119 L 203 119 L 203 217 L 103 217 Z M 103 119 " clip-rule="nonzero"/></clipPath><clipPath id="a98b17d058"><path d="M 99.199219 168.007812 L 205.265625 61.941406 L 275.800781 132.476562 L 169.734375 238.542969 Z M 99.199219 168.007812 " clip-rule="nonzero"/></clipPath><clipPath id="2e62cfd7db"><path d="M 169.734375 238.542969 L 275.800781 132.476562 L 205.265625 61.941406 L 99.199219 168.007812 Z M 169.734375 238.542969 " clip-rule="nonzero"/></clipPath><clipPath id="55f0ab00f0"><path d="M 160.550781 229.359375 L 221.953125 167.957031 L 160.550781 106.554688 L 99.148438 167.957031 Z M 160.550781 229.359375 " clip-rule="nonzero"/></clipPath><clipPath id="dee49420af"><path d="M 160.550781 229.359375 L 221.953125 167.957031 L 160.671875 106.675781 L 99.269531 168.078125 Z M 160.550781 229.359375 " clip-rule="nonzero"/></clipPath><clipPath id="277ce03ca3"><path d="M 172 83 L 272 83 L 272 181 L 172 181 Z M 172 83 " clip-rule="nonzero"/></clipPath><clipPath id="03cb43194f"><path d="M 99.199219 168.007812 L 205.265625 61.941406 L 275.800781 132.476562 L 169.734375 238.542969 Z M 99.199219 168.007812 " clip-rule="nonzero"/></clipPath><clipPath id="a5930f1563"><path d="M 169.734375 238.542969 L 275.800781 132.476562 L 205.265625 61.941406 L 99.199219 168.007812 Z M 169.734375 238.542969 " clip-rule="nonzero"/></clipPath><clipPath id="580b6ef93c"><path d="M 214.222656 193.882812 L 276.078125 132.027344 L 214.675781 70.625 L 152.820312 132.480469 Z M 214.222656 193.882812 " clip-rule="nonzero"/></clipPath><clipPath id="7da0c60bac"><path d="M 214.222656 193.882812 L 275.726562 132.375 L 214.324219 70.976562 L 152.820312 132.480469 Z M 214.222656 193.882812 " clip-rule="nonzero"/></clipPath></defs><rect x="-37.5" width="450" fill="#ffffff" y="-37.499999" height="449.999989" fill-opacity="1"/><rect x="-37.5" width="450" fill="#230f4b" y="-37.499999" height="449.999989" fill-opacity="1"/><g clip-path="url(#944a7eb5f2)"><g clip-path="url(#a98b17d058)"><g clip-path="url(#2e62cfd7db)"><g clip-path="url(#55f0ab00f0)"><g clip-path="url(#dee49420af)"><path fill="#5ce1e6" d="M 144.625 122.71875 L 106.832031 160.515625 C 102.660156 164.683594 102.65625 171.464844 106.828125 175.636719 L 144.625 213.433594 C 147.742188 216.550781 152.207031 217.433594 156.273438 215.75 C 160.335938 214.050781 162.875 210.277344 162.871094 205.871094 L 162.875 188.917969 L 199.324219 188.921875 C 200.984375 188.925781 202.328125 187.582031 202.328125 185.921875 C 202.328125 184.265625 200.984375 182.921875 199.328125 182.921875 L 159.875 182.917969 C 158.214844 182.917969 156.875 184.261719 156.875 185.921875 L 156.871094 205.871094 C 156.871094 207.832031 155.785156 209.445312 153.980469 210.207031 C 152.167969 210.957031 150.253906 210.578125 148.867188 209.191406 L 111.070312 171.390625 C 109.242188 169.5625 109.242188 166.589844 111.074219 164.757812 L 148.867188 126.964844 C 150.257812 125.574219 152.164062 125.195312 153.980469 125.941406 C 155.792969 126.691406 156.875 128.3125 156.875 130.277344 L 156.875 150.226562 C 156.875 151.882812 158.21875 153.226562 159.875 153.222656 L 199.324219 153.230469 C 200.984375 153.230469 202.328125 151.886719 202.328125 150.230469 C 202.328125 148.574219 200.984375 147.230469 199.328125 147.230469 L 162.875 147.226562 L 162.875 130.277344 C 162.875 125.867188 160.347656 122.089844 156.277344 120.398438 C 152.207031 118.714844 147.742188 119.605469 144.625 122.71875 " fill-opacity="1" fill-rule="nonzero"/></g></g></g></g></g><g clip-path="url(#277ce03ca3)"><g clip-path="url(#03cb43194f)"><g clip-path="url(#a5930f1563)"><g clip-path="url(#580b6ef93c)"><g clip-path="url(#7da0c60bac)"><path fill="#5ce1e6" d="M 173.554688 112.40625 C 173.007812 112.949219 172.675781 113.699219 172.671875 114.527344 C 172.671875 116.183594 174.015625 117.527344 175.671875 117.527344 L 215.125 117.53125 C 215.921875 117.53125 216.683594 117.214844 217.246094 116.652344 C 217.808594 116.089844 218.125 115.324219 218.125 114.53125 L 218.121094 94.578125 C 218.125 92.621094 219.207031 91 221.019531 90.25 C 222.828125 89.5 224.738281 89.875 226.125 91.265625 L 263.925781 129.066406 C 265.753906 130.890625 265.753906 133.867188 263.925781 135.695312 L 226.132812 173.488281 C 224.742188 174.875 222.835938 175.253906 221.015625 174.503906 C 219.203125 173.753906 218.125 172.136719 218.125 170.171875 L 218.125 150.226562 C 218.125 148.566406 216.78125 147.222656 215.125 147.226562 L 175.667969 147.226562 C 174.011719 147.226562 172.671875 148.570312 172.671875 150.226562 C 172.667969 151.882812 174.011719 153.226562 175.671875 153.226562 L 212.125 153.222656 L 212.125 170.171875 C 212.121094 174.578125 214.648438 178.355469 218.71875 180.046875 C 222.792969 181.734375 227.261719 180.847656 230.375 177.730469 L 268.167969 139.9375 C 272.339844 135.769531 272.339844 128.988281 268.171875 124.820312 L 230.371094 87.019531 C 227.257812 83.90625 222.796875 83.019531 218.730469 84.703125 C 214.664062 86.382812 212.125 90.167969 212.121094 94.578125 L 212.125 111.53125 L 175.675781 111.527344 C 174.84375 111.527344 174.09375 111.863281 173.554688 112.40625 " fill-opacity="1" fill-rule="nonzero"/></g></g></g></g></g><g fill="#ffffff" fill-opacity="1"><g transform="translate(52.227225, 254.936263)"><g><path d="M 19.15625 -33 L 32.484375 0 L 24.40625 0 L 21.953125 -6.59375 L 9.40625 -6.59375 L 6.953125 0 L -1.125 0 L 12.203125 -33 Z M 19.40625 -13.203125 L 15.71875 -22.796875 L 15.640625 -22.796875 L 11.953125 -13.203125 Z M 19.40625 -13.203125 "/></g></g></g><g fill="#ffffff" fill-opacity="1"><g transform="translate(83.584115, 254.936263)"><g><path d="M 3.078125 -31.953125 C 3.898438 -32.785156 4.882812 -33.203125 6.03125 -33.203125 C 7.1875 -33.203125 8.175781 -32.785156 9 -31.953125 C 9.820312 -31.128906 10.234375 -30.144531 10.234375 -29 C 10.234375 -27.851562 9.820312 -26.863281 9 -26.03125 C 8.175781 -25.207031 7.1875 -24.796875 6.03125 -24.796875 C 4.882812 -24.796875 3.898438 -25.207031 3.078125 -26.03125 C 2.253906 -26.863281 1.84375 -27.851562 1.84375 -29 C 1.84375 -30.144531 2.253906 -31.128906 3.078125 -31.953125 Z M 2.40625 -20.515625 L 2.40625 0 L 9.484375 0 L 9.484375 -20.515625 Z M 2.40625 -20.515625 "/></g></g></g><g fill="#ffffff" fill-opacity="1"><g transform="translate(95.662918, 254.936263)"><g><path d="M 23.515625 -17.953125 C 25.441406 -15.847656 26.40625 -13.273438 26.40625 -10.234375 C 26.40625 -7.203125 25.441406 -4.640625 23.515625 -2.546875 C 21.597656 -0.453125 19.160156 0.59375 16.203125 0.59375 C 13.484375 0.59375 11.242188 -0.375 9.484375 -2.3125 L 9.40625 -2.3125 L 9.40625 0 L 2.40625 0 L 2.40625 -34.40625 L 9.484375 -34.40625 L 9.484375 -18.5625 C 11.242188 -20.269531 13.484375 -21.125 16.203125 -21.125 C 19.160156 -21.125 21.597656 -20.066406 23.515625 -17.953125 Z M 17.546875 -6.78125 C 18.429688 -7.675781 18.875 -8.828125 18.875 -10.234375 C 18.875 -11.648438 18.414062 -12.8125 17.5 -13.71875 C 16.582031 -14.625 15.441406 -15.078125 14.078125 -15.078125 C 12.742188 -15.078125 11.613281 -14.625 10.6875 -13.71875 C 9.769531 -12.8125 9.3125 -11.648438 9.3125 -10.234375 C 9.3125 -8.847656 9.757812 -7.703125 10.65625 -6.796875 C 11.550781 -5.890625 12.691406 -5.4375 14.078125 -5.4375 C 15.515625 -5.4375 16.671875 -5.882812 17.546875 -6.78125 Z M 17.546875 -6.78125 "/></g></g></g><g fill="#ffffff" fill-opacity="1"><g transform="translate(122.980204, 254.936263)"><g><path d="M 4.34375 -2.4375 C 2.0625 -4.46875 0.921875 -7.066406 0.921875 -10.234375 C 0.921875 -13.410156 2.109375 -16.019531 4.484375 -18.0625 C 6.859375 -20.101562 9.789062 -21.125 13.28125 -21.125 C 16.71875 -21.125 19.613281 -20.09375 21.96875 -18.03125 C 24.332031 -15.976562 25.515625 -13.378906 25.515625 -10.234375 C 25.515625 -7.085938 24.359375 -4.492188 22.046875 -2.453125 C 19.742188 -0.421875 16.820312 0.59375 13.28125 0.59375 C 9.601562 0.59375 6.625 -0.414062 4.34375 -2.4375 Z M 9.8125 -13.71875 C 8.894531 -12.8125 8.4375 -11.648438 8.4375 -10.234375 C 8.4375 -8.828125 8.875 -7.675781 9.75 -6.78125 C 10.632812 -5.882812 11.796875 -5.4375 13.234375 -5.4375 C 14.617188 -5.4375 15.757812 -5.890625 16.65625 -6.796875 C 17.550781 -7.703125 18 -8.847656 18 -10.234375 C 18 -11.648438 17.535156 -12.8125 16.609375 -13.71875 C 15.691406 -14.625 14.566406 -15.078125 13.234375 -15.078125 C 11.878906 -15.078125 10.738281 -14.625 9.8125 -13.71875 Z M 9.8125 -13.71875 "/></g></g></g><g fill="#ffffff" fill-opacity="1"><g transform="translate(149.417576, 254.936263)"><g><path d="M 2.40625 0 L 2.40625 -34.40625 L 9.484375 -34.40625 L 9.484375 -18.359375 L 9.5625 -18.359375 C 11.394531 -20.203125 13.351562 -21.125 15.4375 -21.125 C 16.445312 -21.125 17.453125 -20.988281 18.453125 -20.71875 C 19.453125 -20.445312 20.410156 -20.03125 21.328125 -19.46875 C 22.253906 -18.914062 23.003906 -18.125 23.578125 -17.09375 C 24.148438 -16.070312 24.4375 -14.878906 24.4375 -13.515625 L 24.4375 0 L 17.359375 0 L 17.359375 -11.59375 C 17.359375 -12.664062 17.015625 -13.597656 16.328125 -14.390625 C 15.648438 -15.191406 14.769531 -15.59375 13.6875 -15.59375 C 12.613281 -15.59375 11.644531 -15.179688 10.78125 -14.359375 C 9.914062 -13.535156 9.484375 -12.613281 9.484375 -11.59375 L 9.484375 0 Z M 2.40625 0 "/></g></g></g><g fill="#ffffff" fill-opacity="1"><g transform="translate(175.854948, 254.936263)"><g><path d="M 23.515625 -17.984375 C 25.441406 -15.890625 26.40625 -13.320312 26.40625 -10.28125 C 26.40625 -7.238281 25.441406 -4.664062 23.515625 -2.5625 C 21.597656 -0.457031 19.160156 0.59375 16.203125 0.59375 C 13.484375 0.59375 11.242188 -0.253906 9.484375 -1.953125 L 9.484375 10.40625 L 2.40625 10.40625 L 2.40625 -20.515625 L 9.40625 -20.515625 L 9.40625 -18.203125 L 9.484375 -18.203125 C 11.242188 -20.148438 13.484375 -21.125 16.203125 -21.125 C 19.160156 -21.125 21.597656 -20.078125 23.515625 -17.984375 Z M 17.5 -6.796875 C 18.414062 -7.703125 18.875 -8.863281 18.875 -10.28125 C 18.875 -11.695312 18.429688 -12.847656 17.546875 -13.734375 C 16.671875 -14.628906 15.515625 -15.078125 14.078125 -15.078125 C 12.691406 -15.078125 11.550781 -14.625 10.65625 -13.71875 C 9.757812 -12.8125 9.3125 -11.664062 9.3125 -10.28125 C 9.3125 -8.863281 9.769531 -7.703125 10.6875 -6.796875 C 11.613281 -5.890625 12.742188 -5.4375 14.078125 -5.4375 C 15.441406 -5.4375 16.582031 -5.890625 17.5 -6.796875 Z M 17.5 -6.796875 "/></g></g></g><g fill="#ffffff" fill-opacity="1"><g transform="translate(203.172234, 254.936263)"><g><path d="M 2.40625 0 L 2.40625 -34.40625 L 9.484375 -34.40625 L 9.484375 -18.359375 L 9.5625 -18.359375 C 11.394531 -20.203125 13.351562 -21.125 15.4375 -21.125 C 16.445312 -21.125 17.453125 -20.988281 18.453125 -20.71875 C 19.453125 -20.445312 20.410156 -20.03125 21.328125 -19.46875 C 22.253906 -18.914062 23.003906 -18.125 23.578125 -17.09375 C 24.148438 -16.070312 24.4375 -14.878906 24.4375 -13.515625 L 24.4375 0 L 17.359375 0 L 17.359375 -11.59375 C 17.359375 -12.664062 17.015625 -13.597656 16.328125 -14.390625 C 15.648438 -15.191406 14.769531 -15.59375 13.6875 -15.59375 C 12.613281 -15.59375 11.644531 -15.179688 10.78125 -14.359375 C 9.914062 -13.535156 9.484375 -12.613281 9.484375 -11.59375 L 9.484375 0 Z M 2.40625 0 "/></g></g></g><g fill="#ffffff" fill-opacity="1"><g transform="translate(229.609606, 254.936263)"><g><path d="M 4.34375 -2.4375 C 2.0625 -4.46875 0.921875 -7.066406 0.921875 -10.234375 C 0.921875 -13.410156 2.109375 -16.019531 4.484375 -18.0625 C 6.859375 -20.101562 9.789062 -21.125 13.28125 -21.125 C 16.71875 -21.125 19.613281 -20.09375 21.96875 -18.03125 C 24.332031 -15.976562 25.515625 -13.378906 25.515625 -10.234375 C 25.515625 -7.085938 24.359375 -4.492188 22.046875 -2.453125 C 19.742188 -0.421875 16.820312 0.59375 13.28125 0.59375 C 9.601562 0.59375 6.625 -0.414062 4.34375 -2.4375 Z M 9.8125 -13.71875 C 8.894531 -12.8125 8.4375 -11.648438 8.4375 -10.234375 C 8.4375 -8.828125 8.875 -7.675781 9.75 -6.78125 C 10.632812 -5.882812 11.796875 -5.4375 13.234375 -5.4375 C 14.617188 -5.4375 15.757812 -5.890625 16.65625 -6.796875 C 17.550781 -7.703125 18 -8.847656 18 -10.234375 C 18 -11.648438 17.535156 -12.8125 16.609375 -13.71875 C 15.691406 -14.625 14.566406 -15.078125 13.234375 -15.078125 C 11.878906 -15.078125 10.738281 -14.625 9.8125 -13.71875 Z M 9.8125 -13.71875 "/></g></g></g><g fill="#ffffff" fill-opacity="1"><g transform="translate(256.04699, 254.936263)"><g><path d="M 23.515625 -17.953125 C 25.441406 -15.847656 26.40625 -13.273438 26.40625 -10.234375 C 26.40625 -7.203125 25.441406 -4.640625 23.515625 -2.546875 C 21.597656 -0.453125 19.160156 0.59375 16.203125 0.59375 C 13.484375 0.59375 11.242188 -0.375 9.484375 -2.3125 L 9.40625 -2.3125 L 9.40625 0 L 2.40625 0 L 2.40625 -34.40625 L 9.484375 -34.40625 L 9.484375 -18.5625 C 11.242188 -20.269531 13.484375 -21.125 16.203125 -21.125 C 19.160156 -21.125 21.597656 -20.066406 23.515625 -17.953125 Z M 17.546875 -6.78125 C 18.429688 -7.675781 18.875 -8.828125 18.875 -10.234375 C 18.875 -11.648438 18.414062 -12.8125 17.5 -13.71875 C 16.582031 -14.625 15.441406 -15.078125 14.078125 -15.078125 C 12.742188 -15.078125 11.613281 -14.625 10.6875 -13.71875 C 9.769531 -12.8125 9.3125 -11.648438 9.3125 -10.234375 C 9.3125 -8.847656 9.757812 -7.703125 10.65625 -6.796875 C 11.550781 -5.890625 12.691406 -5.4375 14.078125 -5.4375 C 15.515625 -5.4375 16.671875 -5.882812 17.546875 -6.78125 Z M 17.546875 -6.78125 "/></g></g></g><g fill="#ffffff" fill-opacity="1"><g transform="translate(283.364264, 254.936263)"><g><path d="M 3.078125 -31.953125 C 3.898438 -32.785156 4.882812 -33.203125 6.03125 -33.203125 C 7.1875 -33.203125 8.175781 -32.785156 9 -31.953125 C 9.820312 -31.128906 10.234375 -30.144531 10.234375 -29 C 10.234375 -27.851562 9.820312 -26.863281 9 -26.03125 C 8.175781 -25.207031 7.1875 -24.796875 6.03125 -24.796875 C 4.882812 -24.796875 3.898438 -25.207031 3.078125 -26.03125 C 2.253906 -26.863281 1.84375 -27.851562 1.84375 -29 C 1.84375 -30.144531 2.253906 -31.128906 3.078125 -31.953125 Z M 2.40625 -20.515625 L 2.40625 0 L 9.484375 0 L 9.484375 -20.515625 Z M 2.40625 -20.515625 "/></g></g></g><g fill="#ffffff" fill-opacity="1"><g transform="translate(295.443067, 254.936263)"><g><path d="M 3.796875 -2.546875 C 1.878906 -4.640625 0.921875 -7.203125 0.921875 -10.234375 C 0.921875 -13.273438 1.878906 -15.847656 3.796875 -17.953125 C 5.722656 -20.066406 8.164062 -21.125 11.125 -21.125 C 13.84375 -21.125 16.082031 -20.269531 17.84375 -18.5625 L 17.84375 -20.515625 L 24.921875 -20.515625 L 24.921875 0 L 17.921875 0 L 17.921875 -2.3125 L 17.84375 -2.3125 C 16.082031 -0.375 13.84375 0.59375 11.125 0.59375 C 8.164062 0.59375 5.722656 -0.453125 3.796875 -2.546875 Z M 9.8125 -13.71875 C 8.894531 -12.8125 8.4375 -11.648438 8.4375 -10.234375 C 8.4375 -8.828125 8.875 -7.675781 9.75 -6.78125 C 10.632812 -5.882812 11.796875 -5.4375 13.234375 -5.4375 C 14.617188 -5.4375 15.757812 -5.890625 16.65625 -6.796875 C 17.550781 -7.703125 18 -8.847656 18 -10.234375 C 18 -11.648438 17.535156 -12.8125 16.609375 -13.71875 C 15.691406 -14.625 14.566406 -15.078125 13.234375 -15.078125 C 11.878906 -15.078125 10.738281 -14.625 9.8125 -13.71875 Z M 9.8125 -13.71875 "/></g></g></g></svg>