<svg xmlns="http://www.w3.org/2000/svg" xmlns:xlink="http://www.w3.org/1999/xlink" width="500" zoomAndPan="magnify" viewBox="0 0 375 374.999991" height="500" preserveAspectRatio="xMidYMid meet" version="1.0"><defs><g/><clipPath id="6bf0c62029"><path d="M 126 102.644531 L 143 102.644531 L 143 115 L 126 115 Z M 126 102.644531 " clip-rule="nonzero"/></clipPath><clipPath id="c7566abcad"><path d="M 56.890625 140 L 85 140 L 85 159 L 56.890625 159 Z M 56.890625 140 " clip-rule="nonzero"/></clipPath><clipPath id="eb5191d495"><path d="M 81 193 L 124 193 L 124 213.644531 L 81 213.644531 Z M 81 193 " clip-rule="nonzero"/></clipPath><clipPath id="6a959d3643"><path d="M 216 100.15625 L 305 100.15625 L 305 202 L 216 202 Z M 216 100.15625 " clip-rule="nonzero"/></clipPath><clipPath id="b52e1f3b9a"><path d="M 202 180 L 246 180 L 246 216.40625 L 202 216.40625 Z M 202 180 " clip-rule="nonzero"/></clipPath><clipPath id="06df7991db"><path d="M 296 107 L 315.910156 107 L 315.910156 135 L 296 135 Z M 296 107 " clip-rule="nonzero"/></clipPath></defs><rect x="-37.5" width="450" fill="#ffffff" y="-37.499999" height="449.999989" fill-opacity="1"/><rect x="-37.5" width="450" fill="#ffbd59" y="-37.499999" height="449.999989" fill-opacity="1"/><path fill="#080707" d="M 97.015625 140.101562 L 107.789062 134.164062 L 91.296875 127.894531 L 80.523438 133.871094 Z M 97.015625 140.101562 " fill-opacity="1" fill-rule="nonzero"/><path fill="#080707" d="M 114.351562 115.03125 L 103.464844 121.078125 L 120.066406 127.308594 L 130.84375 121.261719 Z M 114.351562 115.03125 " fill-opacity="1" fill-rule="nonzero"/><g clip-path="url(#6bf0c62029)"><path fill="#080707" d="M 142.9375 114.335938 L 136.375 102.644531 L 126.519531 108.179688 Z M 142.9375 114.335938 " fill-opacity="1" fill-rule="nonzero"/></g><g clip-path="url(#c7566abcad)"><path fill="#080707" d="M 68.246094 140.6875 L 56.957031 146.953125 L 63.589844 158.828125 L 84.738281 146.953125 Z M 68.246094 140.6875 " fill-opacity="1" fill-rule="nonzero"/></g><path fill="#080707" d="M 149.496094 128.703125 L 145.28125 140.0625 L 132.089844 144.789062 L 136.632812 132.804688 L 124.941406 136.949219 L 120.398438 148.933594 L 107.203125 153.660156 L 111.746094 141.675781 L 100.058594 145.816406 L 95.511719 157.800781 L 82.320312 162.53125 L 86.753906 150.542969 L 63.589844 158.792969 L 79.898438 204.53125 L 165.585938 174.039062 Z M 79.898438 179.863281 L 78.984375 177.445312 L 149.242188 152.378906 L 150.15625 154.796875 Z M 84.445312 191.226562 L 154.703125 166.15625 L 155.617188 168.578125 L 85.359375 193.644531 Z M 84.445312 191.226562 " fill-opacity="1" fill-rule="nonzero"/><g clip-path="url(#eb5191d495)"><path fill="#080707" d="M 81.222656 207.957031 L 121.613281 193.550781 L 123.644531 199.246094 L 83.257812 213.652344 Z M 81.222656 207.957031 " fill-opacity="1" fill-rule="nonzero"/></g><path fill="#080707" d="M 124.035156 192.667969 L 166.910156 177.375 L 168.941406 183.070312 L 126.070312 198.363281 Z M 124.035156 192.667969 " fill-opacity="1" fill-rule="nonzero"/><g clip-path="url(#6a959d3643)"><path fill="#000000" d="M 229.765625 177.296875 C 210.65625 152.066406 213.011719 117.820312 234.871094 100.445312 L 269.085938 145.621094 L 272.691406 150.382812 L 304.945312 192.972656 C 294.15625 200.851562 280.570312 203.664062 266.574219 200.894531 C 252.210938 198.054688 239.136719 189.671875 229.765625 177.296875 Z M 229.765625 177.296875 " fill-opacity="1" fill-rule="nonzero"/></g><path fill="#000000" d="M 293.464844 135.726562 C 293.214844 137.304688 292.351562 138.714844 291.09375 139.597656 C 289.640625 140.617188 287.824219 140.90625 286.113281 140.398438 C 285.132812 140.097656 284.085938 140.289062 283.308594 140.890625 L 273.613281 148.460938 L 271.152344 145.210938 L 280.8125 137.671875 C 281.589844 137.066406 282.023438 136.097656 281.980469 135.074219 C 281.898438 133.195312 282.730469 131.382812 284.207031 130.230469 C 285.445312 129.265625 286.980469 128.851562 288.535156 129.054688 C 290.085938 129.261719 291.460938 130.066406 292.40625 131.320312 C 293.328125 132.546875 293.710938 134.152344 293.464844 135.726562 Z M 293.464844 135.726562 " fill-opacity="1" fill-rule="nonzero"/><path fill="#000000" d="M 228.253906 178.445312 C 230.335938 181.191406 232.605469 183.738281 235.019531 186.089844 C 233.199219 187.429688 230.996094 188.160156 228.714844 188.160156 C 222.84375 188.160156 218.0625 183.367188 218.0625 177.476562 C 218.0625 174.101562 219.625 171.003906 222.273438 168.988281 C 223.972656 172.238281 225.957031 175.40625 228.253906 178.445312 Z M 228.253906 178.445312 " fill-opacity="1" fill-rule="nonzero"/><g clip-path="url(#b52e1f3b9a)"><path fill="#000000" d="M 202.363281 212.722656 L 216.585938 180.640625 C 217.992188 186.050781 222.886719 190.0625 228.714844 190.0625 C 230.878906 190.0625 232.980469 189.492188 234.835938 188.449219 L 245.601562 212.722656 C 245.941406 213.496094 245.875 214.339844 245.414062 215.046875 C 244.957031 215.753906 244.214844 216.160156 243.371094 216.160156 L 204.589844 216.160156 C 203.75 216.160156 203.003906 215.753906 202.546875 215.046875 C 202.085938 214.339844 202.019531 213.492188 202.363281 212.722656 Z M 202.363281 212.722656 " fill-opacity="1" fill-rule="nonzero"/></g><g clip-path="url(#06df7991db)"><path fill="#000000" d="M 297.320312 109.609375 C 296.835938 109.410156 296.601562 108.859375 296.796875 108.371094 C 296.992188 107.886719 297.546875 107.652344 298.03125 107.847656 C 309.277344 112.414062 315.316406 121.09375 315.988281 133.644531 C 316.019531 134.167969 315.617188 134.613281 315.09375 134.644531 C 315.078125 134.644531 315.058594 134.644531 315.042969 134.644531 C 314.542969 134.644531 314.125 134.253906 314.097656 133.746094 C 313.460938 121.832031 307.972656 113.933594 297.320312 109.609375 Z M 297.320312 109.609375 " fill-opacity="1" fill-rule="nonzero"/></g><path fill="#000000" d="M 295.597656 118.25 C 295.113281 118.054688 294.878906 117.5 295.074219 117.015625 C 295.273438 116.527344 295.824219 116.292969 296.308594 116.492188 C 303.390625 119.367188 307.199219 124.828125 307.621094 132.730469 C 307.648438 133.253906 307.246094 133.699219 306.726562 133.730469 C 306.707031 133.730469 306.691406 133.730469 306.675781 133.730469 C 306.175781 133.730469 305.757812 133.339844 305.730469 132.832031 C 305.34375 125.632812 302.03125 120.863281 295.597656 118.25 Z M 295.597656 118.25 " fill-opacity="1" fill-rule="nonzero"/><path fill="#000000" d="M 299.863281 132.625 C 299.890625 133.148438 299.488281 133.59375 298.964844 133.625 C 298.949219 133.625 298.929688 133.625 298.914062 133.625 C 298.414062 133.625 297.996094 133.234375 297.96875 132.726562 C 297.789062 129.339844 296.234375 127.097656 293.214844 125.871094 C 292.730469 125.675781 292.496094 125.121094 292.691406 124.632812 C 292.886719 124.148438 293.441406 123.914062 293.925781 124.109375 C 297.644531 125.621094 299.640625 128.484375 299.863281 132.625 Z M 299.863281 132.625 " fill-opacity="1" fill-rule="nonzero"/><g fill="#080707" fill-opacity="1"><g transform="translate(112.097273, 274.520358)"><g><path d="M 11.15625 -14.953125 L 11.15625 -12.125 L 4.71875 -12.125 L 4.71875 0 L 1.59375 0 L 1.59375 -28 L 12.71875 -28 L 12.71875 -25.15625 L 4.71875 -25.15625 L 4.71875 -14.953125 Z M 11.15625 -14.953125 "/></g></g></g><g fill="#080707" fill-opacity="1"><g transform="translate(126.495919, 274.520358)"><g><path d="M 4.71875 -28 L 4.71875 0 L 1.59375 0 L 1.59375 -28 Z M 4.71875 -28 "/></g></g></g><g fill="#080707" fill-opacity="1"><g transform="translate(133.615288, 274.520358)"><g><path d="M 1.59375 0 L 1.59375 -28 L 4.71875 -28 L 4.71875 -2.84375 L 12.71875 -2.84375 L 12.71875 0 Z M 1.59375 0 "/></g></g></g><g fill="#080707" fill-opacity="1"><g transform="translate(147.893943, 274.520358)"><g><path d="M 11.921875 -0.046875 L 8.921875 -0.046875 L 4.28125 -22.3125 L 4.28125 0 L 1.5625 0 L 1.5625 -28 L 5.921875 -28 L 10.515625 -5.640625 L 14.953125 -28 L 19.3125 -28 L 19.3125 0 L 16.359375 0 L 16.359375 -22.515625 Z M 11.921875 -0.046875 "/></g></g></g><g fill="#080707" fill-opacity="1"><g transform="translate(169.611864, 274.520358)"><g/></g></g><g fill="#080707" fill-opacity="1"><g transform="translate(176.611242, 274.520358)"><g><path d="M 11.15625 -14.953125 L 11.15625 -12.125 L 4.71875 -12.125 L 4.71875 0 L 1.59375 0 L 1.59375 -28 L 12.71875 -28 L 12.71875 -25.15625 L 4.71875 -25.15625 L 4.71875 -14.953125 Z M 11.15625 -14.953125 "/></g></g></g><g fill="#080707" fill-opacity="1"><g transform="translate(191.009888, 274.520358)"><g><path d="M 4.71875 -28 L 4.71875 0 L 1.59375 0 L 1.59375 -28 Z M 4.71875 -28 "/></g></g></g><g fill="#080707" fill-opacity="1"><g transform="translate(198.129257, 274.520358)"><g><path d="M 4.359375 0 L 1.5625 0 L 1.5625 -28 L 5.515625 -28 L 12 -7.765625 L 12 -28 L 14.765625 -28 L 14.765625 0 L 11.515625 0 L 4.359375 -22.640625 Z M 4.359375 0 "/></g></g></g><g fill="#080707" fill-opacity="1"><g transform="translate(215.287635, 274.520358)"><g><path d="M 8.15625 -28 C 10.34375 -28 11.945312 -27.378906 12.96875 -26.140625 C 14 -24.898438 14.515625 -23.203125 14.515625 -21.046875 L 14.515625 -6.921875 C 14.515625 -4.765625 14 -3.070312 12.96875 -1.84375 C 11.945312 -0.613281 10.34375 0 8.15625 0 L 1.59375 0 L 1.59375 -28 Z M 8.125 -2.84375 C 9.238281 -2.84375 10.066406 -3.179688 10.609375 -3.859375 C 11.160156 -4.535156 11.4375 -5.515625 11.4375 -6.796875 L 11.4375 -21.203125 C 11.4375 -22.484375 11.160156 -23.460938 10.609375 -24.140625 C 10.066406 -24.816406 9.222656 -25.15625 8.078125 -25.15625 L 4.71875 -25.15625 L 4.71875 -2.84375 Z M 8.125 -2.84375 "/></g></g></g><g fill="#080707" fill-opacity="1"><g transform="translate(231.926061, 274.520358)"><g><path d="M 11.5625 -15.59375 L 11.5625 -12.796875 L 4.71875 -12.796875 L 4.71875 -2.84375 L 13.125 -2.84375 L 13.125 0 L 1.59375 0 L 1.59375 -28 L 13.125 -28 L 13.125 -25.15625 L 4.71875 -25.15625 L 4.71875 -15.59375 Z M 11.5625 -15.59375 "/></g></g></g><g fill="#080707" fill-opacity="1"><g transform="translate(247.124626, 274.520358)"><g><path d="M 7.84375 -28 C 10.050781 -28 11.640625 -27.453125 12.609375 -26.359375 C 13.585938 -25.265625 14.078125 -23.675781 14.078125 -21.59375 L 14.078125 -19.3125 C 14.078125 -17.769531 13.796875 -16.519531 13.234375 -15.5625 C 12.679688 -14.601562 11.800781 -13.9375 10.59375 -13.5625 C 11.875 -13.1875 12.78125 -12.5 13.3125 -11.5 C 13.851562 -10.5 14.125 -9.238281 14.125 -7.71875 L 14.125 -3.359375 C 14.125 -2.742188 14.148438 -2.148438 14.203125 -1.578125 C 14.253906 -1.003906 14.414062 -0.476562 14.6875 0 L 11.515625 0 C 11.328125 -0.394531 11.191406 -0.828125 11.109375 -1.296875 C 11.035156 -1.765625 11 -2.46875 11 -3.40625 L 11 -7.796875 C 11 -9.367188 10.644531 -10.453125 9.9375 -11.046875 C 9.226562 -11.648438 8.222656 -11.953125 6.921875 -11.953125 L 4.71875 -11.953125 L 4.71875 0 L 1.59375 0 L 1.59375 -28 Z M 7.046875 -14.796875 C 8.296875 -14.796875 9.265625 -15.054688 9.953125 -15.578125 C 10.648438 -16.097656 11 -17.117188 11 -18.640625 L 11 -21.3125 C 11 -22.59375 10.75 -23.550781 10.25 -24.1875 C 9.757812 -24.832031 8.929688 -25.15625 7.765625 -25.15625 L 4.71875 -25.15625 L 4.71875 -14.796875 Z M 7.046875 -14.796875 "/></g></g></g></svg>