<svg xmlns="http://www.w3.org/2000/svg" xmlns:xlink="http://www.w3.org/1999/xlink" width="500" zoomAndPan="magnify" viewBox="0 0 375 374.999991" height="500" preserveAspectRatio="xMidYMid meet" version="1.0"><defs><g/><clipPath id="79767abc32"><path d="M 108.324219 84.695312 L 188 84.695312 L 188 224.195312 L 108.324219 224.195312 Z M 108.324219 84.695312 " clip-rule="nonzero"/></clipPath><clipPath id="8815e19ba4"><path d="M 187 84.695312 L 266.574219 84.695312 L 266.574219 224 L 187 224 Z M 187 84.695312 " clip-rule="nonzero"/></clipPath></defs><rect x="-37.5" width="450" fill="#ffffff" y="-37.499999" height="449.999989" fill-opacity="1"/><rect x="-37.5" width="450" fill="#09251c" y="-37.499999" height="449.999989" fill-opacity="1"/><g clip-path="url(#79767abc32)"><path fill="#289f7b" d="M 158.628906 214.066406 C 155.324219 214.078125 152.261719 212.324219 150.601562 209.46875 L 121.347656 159.210938 C 119.683594 156.355469 119.671875 152.824219 121.316406 149.957031 L 150.214844 99.496094 C 151.855469 96.625 154.90625 94.851562 158.210938 94.84375 L 187.328125 94.738281 L 187.292969 84.816406 L 153.335938 84.933594 C 149.480469 84.945312 145.921875 87.015625 144.007812 90.363281 L 110.296875 149.226562 C 108.382812 152.574219 108.394531 156.6875 110.335938 160.019531 L 144.457031 218.644531 C 146.398438 221.976562 149.96875 224.023438 153.824219 224.007812 L 187.78125 223.890625 L 187.746094 213.964844 L 158.628906 214.066406 " fill-opacity="1" fill-rule="nonzero"/></g><g clip-path="url(#8815e19ba4)"><path fill="#58d5b0" d="M 264.65625 148.683594 L 230.535156 90.058594 C 228.59375 86.726562 225.023438 84.679688 221.167969 84.695312 L 187.292969 84.816406 L 187.328125 94.738281 L 216.359375 94.636719 C 219.667969 94.625 222.726562 96.378906 224.390625 99.234375 L 253.644531 149.492188 C 255.304688 152.347656 255.320312 155.878906 253.675781 158.746094 L 224.777344 209.207031 C 223.136719 212.078125 220.085938 213.851562 216.78125 213.863281 L 187.746094 213.964844 L 187.78125 223.890625 L 221.65625 223.769531 C 225.511719 223.757812 229.066406 221.6875 230.984375 218.339844 L 264.691406 159.476562 C 266.609375 156.132812 266.59375 152.015625 264.65625 148.683594 " fill-opacity="1" fill-rule="nonzero"/></g><path fill="#a9ead6" d="M 183.175781 185.191406 C 183.621094 186.261719 184.097656 187.292969 184.613281 188.222656 C 184.613281 188.222656 188.515625 185.96875 192.785156 188.070312 C 193.261719 187.125 193.703125 186.074219 194.109375 184.988281 C 188.464844 181.714844 183.175781 185.191406 183.175781 185.191406 " fill-opacity="1" fill-rule="nonzero"/><path fill="#a9ead6" d="M 180.804688 178.164062 C 181.109375 179.253906 181.464844 180.449219 181.871094 181.671875 C 183.730469 180.570312 188.953125 178.183594 195.300781 181.359375 C 195.675781 180.066406 196 178.808594 196.269531 177.667969 C 188.855469 174.019531 182.695312 177.027344 180.804688 178.164062 " fill-opacity="1" fill-rule="nonzero"/><path fill="#58d5b0" d="M 179.039062 145.320312 C 172.632812 141.101562 153.871094 129.265625 143.625 128.296875 C 140.042969 127.957031 137.328125 131.488281 138.585938 134.859375 C 141.632812 143.027344 151.074219 159.882812 175.929688 153.410156 C 167.203125 155.683594 154.8125 159.449219 150.394531 168.230469 C 145.710938 177.542969 151.566406 177.84375 157.75 176.101562 C 162.8125 174.675781 167.46875 172.03125 171.3125 168.4375 C 174.945312 165.03125 179.179688 159.917969 181.109375 153.332031 C 181.203125 153.015625 181.304688 152.699219 181.417969 152.390625 C 181.433594 152.34375 181.453125 152.296875 181.46875 152.242188 C 182.347656 149.664062 181.316406 146.820312 179.039062 145.320312 " fill-opacity="1" fill-rule="nonzero"/><path fill="#289f7b" d="M 179.039062 145.320312 L 179.28125 144.953125 C 176.070312 142.839844 169.769531 138.820312 162.976562 135.203125 C 159.582031 133.394531 156.0625 131.683594 152.742188 130.363281 C 149.417969 129.046875 146.296875 128.109375 143.667969 127.859375 C 143.492188 127.84375 143.320312 127.835938 143.148438 127.835938 C 141.652344 127.835938 140.316406 128.457031 139.367188 129.429688 C 138.414062 130.402344 137.835938 131.730469 137.835938 133.148438 C 137.835938 133.761719 137.945312 134.390625 138.175781 135.011719 C 139.476562 138.5 141.929688 143.558594 146.242188 147.757812 C 150.554688 151.960938 156.75 155.296875 165.429688 155.292969 C 168.621094 155.292969 172.148438 154.84375 176.039062 153.832031 C 176.152344 153.800781 176.25 153.730469 176.308594 153.628906 C 176.367188 153.527344 176.382812 153.410156 176.355469 153.296875 C 176.324219 153.1875 176.25 153.089844 176.152344 153.03125 C 176.054688 152.972656 175.933594 152.953125 175.820312 152.984375 C 171.445312 154.125 166.140625 155.640625 161.351562 157.984375 C 158.957031 159.160156 156.691406 160.542969 154.738281 162.195312 C 152.78125 163.851562 151.136719 165.777344 150.003906 168.035156 C 148.800781 170.425781 148.261719 172.257812 148.257812 173.683594 C 148.257812 174.332031 148.375 174.902344 148.601562 175.386719 C 148.941406 176.113281 149.535156 176.628906 150.253906 176.9375 C 150.976562 177.246094 151.824219 177.367188 152.753906 177.367188 C 154.296875 177.367188 156.070312 177.027344 157.867188 176.523438 C 163 175.074219 167.71875 172.398438 171.609375 168.753906 C 175.28125 165.320312 179.566406 160.148438 181.53125 153.453125 C 181.621094 153.144531 181.71875 152.839844 181.828125 152.539062 C 181.84375 152.492188 181.863281 152.441406 181.882812 152.382812 C 182.109375 151.71875 182.21875 151.035156 182.21875 150.363281 C 182.21875 148.226562 181.132812 146.175781 179.28125 144.953125 L 178.800781 145.683594 C 180.40625 146.742188 181.34375 148.523438 181.34375 150.363281 C 181.34375 150.945312 181.25 151.527344 181.054688 152.101562 L 181.054688 152.105469 C 181.039062 152.152344 181.019531 152.199219 181.007812 152.242188 C 180.890625 152.558594 180.785156 152.882812 180.6875 153.207031 C 178.792969 159.683594 174.613281 164.746094 171.011719 168.117188 C 167.222656 171.664062 162.625 174.273438 157.628906 175.679688 C 155.882812 176.171875 154.167969 176.492188 152.753906 176.492188 C 151.617188 176.496094 150.691406 176.28125 150.089844 175.847656 C 149.789062 175.628906 149.558594 175.363281 149.394531 175.015625 C 149.230469 174.667969 149.132812 174.230469 149.132812 173.683594 C 149.132812 172.484375 149.613281 170.753906 150.785156 168.429688 C 151.859375 166.296875 153.417969 164.457031 155.304688 162.863281 C 160.953125 158.078125 169.507812 155.527344 176.039062 153.832031 C 176.152344 153.800781 176.25 153.730469 176.308594 153.628906 C 176.367188 153.527344 176.382812 153.410156 176.355469 153.296875 C 176.324219 153.1875 176.25 153.089844 176.152344 153.03125 C 176.054688 152.972656 175.933594 152.953125 175.820312 152.984375 C 171.992188 153.980469 168.539062 154.417969 165.429688 154.417969 C 156.976562 154.414062 151.039062 151.203125 146.851562 147.132812 C 142.671875 143.0625 140.265625 138.117188 138.996094 134.707031 C 138.800781 134.183594 138.710938 133.660156 138.710938 133.148438 C 138.710938 131.96875 139.195312 130.859375 139.992188 130.042969 C 140.792969 129.226562 141.894531 128.710938 143.148438 128.710938 C 143.289062 128.710938 143.4375 128.714844 143.582031 128.730469 C 146.078125 128.96875 149.140625 129.875 152.417969 131.179688 C 162.257812 135.089844 174.007812 142.527344 178.800781 145.683594 L 179.039062 145.320312 " fill-opacity="1" fill-rule="nonzero"/><path fill="#289f7b" d="M 194.089844 153.660156 C 194 153.363281 193.90625 153.074219 193.804688 152.804688 L 193.738281 152.625 C 192.699219 149.640625 193.753906 146.328125 196.289062 144.414062 C 194.21875 142.359375 191.371094 141.097656 188.226562 141.109375 C 185.066406 141.121094 182.210938 142.417969 180.15625 144.507812 C 182.671875 146.40625 183.722656 149.691406 182.710938 152.667969 L 182.652344 152.839844 C 182.550781 153.113281 182.457031 153.402344 182.367188 153.699219 C 182.238281 154.148438 182.09375 154.59375 181.941406 155.03125 C 183.867188 153.890625 186.050781 153.375 188.1875 153.355469 L 188.269531 153.355469 C 190.394531 153.347656 192.578125 153.835938 194.515625 154.953125 C 194.363281 154.527344 194.222656 154.097656 194.089844 153.660156 " fill-opacity="1" fill-rule="nonzero"/><path fill="#58d5b0" d="M 197.363281 145.257812 C 203.738281 140.992188 222.414062 129.023438 232.65625 127.984375 C 236.238281 127.617188 238.972656 131.128906 237.742188 134.511719 C 234.753906 142.703125 225.425781 159.621094 200.527344 153.320312 C 209.269531 155.535156 221.6875 159.214844 226.167969 167.964844 C 230.917969 177.242188 225.0625 177.585938 218.871094 175.886719 C 213.792969 174.496094 209.121094 171.886719 205.253906 168.316406 C 201.59375 164.9375 197.320312 159.851562 195.347656 153.28125 C 195.253906 152.964844 195.148438 152.652344 195.035156 152.34375 C 195.015625 152.296875 195 152.25 194.980469 152.195312 C 194.085938 149.621094 195.097656 146.769531 197.363281 145.257812 " fill-opacity="1" fill-rule="nonzero"/><path fill="#289f7b" d="M 197.363281 145.257812 L 197.605469 145.617188 C 200.785156 143.492188 207.042969 139.441406 213.769531 135.796875 C 217.132812 133.972656 220.613281 132.253906 223.882812 130.925781 C 227.148438 129.601562 230.207031 128.671875 232.699219 128.417969 C 232.855469 128.402344 233.011719 128.394531 233.167969 128.394531 C 234.417969 128.394531 235.519531 128.910156 236.320312 129.726562 C 237.117188 130.539062 237.601562 131.652344 237.601562 132.832031 C 237.601562 133.332031 237.515625 133.84375 237.328125 134.363281 C 236.074219 137.796875 233.691406 142.785156 229.503906 146.898438 C 227.40625 148.953125 224.863281 150.792969 221.78125 152.117188 C 218.695312 153.445312 215.070312 154.257812 210.796875 154.257812 C 207.75 154.257812 204.375 153.84375 200.632812 152.898438 C 200.402344 152.839844 200.160156 152.980469 200.101562 153.214844 C 200.042969 153.449219 200.183594 153.683594 200.417969 153.746094 C 204.78125 154.851562 210.046875 156.316406 214.753906 158.585938 C 217.109375 159.71875 219.324219 161.050781 221.21875 162.632812 C 223.113281 164.214844 224.691406 166.039062 225.777344 168.164062 C 226.976562 170.5 227.46875 172.238281 227.464844 173.441406 C 227.464844 173.988281 227.367188 174.421875 227.203125 174.765625 C 226.953125 175.285156 226.554688 175.636719 225.980469 175.882812 C 225.402344 176.125 224.65625 176.242188 223.796875 176.242188 C 222.394531 176.242188 220.707031 175.9375 218.984375 175.464844 C 213.976562 174.089844 209.363281 171.515625 205.550781 167.996094 C 201.925781 164.648438 197.707031 159.617188 195.765625 153.15625 C 195.671875 152.828125 195.5625 152.507812 195.441406 152.191406 C 195.425781 152.148438 195.410156 152.101562 195.394531 152.050781 C 195.191406 151.46875 195.09375 150.871094 195.09375 150.277344 C 195.09375 148.449219 196.015625 146.679688 197.605469 145.617188 L 197.363281 145.257812 L 197.117188 144.890625 C 195.285156 146.117188 194.21875 148.15625 194.21875 150.277344 C 194.21875 150.964844 194.332031 151.660156 194.566406 152.339844 C 194.585938 152.394531 194.605469 152.449219 194.625 152.496094 C 194.734375 152.796875 194.835938 153.097656 194.929688 153.40625 C 196.9375 160.085938 201.261719 165.226562 204.957031 168.636719 C 208.875 172.253906 213.609375 174.898438 218.753906 176.308594 C 220.523438 176.792969 222.269531 177.117188 223.796875 177.117188 C 225.046875 177.117188 226.15625 176.902344 227 176.3125 C 227.421875 176.019531 227.761719 175.628906 227.992188 175.144531 C 228.222656 174.660156 228.339844 174.089844 228.339844 173.441406 C 228.335938 172.007812 227.785156 170.171875 226.558594 167.765625 C 225.40625 165.515625 223.746094 163.597656 221.78125 161.960938 C 215.878906 157.046875 207.207031 154.5625 200.632812 152.898438 C 200.402344 152.839844 200.160156 152.980469 200.101562 153.214844 C 200.042969 153.449219 200.183594 153.683594 200.417969 153.746094 C 204.222656 154.707031 207.671875 155.132812 210.796875 155.132812 C 219.566406 155.136719 225.796875 151.765625 230.113281 147.523438 C 234.4375 143.277344 236.867188 138.175781 238.152344 134.660156 C 238.371094 134.050781 238.476562 133.433594 238.476562 132.832031 C 238.476562 131.410156 237.898438 130.082031 236.945312 129.109375 C 235.992188 128.140625 234.660156 127.519531 233.167969 127.519531 C 232.984375 127.519531 232.796875 127.527344 232.609375 127.546875 C 229.980469 127.816406 226.867188 128.773438 223.554688 130.117188 C 213.621094 134.148438 201.914062 141.6875 197.117188 144.890625 L 197.363281 145.257812 " fill-opacity="1" fill-rule="nonzero"/><path fill="#a9ead6" d="M 196.921875 169.839844 C 196.921875 169.839844 192.867188 167.546875 188.761719 167.621094 C 188.636719 167.617188 188.507812 167.617188 188.382812 167.621094 C 188.289062 167.621094 188.195312 167.621094 188.101562 167.625 C 187.921875 167.628906 187.742188 167.640625 187.566406 167.652344 C 187.449219 167.660156 187.335938 167.667969 187.222656 167.679688 C 187.144531 167.6875 187.070312 167.691406 186.992188 167.699219 L 186.933594 167.707031 C 186.890625 167.710938 186.851562 167.71875 186.808594 167.722656 C 186.75 167.730469 186.683594 167.738281 186.625 167.746094 L 186.542969 167.753906 L 186.539062 167.757812 L 186.53125 167.757812 C 186.25 167.796875 185.972656 167.839844 185.707031 167.894531 L 185.6875 167.894531 C 185.644531 167.90625 185.601562 167.917969 185.558594 167.925781 C 185.457031 167.945312 185.355469 167.964844 185.257812 167.988281 L 185.230469 167.992188 L 185.210938 167.996094 L 185.152344 168.011719 L 185.132812 168.015625 L 185.121094 168.019531 C 185.070312 168.027344 185.011719 168.042969 184.945312 168.058594 L 184.941406 168.058594 C 184.90625 168.066406 184.867188 168.074219 184.828125 168.082031 L 184.8125 168.085938 C 184.746094 168.101562 184.675781 168.121094 184.601562 168.136719 L 184.550781 168.148438 L 184.464844 168.171875 C 184.414062 168.183594 184.367188 168.195312 184.3125 168.207031 L 184.257812 168.21875 C 184.171875 168.242188 184.082031 168.265625 183.984375 168.289062 L 183.96875 168.292969 C 183.933594 168.304688 183.898438 168.3125 183.859375 168.324219 C 183.796875 168.339844 183.730469 168.355469 183.664062 168.371094 L 183.601562 168.390625 C 183.496094 168.417969 183.386719 168.449219 183.277344 168.480469 L 183.238281 168.492188 C 183.179688 168.507812 183.121094 168.523438 183.0625 168.539062 C 183.015625 168.554688 182.972656 168.566406 182.925781 168.582031 L 182.871094 168.597656 C 182.757812 168.628906 182.644531 168.660156 182.53125 168.695312 L 182.464844 168.71875 C 182.371094 168.746094 182.277344 168.777344 182.1875 168.808594 L 182.113281 168.832031 L 182.09375 168.835938 C 181.980469 168.875 181.871094 168.910156 181.761719 168.949219 L 181.691406 168.972656 C 181.609375 169.003906 181.527344 169.03125 181.449219 169.0625 L 181.363281 169.09375 L 181.296875 169.117188 L 181.28125 169.125 C 181.1875 169.160156 181.089844 169.199219 180.996094 169.238281 L 180.964844 169.25 C 180.871094 169.289062 180.78125 169.328125 180.695312 169.371094 L 180.664062 169.382812 L 180.601562 169.410156 C 180.527344 169.445312 180.457031 169.480469 180.386719 169.515625 L 180.324219 169.546875 L 180.292969 169.566406 C 180.234375 169.59375 180.183594 169.625 180.128906 169.65625 L 180.0625 169.691406 L 180.019531 169.71875 C 179.945312 169.765625 179.875 169.8125 179.808594 169.859375 L 179.769531 169.890625 C 179.703125 169.9375 179.644531 169.988281 179.59375 170.039062 C 179.511719 170.945312 179.558594 171.953125 179.636719 172.773438 L 179.6875 173.167969 L 179.675781 173.179688 C 179.6875 173.296875 179.703125 173.40625 179.714844 173.507812 L 179.714844 173.523438 C 179.757812 173.84375 179.792969 174.09375 179.816406 174.238281 L 179.828125 174.3125 L 179.828125 174.316406 L 179.839844 174.375 C 179.878906 174.347656 179.929688 174.316406 179.972656 174.289062 C 180.015625 174.265625 180.050781 174.242188 180.09375 174.214844 L 180.125 174.195312 L 180.191406 174.15625 L 180.21875 174.140625 L 180.234375 174.128906 C 180.425781 174.015625 180.636719 173.898438 180.871094 173.769531 L 180.894531 173.761719 L 181.003906 173.699219 C 181.300781 173.546875 181.632812 173.382812 181.992188 173.226562 L 182.015625 173.214844 C 182.179688 173.144531 182.351562 173.070312 182.53125 173 L 182.53125 172.996094 C 182.574219 172.980469 182.617188 172.964844 182.664062 172.945312 C 182.847656 172.875 183.035156 172.800781 183.230469 172.734375 L 183.242188 172.726562 C 183.671875 172.578125 184.132812 172.433594 184.617188 172.308594 L 184.671875 172.292969 C 184.90625 172.234375 185.144531 172.179688 185.390625 172.125 C 185.425781 172.117188 185.457031 172.113281 185.492188 172.105469 C 185.710938 172.058594 185.929688 172.019531 186.15625 171.984375 L 186.214844 171.972656 C 186.746094 171.886719 187.300781 171.824219 187.878906 171.792969 C 187.9375 171.789062 188 171.785156 188.0625 171.78125 C 188.605469 171.757812 189.171875 171.757812 189.753906 171.792969 C 189.792969 171.792969 189.832031 171.796875 189.871094 171.800781 C 190.195312 171.820312 190.53125 171.847656 190.867188 171.890625 C 191.195312 171.929688 191.527344 171.988281 191.863281 172.046875 C 191.960938 172.066406 192.058594 172.082031 192.15625 172.101562 L 192.164062 172.105469 L 192.179688 172.105469 L 192.195312 172.109375 C 192.402344 172.152344 192.617188 172.203125 192.828125 172.253906 L 192.832031 172.253906 C 193.09375 172.320312 193.359375 172.394531 193.628906 172.472656 L 193.71875 172.5 C 193.945312 172.566406 194.167969 172.640625 194.398438 172.722656 L 194.433594 172.730469 C 194.464844 172.742188 194.492188 172.753906 194.523438 172.765625 L 194.59375 172.789062 C 194.761719 172.851562 194.933594 172.917969 195.101562 172.984375 C 195.15625 173.003906 195.207031 173.023438 195.261719 173.042969 C 195.292969 173.058594 195.324219 173.070312 195.355469 173.082031 C 195.390625 173.09375 195.421875 173.105469 195.457031 173.121094 C 195.734375 173.238281 196.011719 173.359375 196.296875 173.492188 L 196.300781 173.492188 C 196.429688 173.554688 196.558594 173.621094 196.691406 173.6875 C 196.730469 173.707031 196.769531 173.726562 196.808594 173.746094 C 196.957031 172.039062 196.921875 169.839844 196.921875 169.839844 " fill-opacity="1" fill-rule="nonzero"/><path fill="#289f7b" d="M 196.925781 170.402344 C 196.925781 170.75 196.921875 171.230469 196.910156 171.761719 C 196.90625 171.972656 196.898438 172.195312 196.890625 172.417969 C 196.886719 172.527344 196.878906 172.640625 196.875 172.753906 C 196.863281 172.976562 196.851562 173.203125 196.835938 173.421875 C 196.828125 173.53125 196.820312 173.640625 196.808594 173.746094 C 196.75 173.71875 196.691406 173.6875 196.632812 173.65625 C 196.523438 173.601562 196.410156 173.546875 196.300781 173.492188 L 196.296875 173.492188 C 196.214844 173.453125 196.136719 173.421875 196.058594 173.386719 C 195.855469 173.292969 195.652344 173.203125 195.453125 173.121094 C 195.421875 173.105469 195.390625 173.09375 195.355469 173.082031 C 195.324219 173.070312 195.292969 173.058594 195.261719 173.042969 C 195.207031 173.023438 195.15625 173.003906 195.101562 172.984375 C 194.953125 172.921875 194.804688 172.867188 194.65625 172.8125 L 194.59375 172.789062 L 194.550781 172.773438 L 194.507812 172.761719 L 194.433594 172.730469 L 194.398438 172.722656 L 194.375 172.714844 L 194.355469 172.707031 C 194.292969 172.6875 194.238281 172.667969 194.179688 172.652344 C 194.023438 172.597656 193.871094 172.546875 193.71875 172.5 L 193.628906 172.472656 C 193.359375 172.394531 193.09375 172.320312 192.832031 172.253906 L 192.828125 172.253906 C 192.617188 172.203125 192.402344 172.152344 192.195312 172.109375 L 192.179688 172.105469 L 192.164062 172.105469 L 192.15625 172.101562 C 192.058594 172.082031 191.960938 172.066406 191.863281 172.046875 C 191.527344 171.988281 191.195312 171.929688 190.867188 171.890625 C 190.53125 171.847656 190.195312 171.820312 189.871094 171.800781 C 189.832031 171.796875 189.792969 171.792969 189.753906 171.792969 C 189.171875 171.757812 188.605469 171.757812 188.0625 171.78125 C 188 171.785156 187.9375 171.789062 187.878906 171.792969 C 187.300781 171.824219 186.746094 171.886719 186.214844 171.972656 L 186.15625 171.984375 C 185.929688 172.019531 185.710938 172.058594 185.492188 172.105469 C 185.457031 172.113281 185.425781 172.117188 185.390625 172.125 C 185.144531 172.179688 184.90625 172.234375 184.671875 172.292969 L 184.621094 172.308594 L 184.617188 172.308594 C 184.382812 172.371094 184.15625 172.433594 183.9375 172.5 L 183.886719 172.515625 C 183.664062 172.585938 183.449219 172.65625 183.242188 172.726562 L 183.230469 172.734375 C 183.035156 172.800781 182.847656 172.875 182.664062 172.945312 C 182.617188 172.964844 182.574219 172.980469 182.53125 172.996094 L 182.53125 173 C 182.351562 173.070312 182.179688 173.144531 182.011719 173.214844 L 182.003906 173.21875 L 181.992188 173.226562 C 181.632812 173.382812 181.300781 173.546875 181.003906 173.699219 L 180.894531 173.761719 L 180.878906 173.765625 L 180.855469 173.777344 C 180.628906 173.902344 180.417969 174.019531 180.234375 174.128906 L 180.21875 174.140625 L 180.191406 174.15625 L 180.125 174.195312 L 180.09375 174.214844 C 180.050781 174.242188 180.015625 174.265625 179.972656 174.289062 L 179.949219 174.304688 C 179.914062 174.328125 179.871094 174.351562 179.839844 174.375 C 179.839844 174.375 179.835938 174.355469 179.828125 174.316406 L 179.828125 174.3125 L 179.820312 174.265625 L 179.816406 174.238281 C 179.8125 174.210938 179.804688 174.179688 179.800781 174.148438 L 179.800781 174.136719 L 179.789062 174.0625 L 179.777344 173.980469 L 179.769531 173.917969 C 179.761719 173.875 179.757812 173.832031 179.75 173.78125 L 179.742188 173.734375 C 179.738281 173.683594 179.730469 173.628906 179.722656 173.574219 L 179.714844 173.523438 L 179.714844 173.507812 C 179.703125 173.40625 179.6875 173.296875 179.675781 173.179688 L 179.6875 173.167969 L 179.636719 172.773438 C 179.597656 172.363281 179.566406 171.90625 179.554688 171.4375 C 179.542969 170.96875 179.550781 170.492188 179.59375 170.039062 C 179.644531 169.988281 179.703125 169.9375 179.769531 169.890625 L 179.808594 169.859375 C 179.875 169.8125 179.945312 169.765625 180.019531 169.71875 L 180.0625 169.691406 C 180.136719 169.652344 180.210938 169.605469 180.289062 169.566406 L 180.292969 169.566406 L 180.304688 169.558594 L 180.324219 169.546875 C 180.414062 169.5 180.507812 169.457031 180.601562 169.410156 L 180.664062 169.382812 C 180.761719 169.339844 180.863281 169.292969 180.964844 169.25 L 181 169.238281 C 181.097656 169.195312 181.195312 169.15625 181.296875 169.117188 L 181.363281 169.09375 C 181.472656 169.054688 181.582031 169.011719 181.691406 168.972656 L 181.761719 168.949219 C 181.871094 168.910156 181.980469 168.875 182.09375 168.835938 L 182.113281 168.832031 C 182.226562 168.792969 182.34375 168.753906 182.457031 168.71875 L 182.535156 168.695312 C 182.644531 168.660156 182.757812 168.628906 182.871094 168.597656 L 182.929688 168.578125 C 183.03125 168.546875 183.136719 168.519531 183.238281 168.492188 L 183.28125 168.476562 C 183.390625 168.445312 183.496094 168.417969 183.601562 168.390625 L 183.667969 168.371094 C 183.773438 168.34375 183.871094 168.320312 183.96875 168.292969 L 183.992188 168.289062 C 184.082031 168.265625 184.167969 168.242188 184.253906 168.222656 L 184.3125 168.207031 C 184.355469 168.199219 184.390625 168.1875 184.429688 168.179688 L 184.464844 168.171875 L 184.503906 168.160156 L 184.550781 168.148438 L 184.605469 168.136719 C 184.671875 168.121094 184.738281 168.105469 184.796875 168.089844 L 184.828125 168.082031 C 184.867188 168.074219 184.90625 168.066406 184.941406 168.058594 L 184.945312 168.058594 C 185.011719 168.042969 185.070312 168.027344 185.121094 168.019531 L 185.132812 168.015625 L 185.171875 168.007812 C 185.222656 167.996094 185.253906 167.988281 185.257812 167.988281 C 185.398438 167.957031 185.542969 167.925781 185.6875 167.898438 L 185.699219 167.894531 L 185.707031 167.894531 C 185.972656 167.839844 186.25 167.796875 186.53125 167.757812 L 186.542969 167.753906 L 186.625 167.746094 L 186.625 167.742188 C 186.726562 167.730469 186.828125 167.71875 186.933594 167.707031 L 186.992188 167.699219 C 187.070312 167.691406 187.144531 167.6875 187.222656 167.679688 C 187.335938 167.667969 187.449219 167.660156 187.566406 167.652344 C 187.742188 167.640625 187.921875 167.628906 188.101562 167.625 C 188.195312 167.621094 188.289062 167.621094 188.382812 167.621094 C 188.507812 167.617188 188.636719 167.617188 188.761719 167.621094 L 188.765625 167.621094 C 192.871094 167.550781 196.917969 169.839844 196.921875 169.839844 C 196.921875 169.839844 196.921875 169.976562 196.925781 170.210938 C 196.925781 170.269531 196.925781 170.332031 196.925781 170.402344 Z M 195.300781 181.359375 C 188.953125 178.183594 183.730469 180.570312 181.871094 181.671875 C 181.464844 180.449219 181.109375 179.253906 180.804688 178.164062 C 182.695312 177.027344 188.855469 174.019531 196.269531 177.667969 C 195.996094 178.808594 195.675781 180.066406 195.300781 181.359375 Z M 192.785156 188.070312 C 188.515625 185.96875 184.613281 188.222656 184.613281 188.222656 C 184.097656 187.292969 183.621094 186.261719 183.175781 185.191406 C 183.175781 185.191406 188.464844 181.714844 194.109375 184.988281 C 193.703125 186.074219 193.261719 187.125 192.785156 188.070312 Z M 198.097656 162.269531 C 197.652344 160.472656 196.796875 158.800781 195.523438 157.457031 C 194.914062 156.8125 194.40625 156.433594 194.164062 156.269531 C 192.398438 155.144531 190.3125 154.613281 188.078125 154.65625 C 185.378906 154.707031 182.921875 155.578125 181.023438 157.316406 C 180.300781 158.085938 179.546875 159.148438 178.921875 160.601562 C 178.921875 160.601562 174.925781 169.632812 180.390625 184.105469 C 182.539062 189.988281 185.558594 194.761719 188.820312 194.703125 C 191.8125 194.648438 194.449219 190.53125 196.355469 185.257812 C 196.386719 185.171875 196.417969 185.089844 196.445312 185.007812 C 197.027344 183.371094 197.539062 181.621094 197.96875 179.855469 L 197.96875 179.859375 C 198.316406 178.523438 198.570312 177.222656 198.75 175.957031 L 198.765625 175.882812 L 198.785156 175.734375 C 198.796875 175.660156 198.804688 175.585938 198.816406 175.511719 L 198.859375 175.15625 L 198.855469 175.15625 C 199.535156 169.5 198.722656 164.792969 198.097656 162.269531 " fill-opacity="1" fill-rule="nonzero"/><path fill="#289f7b" d="M 195.957031 131.792969 L 195.929688 131.773438 L 195.914062 131.765625 C 194.640625 130.917969 193 130.777344 191.636719 131.46875 C 190.3125 132.140625 189.476562 133.226562 189.476562 133.226562 C 189.796875 132.257812 190.417969 131.609375 190.972656 131.199219 C 191.1875 131.003906 191.441406 130.800781 191.753906 130.601562 C 191.171875 130.15625 190.503906 129.820312 189.785156 129.609375 L 189.804688 129.53125 C 189.804688 129.46875 190.210938 123.070312 193.082031 120.71875 C 193.929688 120.023438 194.882812 119.761719 196.003906 119.917969 C 196.242188 119.957031 196.464844 119.785156 196.496094 119.546875 C 196.53125 119.308594 196.363281 119.085938 196.125 119.050781 C 194.773438 118.859375 193.5625 119.195312 192.527344 120.039062 C 189.46875 122.546875 188.976562 128.765625 188.933594 129.429688 C 188.664062 129.394531 188.390625 129.371094 188.113281 129.371094 C 187.976562 129.371094 187.839844 129.378906 187.703125 129.390625 C 187.636719 128.542969 187.066406 122.507812 184.042969 120.070312 C 183.003906 119.230469 181.792969 118.90625 180.441406 119.109375 C 180.203125 119.140625 180.039062 119.363281 180.074219 119.605469 C 180.109375 119.84375 180.332031 120.015625 180.570312 119.972656 C 181.6875 119.808594 182.644531 120.0625 183.496094 120.75 C 186.304688 123.019531 186.808594 129.132812 186.835938 129.519531 C 185.960938 129.71875 185.164062 130.101562 184.476562 130.632812 C 184.644531 130.691406 186.414062 131.359375 187.046875 133.234375 C 187.046875 133.234375 186.550781 132.59375 185.714844 132 L 185.742188 132.039062 L 185.703125 131.988281 L 185.675781 131.96875 C 183.824219 130.667969 181.289062 130.914062 179.660156 132.480469 C 178.523438 133.574219 177.816406 135.109375 177.824219 136.8125 C 177.832031 139.097656 179.121094 141.078125 181.011719 142.082031 C 183.058594 140.652344 185.542969 139.804688 188.222656 139.796875 C 190.90625 139.785156 193.394531 140.613281 195.449219 142.03125 C 197.332031 141.015625 198.609375 139.027344 198.601562 136.738281 C 198.59375 134.679688 197.546875 132.867188 195.957031 131.792969 " fill-opacity="1" fill-rule="nonzero"/><path fill="#289f7b" d="M 197.261719 143.324219 C 196.84375 143.328125 196.472656 143.027344 196.394531 142.601562 C 196.3125 142.125 196.632812 141.671875 197.105469 141.589844 C 199.578125 141.152344 201.113281 138.808594 201.671875 136.933594 C 202.148438 135.335938 202.21875 133.683594 202.296875 131.933594 C 202.328125 131.195312 202.359375 130.425781 202.425781 129.667969 C 202.722656 126.273438 203.769531 123.839844 205.632812 122.222656 C 205.996094 121.90625 206.550781 121.945312 206.867188 122.3125 C 207.183594 122.675781 207.144531 123.230469 206.777344 123.546875 C 205.277344 124.847656 204.425781 126.898438 204.167969 129.820312 C 204.105469 130.539062 204.074219 131.285156 204.042969 132.007812 C 203.96875 133.789062 203.890625 135.628906 203.351562 137.433594 C 202.644531 139.785156 200.667969 142.738281 197.410156 143.3125 C 197.359375 143.320312 197.308594 143.324219 197.261719 143.324219 " fill-opacity="1" fill-rule="nonzero"/><path fill="#289f7b" d="M 207.078125 188.925781 C 206.84375 188.925781 206.609375 188.832031 206.433594 188.648438 C 204.753906 186.847656 203.960938 184.320312 204.019531 180.910156 C 204.035156 180.148438 204.082031 179.382812 204.125 178.644531 C 204.234375 176.894531 204.335938 175.246094 204.027344 173.609375 C 203.664062 171.683594 202.386719 169.191406 199.972656 168.5 C 199.507812 168.367188 199.238281 167.882812 199.371094 167.417969 C 199.503906 166.953125 199.988281 166.6875 200.453125 166.816406 C 203.632812 167.726562 205.292969 170.871094 205.75 173.28125 C 206.097656 175.132812 205.984375 176.972656 205.875 178.75 C 205.828125 179.472656 205.785156 180.21875 205.769531 180.941406 C 205.722656 183.871094 206.359375 186 207.714844 187.453125 C 208.042969 187.804688 208.027344 188.359375 207.671875 188.6875 C 207.503906 188.84375 207.289062 188.921875 207.078125 188.925781 " fill-opacity="1" fill-rule="nonzero"/><path fill="#289f7b" d="M 169.765625 189.058594 C 169.550781 189.058594 169.339844 188.980469 169.167969 188.824219 C 168.8125 188.496094 168.792969 187.941406 169.121094 187.585938 C 170.464844 186.128906 171.085938 183.992188 171.015625 181.0625 C 170.996094 180.339844 170.945312 179.59375 170.898438 178.871094 C 170.773438 177.09375 170.648438 175.257812 170.984375 173.40625 C 171.421875 170.988281 173.058594 167.835938 176.234375 166.902344 C 176.699219 166.769531 177.183594 167.03125 177.320312 167.496094 C 177.457031 167.960938 177.191406 168.445312 176.726562 168.582031 C 174.320312 169.289062 173.054688 171.792969 172.707031 173.71875 C 172.410156 175.355469 172.523438 177.003906 172.644531 178.75 C 172.695312 179.492188 172.746094 180.257812 172.765625 181.019531 C 172.847656 184.425781 172.078125 186.964844 170.40625 188.773438 C 170.234375 188.960938 170 189.054688 169.765625 189.058594 " fill-opacity="1" fill-rule="nonzero"/><path fill="#289f7b" d="M 179.511719 143.5625 C 179.476562 143.5625 179.441406 143.5625 179.40625 143.558594 C 176.121094 143.1875 173.964844 140.363281 173.117188 138.058594 C 172.464844 136.289062 172.273438 134.457031 172.089844 132.6875 C 172.011719 131.96875 171.933594 131.226562 171.828125 130.507812 C 171.390625 127.609375 170.414062 125.617188 168.835938 124.410156 C 168.453125 124.117188 168.378906 123.566406 168.671875 123.183594 C 168.964844 122.800781 169.515625 122.726562 169.898438 123.019531 C 171.855469 124.515625 173.050781 126.878906 173.558594 130.25 C 173.671875 131.003906 173.753906 131.765625 173.828125 132.503906 C 174.011719 134.246094 174.183594 135.890625 174.757812 137.453125 C 175.433594 139.292969 177.109375 141.535156 179.605469 141.816406 C 180.085938 141.871094 180.429688 142.304688 180.375 142.785156 C 180.328125 143.234375 179.949219 143.5625 179.511719 143.5625 " fill-opacity="1" fill-rule="nonzero"/><g fill="#1e765c" fill-opacity="1"><g transform="translate(107.134582, 262.682356)"><g><path d="M 18.84375 -17.921875 L 7.9375 -17.921875 L 7.9375 -12.734375 L 17.984375 -12.734375 L 17.984375 -8.25 L 7.9375 -8.25 L 7.9375 0 L 2.234375 0 L 2.234375 -22.40625 L 18.84375 -22.40625 Z M 18.84375 -17.921875 "/></g></g></g><g fill="#1e765c" fill-opacity="1"><g transform="translate(127.257828, 262.682356)"><g><path d="M 7.9375 0 L 2.234375 0 L 2.234375 -22.40625 L 7.9375 -22.40625 Z M 7.9375 0 "/></g></g></g><g fill="#1e765c" fill-opacity="1"><g transform="translate(138.231329, 262.682356)"><g><path d="M 20.484375 -18.75 L 8.515625 -4.515625 L 20.671875 -4.515625 L 20.671875 0 L 0.890625 0 L 0.890625 -3.640625 L 12.890625 -17.890625 L 1.3125 -17.890625 L 1.3125 -22.40625 L 20.484375 -22.40625 Z M 20.484375 -18.75 "/></g></g></g><g fill="#1e765c" fill-opacity="1"><g transform="translate(160.626025, 262.682356)"><g><path d="M 20.484375 -18.75 L 8.515625 -4.515625 L 20.671875 -4.515625 L 20.671875 0 L 0.890625 0 L 0.890625 -3.640625 L 12.890625 -17.890625 L 1.3125 -17.890625 L 1.3125 -22.40625 L 20.484375 -22.40625 Z M 20.484375 -18.75 "/></g></g></g><g fill="#1e765c" fill-opacity="1"><g transform="translate(183.020715, 262.682356)"><g/></g></g><g fill="#58d5b0" fill-opacity="1"><g transform="translate(191.251767, 262.682356)"><g><path d="M 2.234375 -22.40625 L 12.828125 -22.40625 C 15.347656 -22.40625 17.347656 -21.894531 18.828125 -20.875 C 20.316406 -19.863281 21.0625 -18.503906 21.0625 -16.796875 C 21.0625 -15.628906 20.71875 -14.601562 20.03125 -13.71875 C 19.351562 -12.832031 18.414062 -12.21875 17.21875 -11.875 C 18.625 -11.59375 19.742188 -10.941406 20.578125 -9.921875 C 21.410156 -8.898438 21.828125 -7.660156 21.828125 -6.203125 C 21.828125 -4.304688 21.050781 -2.796875 19.5 -1.671875 C 17.957031 -0.554688 15.863281 0 13.21875 0 L 2.234375 0 Z M 7.90625 -18.046875 L 7.90625 -13.4375 L 12.515625 -13.4375 C 13.347656 -13.4375 14.007812 -13.644531 14.5 -14.0625 C 14.988281 -14.476562 15.234375 -15.050781 15.234375 -15.78125 C 15.234375 -16.476562 14.988281 -17.03125 14.5 -17.4375 C 14.007812 -17.84375 13.347656 -18.046875 12.515625 -18.046875 Z M 7.90625 -9.34375 L 7.90625 -4.390625 L 12.515625 -4.390625 C 13.578125 -4.390625 14.410156 -4.613281 15.015625 -5.0625 C 15.628906 -5.507812 15.9375 -6.125 15.9375 -6.90625 C 15.9375 -7.65625 15.628906 -8.25 15.015625 -8.6875 C 14.410156 -9.125 13.578125 -9.34375 12.515625 -9.34375 Z M 7.90625 -9.34375 "/></g></g></g><g fill="#58d5b0" fill-opacity="1"><g transform="translate(214.92615, 262.682356)"><g><path d="M 22.40625 -22.40625 L 22.40625 -9.40625 C 22.40625 -6.4375 21.484375 -4.082031 19.640625 -2.34375 C 17.804688 -0.613281 15.320312 0.25 12.1875 0.25 C 9.03125 0.25 6.519531 -0.613281 4.65625 -2.34375 C 2.789062 -4.082031 1.859375 -6.4375 1.859375 -9.40625 L 1.859375 -22.40625 L 7.546875 -22.40625 L 7.546875 -9.40625 C 7.546875 -7.914062 7.976562 -6.726562 8.84375 -5.84375 C 9.707031 -4.957031 10.832031 -4.515625 12.21875 -4.515625 C 13.582031 -4.515625 14.675781 -4.953125 15.5 -5.828125 C 16.320312 -6.703125 16.734375 -7.894531 16.734375 -9.40625 L 16.734375 -22.40625 Z M 22.40625 -22.40625 "/></g></g></g><g fill="#58d5b0" fill-opacity="1"><g transform="translate(239.976192, 262.682356)"><g><path d="M 20.484375 -18.75 L 8.515625 -4.515625 L 20.671875 -4.515625 L 20.671875 0 L 0.890625 0 L 0.890625 -3.640625 L 12.890625 -17.890625 L 1.3125 -17.890625 L 1.3125 -22.40625 L 20.484375 -22.40625 Z M 20.484375 -18.75 "/></g></g></g><g fill="#58d5b0" fill-opacity="1"><g transform="translate(262.370888, 262.682356)"><g><path d="M 20.484375 -18.75 L 8.515625 -4.515625 L 20.671875 -4.515625 L 20.671875 0 L 0.890625 0 L 0.890625 -3.640625 L 12.890625 -17.890625 L 1.3125 -17.890625 L 1.3125 -22.40625 L 20.484375 -22.40625 Z M 20.484375 -18.75 "/></g></g></g></svg>