<svg xmlns="http://www.w3.org/2000/svg" xmlns:xlink="http://www.w3.org/1999/xlink" width="500" zoomAndPan="magnify" viewBox="0 0 375 374.999991" height="500" preserveAspectRatio="xMidYMid meet" version="1.0"><defs><g/><clipPath id="8ff3162a12"><path d="M 179 131 L 225 131 L 225 174 L 179 174 Z M 179 131 " clip-rule="nonzero"/></clipPath><clipPath id="e037c38117"><path d="M 123.363281 92.5 L 211.445312 58.269531 L 251.925781 162.433594 L 163.84375 196.664062 Z M 123.363281 92.5 " clip-rule="nonzero"/></clipPath><clipPath id="dda6167d38"><path d="M 123.363281 92.5 L 211.445312 58.269531 L 251.925781 162.433594 L 163.84375 196.664062 Z M 123.363281 92.5 " clip-rule="nonzero"/></clipPath><clipPath id="374096bb4c"><path d="M 123.363281 92.5 L 211.445312 58.269531 L 251.925781 162.433594 L 163.84375 196.664062 Z M 123.363281 92.5 " clip-rule="nonzero"/></clipPath><clipPath id="0390f39562"><path d="M 153 101 L 186 101 L 186 134 L 153 134 Z M 153 101 " clip-rule="nonzero"/></clipPath><clipPath id="54ea06f361"><path d="M 123.363281 92.5 L 211.445312 58.269531 L 251.925781 162.433594 L 163.84375 196.664062 Z M 123.363281 92.5 " clip-rule="nonzero"/></clipPath><clipPath id="974f6e73b7"><path d="M 123.363281 92.5 L 211.445312 58.269531 L 251.925781 162.433594 L 163.84375 196.664062 Z M 123.363281 92.5 " clip-rule="nonzero"/></clipPath><clipPath id="568fe56d9b"><path d="M 123.363281 92.5 L 211.445312 58.269531 L 251.925781 162.433594 L 163.84375 196.664062 Z M 123.363281 92.5 " clip-rule="nonzero"/></clipPath><clipPath id="300aa69587"><path d="M 153 103 L 232 103 L 232 180 L 153 180 Z M 153 103 " clip-rule="nonzero"/></clipPath><clipPath id="b2b3eb4bfc"><path d="M 123.363281 92.5 L 211.445312 58.269531 L 251.925781 162.433594 L 163.84375 196.664062 Z M 123.363281 92.5 " clip-rule="nonzero"/></clipPath><clipPath id="62cb3c46d1"><path d="M 123.363281 92.5 L 211.445312 58.269531 L 251.925781 162.433594 L 163.84375 196.664062 Z M 123.363281 92.5 " clip-rule="nonzero"/></clipPath><clipPath id="4b065df12b"><path d="M 123.363281 92.5 L 211.445312 58.269531 L 251.925781 162.433594 L 163.84375 196.664062 Z M 123.363281 92.5 " clip-rule="nonzero"/></clipPath><clipPath id="2f7d326d21"><path d="M 126 91 L 169 91 L 169 130 L 126 130 Z M 126 91 " clip-rule="nonzero"/></clipPath><clipPath id="84f7930b18"><path d="M 123.363281 92.5 L 211.445312 58.269531 L 251.925781 162.433594 L 163.84375 196.664062 Z M 123.363281 92.5 " clip-rule="nonzero"/></clipPath><clipPath id="be6eaf7fd2"><path d="M 123.363281 92.5 L 211.445312 58.269531 L 251.925781 162.433594 L 163.84375 196.664062 Z M 123.363281 92.5 " clip-rule="nonzero"/></clipPath><clipPath id="f78e2aa634"><path d="M 123.363281 92.5 L 211.445312 58.269531 L 251.925781 162.433594 L 163.84375 196.664062 Z M 123.363281 92.5 " clip-rule="nonzero"/></clipPath><clipPath id="7201b03864"><path d="M 147 71 L 189 71 L 189 116 L 147 116 Z M 147 71 " clip-rule="nonzero"/></clipPath><clipPath id="bc7b60026c"><path d="M 123.363281 92.5 L 211.445312 58.269531 L 251.925781 162.433594 L 163.84375 196.664062 Z M 123.363281 92.5 " clip-rule="nonzero"/></clipPath><clipPath id="15dacfc2e0"><path d="M 123.363281 92.5 L 211.445312 58.269531 L 251.925781 162.433594 L 163.84375 196.664062 Z M 123.363281 92.5 " clip-rule="nonzero"/></clipPath><clipPath id="e89f334df7"><path d="M 123.363281 92.5 L 211.445312 58.269531 L 251.925781 162.433594 L 163.84375 196.664062 Z M 123.363281 92.5 " clip-rule="nonzero"/></clipPath><clipPath id="f402d546f2"><path d="M 190 154 L 200 154 L 200 168 L 190 168 Z M 190 154 " clip-rule="nonzero"/></clipPath><clipPath id="f696522410"><path d="M 123.363281 92.5 L 211.445312 58.269531 L 251.925781 162.433594 L 163.84375 196.664062 Z M 123.363281 92.5 " clip-rule="nonzero"/></clipPath><clipPath id="e6bb47e356"><path d="M 123.363281 92.5 L 211.445312 58.269531 L 251.925781 162.433594 L 163.84375 196.664062 Z M 123.363281 92.5 " clip-rule="nonzero"/></clipPath><clipPath id="5fc2c77fb8"><path d="M 123.363281 92.5 L 211.445312 58.269531 L 251.925781 162.433594 L 163.84375 196.664062 Z M 123.363281 92.5 " clip-rule="nonzero"/></clipPath><clipPath id="65618bd628"><path d="M 155 130 L 164 130 L 164 139 L 155 139 Z M 155 130 " clip-rule="nonzero"/></clipPath><clipPath id="3afecc5639"><path d="M 123.363281 92.5 L 211.445312 58.269531 L 251.925781 162.433594 L 163.84375 196.664062 Z M 123.363281 92.5 " clip-rule="nonzero"/></clipPath><clipPath id="735eb7d900"><path d="M 123.363281 92.5 L 211.445312 58.269531 L 251.925781 162.433594 L 163.84375 196.664062 Z M 123.363281 92.5 " clip-rule="nonzero"/></clipPath><clipPath id="e28190cee5"><path d="M 123.363281 92.5 L 211.445312 58.269531 L 251.925781 162.433594 L 163.84375 196.664062 Z M 123.363281 92.5 " clip-rule="nonzero"/></clipPath><clipPath id="7cb7e354e9"><path d="M 210 135 L 219 135 L 219 145 L 210 145 Z M 210 135 " clip-rule="nonzero"/></clipPath><clipPath id="8d509478ea"><path d="M 123.363281 92.5 L 211.445312 58.269531 L 251.925781 162.433594 L 163.84375 196.664062 Z M 123.363281 92.5 " clip-rule="nonzero"/></clipPath><clipPath id="329f65126e"><path d="M 123.363281 92.5 L 211.445312 58.269531 L 251.925781 162.433594 L 163.84375 196.664062 Z M 123.363281 92.5 " clip-rule="nonzero"/></clipPath><clipPath id="eb9fee2e0c"><path d="M 123.363281 92.5 L 211.445312 58.269531 L 251.925781 162.433594 L 163.84375 196.664062 Z M 123.363281 92.5 " clip-rule="nonzero"/></clipPath><clipPath id="a8dc2724c6"><path d="M 170 116 L 179 116 L 179 125 L 170 125 Z M 170 116 " clip-rule="nonzero"/></clipPath><clipPath id="98a3b860da"><path d="M 123.363281 92.5 L 211.445312 58.269531 L 251.925781 162.433594 L 163.84375 196.664062 Z M 123.363281 92.5 " clip-rule="nonzero"/></clipPath><clipPath id="56b214cfe4"><path d="M 123.363281 92.5 L 211.445312 58.269531 L 251.925781 162.433594 L 163.84375 196.664062 Z M 123.363281 92.5 " clip-rule="nonzero"/></clipPath><clipPath id="a88264bed8"><path d="M 123.363281 92.5 L 211.445312 58.269531 L 251.925781 162.433594 L 163.84375 196.664062 Z M 123.363281 92.5 " clip-rule="nonzero"/></clipPath><clipPath id="4747532dd8"><path d="M 186 116 L 202 116 L 202 133 L 186 133 Z M 186 116 " clip-rule="nonzero"/></clipPath><clipPath id="8c6662a205"><path d="M 123.363281 92.5 L 211.445312 58.269531 L 251.925781 162.433594 L 163.84375 196.664062 Z M 123.363281 92.5 " clip-rule="nonzero"/></clipPath><clipPath id="5b0002b19c"><path d="M 123.363281 92.5 L 211.445312 58.269531 L 251.925781 162.433594 L 163.84375 196.664062 Z M 123.363281 92.5 " clip-rule="nonzero"/></clipPath><clipPath id="038c79853a"><path d="M 123.363281 92.5 L 211.445312 58.269531 L 251.925781 162.433594 L 163.84375 196.664062 Z M 123.363281 92.5 " clip-rule="nonzero"/></clipPath><clipPath id="74af6b5b38"><path d="M 162 157 L 178 157 L 178 173 L 162 173 Z M 162 157 " clip-rule="nonzero"/></clipPath><clipPath id="a3df288566"><path d="M 123.363281 92.5 L 211.445312 58.269531 L 251.925781 162.433594 L 163.84375 196.664062 Z M 123.363281 92.5 " clip-rule="nonzero"/></clipPath><clipPath id="d6aebb0c23"><path d="M 123.363281 92.5 L 211.445312 58.269531 L 251.925781 162.433594 L 163.84375 196.664062 Z M 123.363281 92.5 " clip-rule="nonzero"/></clipPath><clipPath id="2b07245ef7"><path d="M 123.363281 92.5 L 211.445312 58.269531 L 251.925781 162.433594 L 163.84375 196.664062 Z M 123.363281 92.5 " clip-rule="nonzero"/></clipPath><clipPath id="71860eca5d"><path d="M 172 141 L 179 141 L 179 147 L 172 147 Z M 172 141 " clip-rule="nonzero"/></clipPath><clipPath id="158a8d88bc"><path d="M 123.363281 92.5 L 211.445312 58.269531 L 251.925781 162.433594 L 163.84375 196.664062 Z M 123.363281 92.5 " clip-rule="nonzero"/></clipPath><clipPath id="dbe4244de8"><path d="M 123.363281 92.5 L 211.445312 58.269531 L 251.925781 162.433594 L 163.84375 196.664062 Z M 123.363281 92.5 " clip-rule="nonzero"/></clipPath><clipPath id="ed1b5e3ad4"><path d="M 123.363281 92.5 L 211.445312 58.269531 L 251.925781 162.433594 L 163.84375 196.664062 Z M 123.363281 92.5 " clip-rule="nonzero"/></clipPath><clipPath id="241fb09cff"><path d="M 216 121 L 222 121 L 222 127 L 216 127 Z M 216 121 " clip-rule="nonzero"/></clipPath><clipPath id="e4e2f9e920"><path d="M 123.363281 92.5 L 211.445312 58.269531 L 251.925781 162.433594 L 163.84375 196.664062 Z M 123.363281 92.5 " clip-rule="nonzero"/></clipPath><clipPath id="e628dba606"><path d="M 123.363281 92.5 L 211.445312 58.269531 L 251.925781 162.433594 L 163.84375 196.664062 Z M 123.363281 92.5 " clip-rule="nonzero"/></clipPath><clipPath id="9949e13914"><path d="M 123.363281 92.5 L 211.445312 58.269531 L 251.925781 162.433594 L 163.84375 196.664062 Z M 123.363281 92.5 " clip-rule="nonzero"/></clipPath><clipPath id="5b0abad566"><path d="M 198 107 L 205 107 L 205 114 L 198 114 Z M 198 107 " clip-rule="nonzero"/></clipPath><clipPath id="c0e80846e4"><path d="M 123.363281 92.5 L 211.445312 58.269531 L 251.925781 162.433594 L 163.84375 196.664062 Z M 123.363281 92.5 " clip-rule="nonzero"/></clipPath><clipPath id="a75cacf10a"><path d="M 123.363281 92.5 L 211.445312 58.269531 L 251.925781 162.433594 L 163.84375 196.664062 Z M 123.363281 92.5 " clip-rule="nonzero"/></clipPath><clipPath id="e3e479e6a1"><path d="M 123.363281 92.5 L 211.445312 58.269531 L 251.925781 162.433594 L 163.84375 196.664062 Z M 123.363281 92.5 " clip-rule="nonzero"/></clipPath></defs><rect x="-37.5" width="450" fill="#ffffff" y="-37.499999" height="449.999989" fill-opacity="1"/><rect x="-37.5" width="450" fill="#edfedc" y="-37.499999" height="449.999989" fill-opacity="1"/><g clip-path="url(#8ff3162a12)"><g clip-path="url(#e037c38117)"><g clip-path="url(#dda6167d38)"><g clip-path="url(#374096bb4c)"><path fill="#000000" d="M 222.847656 143.988281 C 223.09375 144.617188 223.304688 145.261719 223.480469 145.914062 C 223.65625 146.570312 223.796875 147.230469 223.902344 147.902344 C 224.007812 148.574219 224.074219 149.25 224.109375 149.933594 C 224.140625 150.613281 224.140625 151.296875 224.101562 151.984375 C 224.0625 152.671875 223.984375 153.355469 223.875 154.039062 C 223.765625 154.722656 223.617188 155.402344 223.4375 156.074219 C 223.253906 156.75 223.039062 157.414062 222.789062 158.074219 C 222.539062 158.734375 222.253906 159.378906 221.9375 160.015625 C 221.617188 160.652344 221.269531 161.277344 220.890625 161.886719 C 220.507812 162.492188 220.097656 163.085938 219.65625 163.660156 C 219.214844 164.234375 218.746094 164.789062 218.25 165.324219 C 217.753906 165.859375 217.234375 166.371094 216.6875 166.863281 C 216.140625 167.351562 215.570312 167.820312 214.976562 168.261719 C 214.382812 168.699219 213.769531 169.117188 213.136719 169.503906 C 212.507812 169.890625 211.855469 170.25 211.191406 170.578125 C 210.523438 170.910156 209.84375 171.210938 209.148438 171.480469 C 208.457031 171.75 207.753906 171.988281 207.039062 172.191406 C 206.324219 172.398438 205.601562 172.574219 204.875 172.714844 C 204.144531 172.855469 203.414062 172.964844 202.679688 173.039062 C 201.945312 173.113281 201.207031 173.15625 200.472656 173.164062 C 199.738281 173.171875 199.007812 173.144531 198.28125 173.085938 C 197.554688 173.027344 196.832031 172.933594 196.121094 172.804688 C 195.40625 172.679688 194.703125 172.519531 194.011719 172.328125 C 193.320312 172.136719 192.644531 171.914062 191.980469 171.660156 C 191.316406 171.402344 190.667969 171.117188 190.039062 170.800781 C 189.410156 170.484375 188.800781 170.136719 188.210938 169.765625 C 187.621094 169.390625 187.054688 168.988281 186.511719 168.558594 C 185.96875 168.128906 185.453125 167.675781 184.960938 167.195312 C 184.46875 166.714844 184.003906 166.210938 183.566406 165.6875 C 183.132812 165.160156 182.726562 164.617188 182.351562 164.050781 C 181.972656 163.484375 181.628906 162.902344 181.320312 162.300781 C 181.007812 161.699219 180.726562 161.082031 180.484375 160.449219 C 180.238281 159.820312 180.027344 159.179688 179.851562 158.523438 C 179.675781 157.871094 179.535156 157.207031 179.429688 156.535156 C 179.324219 155.863281 179.253906 155.1875 179.222656 154.503906 C 179.1875 153.824219 179.191406 153.140625 179.230469 152.453125 C 179.269531 151.769531 179.34375 151.082031 179.457031 150.398438 C 179.566406 149.714844 179.710938 149.039062 179.894531 148.363281 C 180.074219 147.6875 180.292969 147.023438 180.542969 146.363281 C 180.792969 145.707031 181.078125 145.058594 181.394531 144.421875 C 181.710938 143.785156 182.0625 143.160156 182.441406 142.554688 C 182.824219 141.945312 183.234375 141.351562 183.671875 140.777344 C 184.113281 140.203125 184.582031 139.648438 185.078125 139.113281 C 185.574219 138.578125 186.097656 138.066406 186.644531 137.574219 C 187.191406 137.085938 187.761719 136.621094 188.355469 136.179688 C 188.945312 135.738281 189.558594 135.324219 190.191406 134.933594 C 190.824219 134.546875 191.472656 134.1875 192.140625 133.859375 C 192.808594 133.527344 193.488281 133.230469 194.179688 132.960938 C 194.875 132.691406 195.578125 132.453125 196.292969 132.246094 C 197.007812 132.039062 197.730469 131.863281 198.457031 131.722656 C 199.183594 131.582031 199.917969 131.472656 200.652344 131.398438 C 201.386719 131.324219 202.121094 131.28125 202.855469 131.273438 C 203.589844 131.269531 204.324219 131.292969 205.050781 131.351562 C 205.777344 131.414062 206.496094 131.503906 207.210938 131.632812 C 207.921875 131.757812 208.625 131.917969 209.316406 132.109375 C 210.007812 132.300781 210.6875 132.523438 211.351562 132.78125 C 212.015625 133.035156 212.660156 133.320312 213.292969 133.636719 C 213.921875 133.953125 214.53125 134.300781 215.121094 134.675781 C 215.707031 135.050781 216.273438 135.449219 216.820312 135.878906 C 217.363281 136.308594 217.878906 136.765625 218.371094 137.242188 C 218.863281 137.722656 219.328125 138.226562 219.761719 138.75 C 220.199219 139.277344 220.605469 139.820312 220.980469 140.386719 C 221.355469 140.953125 221.699219 141.539062 222.011719 142.140625 C 222.324219 142.742188 222.601562 143.355469 222.847656 143.988281 Z M 222.847656 143.988281 " fill-opacity="1" fill-rule="nonzero"/></g></g></g></g><g clip-path="url(#0390f39562)"><g clip-path="url(#54ea06f361)"><g clip-path="url(#974f6e73b7)"><g clip-path="url(#568fe56d9b)"><path fill="#000000" d="M 184.628906 111.554688 C 184.820312 112.046875 184.988281 112.546875 185.128906 113.054688 C 185.269531 113.558594 185.386719 114.074219 185.476562 114.589844 C 185.570312 115.109375 185.636719 115.632812 185.675781 116.15625 C 185.714844 116.679688 185.730469 117.207031 185.71875 117.730469 C 185.707031 118.257812 185.667969 118.78125 185.605469 119.304688 C 185.542969 119.828125 185.453125 120.347656 185.339844 120.859375 C 185.226562 121.375 185.085938 121.882812 184.921875 122.382812 C 184.761719 122.882812 184.570312 123.371094 184.359375 123.855469 C 184.148438 124.335938 183.914062 124.804688 183.65625 125.265625 C 183.394531 125.722656 183.117188 126.167969 182.8125 126.597656 C 182.511719 127.03125 182.191406 127.445312 181.847656 127.84375 C 181.503906 128.242188 181.144531 128.625 180.761719 128.988281 C 180.382812 129.351562 179.984375 129.699219 179.570312 130.023438 C 179.15625 130.347656 178.726562 130.652344 178.285156 130.933594 C 177.839844 131.214844 177.382812 131.476562 176.914062 131.714844 C 176.445312 131.953125 175.964844 132.167969 175.472656 132.355469 C 174.984375 132.546875 174.484375 132.714844 173.976562 132.855469 C 173.472656 132.996094 172.957031 133.113281 172.441406 133.203125 C 171.921875 133.296875 171.402344 133.363281 170.875 133.402344 C 170.351562 133.441406 169.824219 133.457031 169.300781 133.445312 C 168.773438 133.433594 168.25 133.394531 167.726562 133.332031 C 167.203125 133.269531 166.6875 133.179688 166.171875 133.066406 C 165.660156 132.953125 165.152344 132.8125 164.652344 132.648438 C 164.152344 132.484375 163.660156 132.296875 163.179688 132.085938 C 162.695312 131.875 162.226562 131.636719 161.769531 131.378906 C 161.308594 131.121094 160.863281 130.839844 160.433594 130.539062 C 160.003906 130.238281 159.585938 129.914062 159.1875 129.570312 C 158.789062 129.230469 158.40625 128.867188 158.042969 128.488281 C 157.679688 128.105469 157.335938 127.710938 157.011719 127.296875 C 156.683594 126.882812 156.382812 126.453125 156.097656 126.007812 C 155.816406 125.5625 155.554688 125.109375 155.316406 124.636719 C 155.082031 124.167969 154.867188 123.6875 154.675781 123.199219 C 154.484375 122.707031 154.320312 122.207031 154.175781 121.703125 C 154.035156 121.195312 153.917969 120.683594 153.828125 120.164062 C 153.734375 119.644531 153.671875 119.125 153.628906 118.597656 C 153.589844 118.074219 153.574219 117.546875 153.585938 117.023438 C 153.597656 116.496094 153.636719 115.972656 153.699219 115.449219 C 153.761719 114.925781 153.851562 114.40625 153.964844 113.894531 C 154.078125 113.378906 154.21875 112.875 154.382812 112.375 C 154.546875 111.871094 154.734375 111.382812 154.945312 110.898438 C 155.15625 110.417969 155.394531 109.949219 155.652344 109.488281 C 155.910156 109.03125 156.1875 108.585938 156.492188 108.15625 C 156.792969 107.722656 157.117188 107.308594 157.457031 106.910156 C 157.800781 106.511719 158.164062 106.128906 158.542969 105.765625 C 158.921875 105.402344 159.320312 105.054688 159.734375 104.730469 C 160.148438 104.40625 160.578125 104.101562 161.019531 103.820312 C 161.464844 103.539062 161.921875 103.277344 162.390625 103.039062 C 162.859375 102.800781 163.339844 102.585938 163.832031 102.398438 C 164.320312 102.207031 164.820312 102.039062 165.328125 101.898438 C 165.835938 101.757812 166.347656 101.640625 166.863281 101.550781 C 167.382812 101.457031 167.90625 101.390625 168.429688 101.351562 C 168.953125 101.3125 169.480469 101.296875 170.007812 101.308594 C 170.53125 101.320312 171.054688 101.359375 171.578125 101.421875 C 172.101562 101.484375 172.621094 101.574219 173.132812 101.6875 C 173.648438 101.800781 174.152344 101.941406 174.652344 102.105469 C 175.15625 102.269531 175.644531 102.457031 176.128906 102.667969 C 176.609375 102.882812 177.078125 103.117188 177.539062 103.375 C 177.996094 103.632812 178.441406 103.914062 178.871094 104.214844 C 179.304688 104.515625 179.71875 104.839844 180.117188 105.183594 C 180.515625 105.523438 180.898438 105.886719 181.261719 106.265625 C 181.625 106.648438 181.96875 107.042969 182.296875 107.457031 C 182.621094 107.871094 182.925781 108.300781 183.207031 108.746094 C 183.488281 109.191406 183.75 109.648438 183.988281 110.117188 C 184.226562 110.585938 184.441406 111.066406 184.628906 111.554688 Z M 184.628906 111.554688 " fill-opacity="1" fill-rule="nonzero"/></g></g></g></g><g clip-path="url(#300aa69587)"><g clip-path="url(#b2b3eb4bfc)"><g clip-path="url(#62cb3c46d1)"><g clip-path="url(#4b065df12b)"><path fill="#dc143c" d="M 201.867188 177.761719 C 201.152344 177.96875 200.429688 178.15625 199.703125 178.324219 C 198.976562 178.492188 198.246094 178.640625 197.515625 178.769531 C 196.78125 178.898438 196.046875 179.003906 195.308594 179.09375 C 194.570312 179.179688 193.832031 179.25 193.09375 179.296875 C 192.355469 179.34375 191.617188 179.367188 190.878906 179.375 C 190.140625 179.382812 189.40625 179.367188 188.667969 179.332031 C 187.933594 179.296875 187.203125 179.242188 186.472656 179.167969 C 185.742188 179.09375 185.015625 179 184.292969 178.882812 C 183.570312 178.765625 182.855469 178.632812 182.144531 178.476562 C 181.429688 178.320312 180.726562 178.144531 180.027344 177.949219 C 179.328125 177.753906 178.632812 177.539062 177.949219 177.304688 C 177.265625 177.070312 176.585938 176.816406 175.917969 176.546875 C 175.25 176.273438 174.59375 175.984375 173.941406 175.671875 C 173.292969 175.363281 172.65625 175.035156 172.027344 174.691406 C 171.398438 174.34375 170.78125 173.980469 170.179688 173.597656 C 169.574219 173.21875 168.980469 172.820312 168.402344 172.40625 C 167.820312 171.992188 167.253906 171.558594 166.703125 171.113281 C 166.148438 170.664062 165.609375 170.199219 165.085938 169.722656 C 164.5625 169.242188 164.050781 168.75 163.558594 168.242188 C 163.066406 167.734375 162.585938 167.210938 162.125 166.675781 C 161.664062 166.136719 161.21875 165.589844 160.789062 165.027344 C 160.363281 164.464844 159.949219 163.890625 159.558594 163.300781 C 159.164062 162.714844 158.789062 162.117188 158.429688 161.507812 C 158.074219 160.898438 157.734375 160.277344 157.414062 159.648438 C 157.09375 159.015625 156.792969 158.378906 156.511719 157.730469 C 156.230469 157.082031 155.96875 156.425781 155.726562 155.757812 C 155.484375 155.09375 155.261719 154.421875 155.058594 153.742188 C 154.859375 153.0625 154.675781 152.378906 154.515625 151.6875 C 154.351562 150.996094 154.210938 150.296875 154.089844 149.597656 C 153.96875 148.894531 153.871094 148.191406 153.792969 147.480469 C 153.710938 146.773438 153.65625 146.058594 153.617188 145.347656 C 153.582031 144.632812 153.566406 143.917969 153.570312 143.199219 C 153.574219 142.480469 153.601562 141.765625 153.648438 141.046875 C 153.695312 140.328125 153.761719 139.609375 153.851562 138.894531 C 153.9375 138.179688 154.046875 137.464844 154.179688 136.75 C 154.308594 136.039062 154.460938 135.328125 154.628906 134.625 C 154.800781 133.917969 154.992188 133.214844 155.207031 132.515625 C 155.417969 131.820312 155.648438 131.128906 155.898438 130.441406 C 156.152344 129.753906 156.421875 129.074219 156.714844 128.398438 C 157.003906 127.726562 157.3125 127.058594 157.644531 126.398438 C 157.972656 125.742188 158.320312 125.089844 158.683594 124.449219 C 159.050781 123.808594 159.433594 123.175781 159.835938 122.554688 C 160.238281 121.929688 160.65625 121.320312 161.09375 120.71875 C 161.53125 120.117188 161.980469 119.527344 162.453125 118.949219 C 162.921875 118.375 163.40625 117.808594 163.90625 117.257812 C 164.410156 116.703125 164.925781 116.164062 165.457031 115.640625 C 165.988281 115.113281 166.53125 114.601562 167.089844 114.105469 C 167.652344 113.609375 168.222656 113.128906 168.808594 112.660156 C 169.394531 112.195312 169.992188 111.742188 170.605469 111.308594 C 171.214844 110.875 171.835938 110.457031 172.46875 110.054688 C 173.101562 109.652344 173.746094 109.265625 174.398438 108.898438 C 175.054688 108.53125 175.71875 108.183594 176.390625 107.851562 C 177.0625 107.519531 177.742188 107.207031 178.429688 106.910156 C 179.117188 106.617188 179.816406 106.339844 180.515625 106.082031 C 181.21875 105.828125 181.929688 105.589844 182.644531 105.371094 C 183.359375 105.152344 184.078125 104.953125 184.800781 104.773438 C 185.523438 104.59375 186.253906 104.433594 186.984375 104.292969 C 187.714844 104.152344 188.449219 104.035156 189.183594 103.933594 C 189.921875 103.835938 190.660156 103.753906 191.398438 103.695312 C 192.136719 103.636719 192.875 103.597656 193.613281 103.578125 C 194.351562 103.5625 195.089844 103.5625 195.824219 103.585938 C 196.5625 103.609375 197.296875 103.652344 198.027344 103.714844 C 198.757812 103.777344 199.488281 103.859375 200.210938 103.964844 C 200.9375 104.066406 201.65625 104.191406 202.371094 104.335938 C 203.085938 104.480469 203.796875 104.644531 204.5 104.828125 C 205.203125 105.011719 205.898438 105.214844 206.589844 105.4375 C 207.277344 105.660156 207.960938 105.898438 208.632812 106.160156 C 209.304688 106.421875 209.96875 106.703125 210.625 107 C 211.28125 107.300781 211.925781 107.617188 212.558594 107.953125 C 213.195312 108.285156 213.816406 108.640625 214.429688 109.011719 C 215.042969 109.382812 215.640625 109.769531 216.230469 110.175781 C 216.816406 110.578125 217.390625 111 217.953125 111.4375 C 218.511719 111.878906 219.058594 112.332031 219.59375 112.800781 C 220.125 113.269531 220.644531 113.753906 221.144531 114.253906 C 221.648438 114.753906 222.136719 115.269531 222.609375 115.796875 C 223.078125 116.324219 223.535156 116.867188 223.972656 117.421875 C 224.410156 117.976562 224.832031 118.542969 225.234375 119.125 C 225.640625 119.703125 226.027344 120.296875 226.394531 120.898438 C 226.761719 121.503906 227.113281 122.117188 227.441406 122.738281 C 227.773438 123.363281 228.085938 123.996094 228.378906 124.640625 C 228.671875 125.285156 228.945312 125.9375 229.199219 126.597656 C 229.453125 127.257812 229.6875 127.925781 229.902344 128.601562 C 230.117188 129.277344 230.3125 129.957031 230.484375 130.644531 C 230.660156 131.335938 230.8125 132.027344 230.945312 132.726562 C 231.078125 133.425781 231.1875 134.128906 231.28125 134.835938 C 231.371094 135.542969 231.441406 136.25 231.492188 136.964844 C 231.539062 137.675781 231.570312 138.390625 231.578125 139.109375 C 231.585938 139.824219 231.570312 140.542969 231.535156 141.261719 C 231.5 141.980469 231.445312 142.695312 231.371094 143.414062 C 231.292969 144.128906 231.195312 144.847656 231.078125 145.558594 C 230.960938 146.273438 230.824219 146.984375 230.664062 147.691406 C 230.503906 148.402344 230.324219 149.105469 230.125 149.804688 C 229.925781 150.507812 229.703125 151.203125 229.464844 151.894531 C 229.226562 152.582031 228.964844 153.265625 228.6875 153.945312 C 228.40625 154.625 228.109375 155.292969 227.789062 155.957031 C 227.472656 156.621094 227.136719 157.277344 226.78125 157.921875 L 192.574219 141.472656 Z M 201.867188 177.761719 " fill-opacity="1" fill-rule="nonzero"/></g></g></g></g><g clip-path="url(#2f7d326d21)"><g clip-path="url(#84f7930b18)"><g clip-path="url(#be6eaf7fd2)"><g clip-path="url(#f78e2aa634)"><path stroke-linecap="butt" transform="matrix(0.153202, -0.0595372, 0.0595479, 0.15323, 136.087846, -73.442551)" fill="none" stroke-linejoin="miter" d="M -356.354477 1076.709742 C -360.109854 1083.025887 -367.72131 1075.581743 -368.726463 1071.214322 C -371.351474 1059.665869 -359.431957 1051.040945 -349.088001 1050.930246 C -331.427224 1050.756312 -319.63447 1068.237703 -320.90668 1084.696071 C -322.721091 1108.387653 -346.302189 1123.59633 -368.798486 1120.795242 C -398.475234 1117.116158 -417.203791 1087.30361 -412.811295 1058.750405 C -407.341278 1023.095506 -371.216413 1000.804587 -336.635383 1006.822598 C -294.989489 1014.081579 -269.145393 1056.550048 -276.791087 1097.146447 C -278.020105 1103.653929 -280.062547 1110.023806 -282.788023 1116.051813 " stroke="#000000" stroke-width="9.8" stroke-opacity="1" stroke-miterlimit="4.1"/></g></g></g></g><g clip-path="url(#7201b03864)"><g clip-path="url(#bc7b60026c)"><g clip-path="url(#15dacfc2e0)"><g clip-path="url(#e89f334df7)"><path stroke-linecap="butt" transform="matrix(-0.124003, 0.116222, 0.117902, 0.125826, -0.736035, -1.577536)" fill="none" stroke-linejoin="miter" d="M -356.353175 1076.707648 C -360.106615 1083.03071 -367.715191 1075.591615 -368.708597 1071.200523 C -371.336064 1059.65725 -359.441243 1051.029783 -349.079741 1050.927866 C -331.41478 1050.754614 -319.633614 1068.247711 -320.908036 1084.698921 C -322.713562 1108.377428 -346.289938 1123.603729 -368.800034 1120.801517 C -398.484438 1117.113137 -417.209544 1087.313896 -412.82051 1058.765495 C -407.334482 1023.087998 -371.216035 1000.809526 -336.632883 1006.833997 C -294.984502 1014.09375 -269.132152 1056.557585 -276.812895 1097.149441 C -278.035485 1103.649469 -280.05032 1110.012013 -282.786087 1116.047024 " stroke="#000000" stroke-width="9.8" stroke-opacity="1" stroke-miterlimit="4.1"/></g></g></g></g><g clip-path="url(#f402d546f2)"><g clip-path="url(#f696522410)"><g clip-path="url(#e6bb47e356)"><g clip-path="url(#5fc2c77fb8)"><path fill="#ffffff" d="M 199.386719 167.714844 C 198.964844 167.832031 198.539062 167.902344 198.101562 167.933594 C 197.664062 167.964844 197.230469 167.953125 196.796875 167.894531 C 196.363281 167.839844 195.9375 167.742188 195.523438 167.605469 C 195.109375 167.464844 194.714844 167.289062 194.332031 167.070312 C 193.953125 166.855469 193.601562 166.601562 193.269531 166.316406 C 192.941406 166.027344 192.640625 165.710938 192.375 165.367188 C 192.105469 165.019531 191.875 164.652344 191.679688 164.261719 C 191.484375 163.867188 191.332031 163.460938 191.214844 163.039062 C 191.101562 162.617188 191.027344 162.1875 191 161.753906 C 190.96875 161.316406 190.980469 160.882812 191.035156 160.449219 C 191.089844 160.015625 191.1875 159.589844 191.328125 159.175781 C 191.464844 158.761719 191.644531 158.363281 191.859375 157.984375 C 192.078125 157.605469 192.328125 157.25 192.617188 156.921875 C 192.902344 156.589844 193.21875 156.292969 193.566406 156.027344 C 193.910156 155.757812 194.277344 155.527344 194.671875 155.332031 C 195.0625 155.136719 195.46875 154.980469 195.890625 154.867188 L 197.640625 161.292969 Z M 199.386719 167.714844 " fill-opacity="1" fill-rule="nonzero"/></g></g></g></g><g clip-path="url(#65618bd628)"><g clip-path="url(#3afecc5639)"><g clip-path="url(#735eb7d900)"><g clip-path="url(#e28190cee5)"><path fill="#ffffff" d="M 163.285156 132.660156 C 163.382812 132.914062 163.457031 133.175781 163.503906 133.441406 C 163.550781 133.710938 163.570312 133.980469 163.566406 134.25 C 163.558594 134.519531 163.527344 134.789062 163.46875 135.054688 C 163.410156 135.320312 163.324219 135.574219 163.214844 135.824219 C 163.105469 136.074219 162.972656 136.308594 162.816406 136.53125 C 162.664062 136.753906 162.488281 136.957031 162.289062 137.144531 C 162.09375 137.332031 161.882812 137.5 161.652344 137.644531 C 161.425781 137.789062 161.183594 137.914062 160.929688 138.011719 C 160.679688 138.109375 160.417969 138.179688 160.152344 138.230469 C 159.882812 138.277344 159.613281 138.296875 159.34375 138.289062 C 159.070312 138.285156 158.804688 138.25 158.539062 138.191406 C 158.273438 138.132812 158.015625 138.050781 157.769531 137.941406 C 157.519531 137.832031 157.285156 137.699219 157.0625 137.542969 C 156.839844 137.386719 156.636719 137.210938 156.449219 137.015625 C 156.261719 136.820312 156.09375 136.605469 155.949219 136.378906 C 155.804688 136.148438 155.679688 135.910156 155.582031 135.65625 C 155.484375 135.402344 155.410156 135.140625 155.363281 134.875 C 155.316406 134.609375 155.296875 134.339844 155.304688 134.066406 C 155.308594 133.796875 155.339844 133.527344 155.398438 133.261719 C 155.457031 133 155.542969 132.742188 155.652344 132.492188 C 155.761719 132.246094 155.894531 132.007812 156.050781 131.789062 C 156.207031 131.566406 156.382812 131.359375 156.578125 131.171875 C 156.773438 130.984375 156.984375 130.820312 157.214844 130.671875 C 157.441406 130.527344 157.683594 130.40625 157.9375 130.308594 C 158.191406 130.207031 158.449219 130.136719 158.71875 130.089844 C 158.984375 130.042969 159.253906 130.019531 159.523438 130.027344 C 159.796875 130.035156 160.0625 130.066406 160.328125 130.125 C 160.59375 130.183594 160.851562 130.265625 161.097656 130.375 C 161.347656 130.484375 161.582031 130.617188 161.804688 130.773438 C 162.027344 130.929688 162.230469 131.105469 162.417969 131.300781 C 162.605469 131.496094 162.773438 131.710938 162.917969 131.9375 C 163.066406 132.167969 163.1875 132.410156 163.285156 132.660156 Z M 163.285156 132.660156 " fill-opacity="1" fill-rule="nonzero"/></g></g></g></g><g clip-path="url(#7cb7e354e9)"><g clip-path="url(#8d509478ea)"><g clip-path="url(#329f65126e)"><g clip-path="url(#eb9fee2e0c)"><path fill="#ffffff" d="M 218.21875 138.40625 C 218.316406 138.660156 218.390625 138.921875 218.4375 139.1875 C 218.484375 139.457031 218.503906 139.726562 218.5 139.996094 C 218.492188 140.265625 218.460938 140.535156 218.402344 140.800781 C 218.34375 141.066406 218.261719 141.320312 218.152344 141.570312 C 218.042969 141.816406 217.910156 142.054688 217.753906 142.277344 C 217.597656 142.496094 217.421875 142.703125 217.226562 142.890625 C 217.03125 143.078125 216.816406 143.246094 216.589844 143.390625 C 216.359375 143.535156 216.117188 143.65625 215.867188 143.757812 C 215.613281 143.855469 215.351562 143.925781 215.085938 143.972656 C 214.820312 144.019531 214.550781 144.042969 214.277344 144.035156 C 214.007812 144.03125 213.738281 143.996094 213.472656 143.9375 C 213.207031 143.878906 212.953125 143.796875 212.703125 143.6875 C 212.457031 143.578125 212.21875 143.445312 212 143.289062 C 211.777344 143.132812 211.570312 142.957031 211.382812 142.761719 C 211.195312 142.566406 211.03125 142.351562 210.882812 142.125 C 210.738281 141.894531 210.617188 141.652344 210.515625 141.402344 C 210.417969 141.148438 210.347656 140.886719 210.300781 140.621094 C 210.253906 140.355469 210.230469 140.085938 210.238281 139.8125 C 210.242188 139.542969 210.277344 139.273438 210.335938 139.007812 C 210.394531 138.742188 210.476562 138.488281 210.585938 138.238281 C 210.695312 137.992188 210.828125 137.753906 210.984375 137.535156 C 211.140625 137.3125 211.316406 137.105469 211.511719 136.917969 C 211.707031 136.730469 211.921875 136.5625 212.148438 136.417969 C 212.378906 136.273438 212.617188 136.152344 212.871094 136.050781 C 213.125 135.953125 213.386719 135.882812 213.652344 135.835938 C 213.917969 135.789062 214.1875 135.765625 214.460938 135.773438 C 214.730469 135.777344 215 135.8125 215.265625 135.871094 C 215.527344 135.929688 215.785156 136.011719 216.035156 136.121094 C 216.28125 136.230469 216.515625 136.363281 216.738281 136.519531 C 216.960938 136.675781 217.167969 136.851562 217.355469 137.046875 C 217.542969 137.242188 217.707031 137.457031 217.855469 137.683594 C 218 137.914062 218.121094 138.15625 218.21875 138.40625 Z M 218.21875 138.40625 " fill-opacity="1" fill-rule="nonzero"/></g></g></g></g><g clip-path="url(#a8dc2724c6)"><g clip-path="url(#98a3b860da)"><g clip-path="url(#56b214cfe4)"><g clip-path="url(#a88264bed8)"><path fill="#ffffff" d="M 178.167969 118.996094 C 178.265625 119.25 178.339844 119.507812 178.386719 119.777344 C 178.433594 120.042969 178.453125 120.3125 178.445312 120.582031 C 178.441406 120.855469 178.410156 121.121094 178.351562 121.386719 C 178.292969 121.652344 178.207031 121.910156 178.097656 122.15625 C 177.988281 122.40625 177.855469 122.640625 177.699219 122.863281 C 177.542969 123.085938 177.367188 123.289062 177.171875 123.476562 C 176.976562 123.664062 176.765625 123.832031 176.535156 123.976562 C 176.308594 124.125 176.066406 124.246094 175.8125 124.34375 C 175.558594 124.441406 175.300781 124.515625 175.03125 124.5625 C 174.765625 124.609375 174.496094 124.628906 174.226562 124.625 C 173.953125 124.617188 173.6875 124.585938 173.421875 124.527344 C 173.15625 124.46875 172.898438 124.382812 172.652344 124.273438 C 172.402344 124.164062 172.167969 124.03125 171.945312 123.875 C 171.722656 123.722656 171.519531 123.546875 171.332031 123.347656 C 171.144531 123.152344 170.976562 122.941406 170.832031 122.710938 C 170.683594 122.484375 170.5625 122.242188 170.464844 121.988281 C 170.367188 121.734375 170.292969 121.476562 170.246094 121.207031 C 170.199219 120.941406 170.179688 120.671875 170.183594 120.402344 C 170.191406 120.128906 170.222656 119.863281 170.28125 119.597656 C 170.339844 119.332031 170.425781 119.074219 170.535156 118.828125 C 170.644531 118.578125 170.777344 118.34375 170.933594 118.121094 C 171.085938 117.898438 171.261719 117.695312 171.460938 117.507812 C 171.65625 117.320312 171.867188 117.152344 172.097656 117.007812 C 172.324219 116.859375 172.566406 116.738281 172.820312 116.640625 C 173.070312 116.542969 173.332031 116.46875 173.597656 116.421875 C 173.867188 116.375 174.136719 116.355469 174.40625 116.359375 C 174.679688 116.367188 174.945312 116.398438 175.210938 116.457031 C 175.476562 116.515625 175.734375 116.601562 175.980469 116.710938 C 176.230469 116.820312 176.464844 116.953125 176.6875 117.109375 C 176.910156 117.261719 177.113281 117.4375 177.300781 117.636719 C 177.488281 117.832031 177.65625 118.042969 177.800781 118.273438 C 177.945312 118.5 178.070312 118.742188 178.167969 118.996094 Z M 178.167969 118.996094 " fill-opacity="1" fill-rule="nonzero"/></g></g></g></g><g clip-path="url(#4747532dd8)"><g clip-path="url(#8c6662a205)"><g clip-path="url(#5b0002b19c)"><g clip-path="url(#038c79853a)"><path fill="#ffffff" d="M 200.90625 121.738281 C 201.085938 122.203125 201.21875 122.679688 201.308594 123.167969 C 201.394531 123.660156 201.429688 124.152344 201.417969 124.652344 C 201.410156 125.148438 201.347656 125.640625 201.242188 126.125 C 201.132812 126.609375 200.980469 127.082031 200.78125 127.535156 C 200.578125 127.992188 200.335938 128.421875 200.050781 128.832031 C 199.765625 129.238281 199.441406 129.613281 199.082031 129.957031 C 198.722656 130.300781 198.335938 130.605469 197.914062 130.875 C 197.496094 131.140625 197.054688 131.363281 196.589844 131.546875 C 196.128906 131.726562 195.652344 131.859375 195.160156 131.945312 C 194.671875 132.03125 194.175781 132.070312 193.679688 132.058594 C 193.183594 132.046875 192.691406 131.988281 192.207031 131.878906 C 191.71875 131.769531 191.25 131.617188 190.792969 131.417969 C 190.339844 131.214844 189.90625 130.972656 189.5 130.6875 C 189.09375 130.402344 188.71875 130.078125 188.375 129.71875 C 188.03125 129.359375 187.722656 128.972656 187.457031 128.550781 C 187.191406 128.132812 186.964844 127.691406 186.785156 127.226562 C 186.605469 126.761719 186.472656 126.285156 186.386719 125.796875 C 186.300781 125.308594 186.261719 124.8125 186.273438 124.316406 C 186.285156 123.816406 186.34375 123.328125 186.449219 122.839844 C 186.558594 122.355469 186.714844 121.886719 186.914062 121.429688 C 187.113281 120.976562 187.355469 120.542969 187.640625 120.136719 C 187.925781 119.726562 188.25 119.351562 188.609375 119.007812 C 188.96875 118.664062 189.359375 118.359375 189.777344 118.09375 C 190.195312 117.824219 190.636719 117.601562 191.101562 117.421875 C 191.566406 117.242188 192.042969 117.109375 192.53125 117.023438 C 193.023438 116.933594 193.515625 116.898438 194.011719 116.910156 C 194.511719 116.917969 195 116.980469 195.488281 117.085938 C 195.972656 117.195312 196.441406 117.347656 196.898438 117.550781 C 197.355469 117.75 197.785156 117.992188 198.191406 118.277344 C 198.601562 118.5625 198.976562 118.886719 199.320312 119.246094 C 199.664062 119.605469 199.96875 119.996094 200.234375 120.414062 C 200.503906 120.832031 200.726562 121.277344 200.90625 121.738281 Z M 200.90625 121.738281 " fill-opacity="1" fill-rule="nonzero"/></g></g></g></g><g clip-path="url(#74af6b5b38)"><g clip-path="url(#a3df288566)"><g clip-path="url(#d6aebb0c23)"><g clip-path="url(#2b07245ef7)"><path fill="#ffffff" d="M 163.460938 167.335938 C 163.640625 167.796875 163.863281 168.238281 164.128906 168.660156 C 164.394531 169.082031 164.695312 169.472656 165.03125 169.832031 C 165.371094 170.195312 165.742188 170.519531 166.140625 170.808594 C 166.539062 171.097656 166.960938 171.34375 167.40625 171.546875 C 167.851562 171.753906 168.3125 171.910156 168.785156 172.023438 C 169.261719 172.136719 169.738281 172.199219 170.222656 172.214844 C 170.707031 172.230469 171.1875 172.199219 171.664062 172.117188 C 172.140625 172.039062 172.601562 171.910156 173.054688 171.734375 C 173.503906 171.558594 173.929688 171.34375 174.335938 171.082031 C 174.742188 170.820312 175.117188 170.519531 175.464844 170.179688 C 175.808594 169.839844 176.121094 169.46875 176.394531 169.066406 C 176.667969 168.664062 176.898438 168.238281 177.089844 167.785156 C 177.28125 167.332031 177.425781 166.867188 177.527344 166.382812 C 177.625 165.902344 177.679688 165.414062 177.683594 164.917969 C 177.691406 164.421875 177.648438 163.929688 177.558594 163.441406 C 177.46875 162.953125 177.335938 162.476562 177.15625 162.011719 C 176.976562 161.550781 176.753906 161.105469 176.488281 160.6875 C 176.222656 160.265625 175.921875 159.875 175.582031 159.511719 C 175.246094 159.152344 174.875 158.824219 174.476562 158.539062 C 174.078125 158.25 173.65625 158.003906 173.210938 157.796875 C 172.765625 157.59375 172.304688 157.4375 171.832031 157.324219 C 171.355469 157.210938 170.878906 157.148438 170.394531 157.128906 C 169.910156 157.113281 169.429688 157.148438 168.953125 157.226562 C 168.476562 157.308594 168.011719 157.4375 167.5625 157.613281 C 167.113281 157.785156 166.6875 158.003906 166.28125 158.265625 C 165.875 158.527344 165.5 158.828125 165.152344 159.167969 C 164.804688 159.507812 164.496094 159.875 164.222656 160.28125 C 163.949219 160.683594 163.71875 161.109375 163.527344 161.5625 C 163.335938 162.011719 163.191406 162.480469 163.089844 162.960938 C 162.992188 163.445312 162.9375 163.933594 162.933594 164.429688 C 162.925781 164.925781 162.96875 165.417969 163.058594 165.90625 C 163.148438 166.394531 163.28125 166.871094 163.460938 167.335938 Z M 163.460938 167.335938 " fill-opacity="1" fill-rule="nonzero"/></g></g></g></g><g clip-path="url(#71860eca5d)"><g clip-path="url(#158a8d88bc)"><g clip-path="url(#dbe4244de8)"><g clip-path="url(#ed1b5e3ad4)"><path fill="#ffffff" d="M 173.050781 145.121094 C 173.183594 145.464844 173.375 145.765625 173.625 146.03125 C 173.871094 146.296875 174.160156 146.503906 174.488281 146.65625 C 174.8125 146.804688 175.15625 146.886719 175.511719 146.898438 C 175.867188 146.910156 176.210938 146.851562 176.539062 146.722656 C 176.871094 146.59375 177.160156 146.40625 177.417969 146.15625 C 177.671875 145.910156 177.867188 145.617188 178.007812 145.285156 C 178.148438 144.957031 178.21875 144.609375 178.222656 144.242188 C 178.226562 143.878906 178.164062 143.527344 178.03125 143.1875 C 177.898438 142.847656 177.707031 142.542969 177.460938 142.277344 C 177.210938 142.011719 176.921875 141.804688 176.597656 141.65625 C 176.269531 141.503906 175.929688 141.425781 175.574219 141.414062 C 175.214844 141.402344 174.875 141.457031 174.542969 141.585938 C 174.214844 141.714844 173.921875 141.902344 173.667969 142.152344 C 173.414062 142.402344 173.214844 142.691406 173.074219 143.023438 C 172.9375 143.355469 172.863281 143.703125 172.859375 144.066406 C 172.855469 144.429688 172.917969 144.78125 173.050781 145.121094 Z M 173.050781 145.121094 " fill-opacity="1" fill-rule="nonzero"/></g></g></g></g><g clip-path="url(#241fb09cff)"><g clip-path="url(#e4e2f9e920)"><g clip-path="url(#e628dba606)"><g clip-path="url(#9949e13914)"><path fill="#ffffff" d="M 216.390625 124.832031 C 216.523438 125.171875 216.714844 125.476562 216.960938 125.742188 C 217.210938 126.007812 217.5 126.214844 217.824219 126.363281 C 218.152344 126.515625 218.496094 126.59375 218.851562 126.605469 C 219.207031 126.617188 219.546875 126.5625 219.878906 126.433594 C 220.207031 126.304688 220.5 126.117188 220.753906 125.867188 C 221.007812 125.617188 221.207031 125.328125 221.347656 124.996094 C 221.488281 124.664062 221.558594 124.316406 221.5625 123.953125 C 221.566406 123.589844 221.503906 123.238281 221.371094 122.898438 C 221.238281 122.554688 221.046875 122.253906 220.800781 121.988281 C 220.550781 121.722656 220.261719 121.515625 219.933594 121.363281 C 219.609375 121.214844 219.265625 121.132812 218.910156 121.121094 C 218.554688 121.109375 218.210938 121.167969 217.882812 121.296875 C 217.550781 121.425781 217.261719 121.613281 217.003906 121.863281 C 216.75 122.109375 216.554688 122.402344 216.414062 122.734375 C 216.273438 123.0625 216.203125 123.410156 216.199219 123.777344 C 216.195312 124.140625 216.257812 124.492188 216.390625 124.832031 Z M 216.390625 124.832031 " fill-opacity="1" fill-rule="nonzero"/></g></g></g></g><g clip-path="url(#5b0abad566)"><g clip-path="url(#c0e80846e4)"><g clip-path="url(#a75cacf10a)"><g clip-path="url(#e3e479e6a1)"><path fill="#ffffff" d="M 198.875 111.441406 C 199.007812 111.78125 199.195312 112.085938 199.445312 112.351562 C 199.695312 112.617188 199.980469 112.824219 200.308594 112.972656 C 200.636719 113.125 200.976562 113.203125 201.332031 113.214844 C 201.6875 113.226562 202.03125 113.167969 202.359375 113.042969 C 202.691406 112.914062 202.984375 112.722656 203.238281 112.476562 C 203.492188 112.226562 203.691406 111.9375 203.828125 111.605469 C 203.96875 111.273438 204.042969 110.925781 204.046875 110.5625 C 204.050781 110.199219 203.984375 109.847656 203.851562 109.507812 C 203.71875 109.164062 203.53125 108.863281 203.28125 108.597656 C 203.03125 108.332031 202.746094 108.125 202.417969 107.972656 C 202.089844 107.824219 201.75 107.742188 201.394531 107.730469 C 201.039062 107.71875 200.695312 107.777344 200.367188 107.90625 C 200.035156 108.035156 199.742188 108.222656 199.488281 108.472656 C 199.234375 108.71875 199.035156 109.011719 198.898438 109.34375 C 198.757812 109.671875 198.683594 110.019531 198.679688 110.382812 C 198.675781 110.75 198.742188 111.101562 198.875 111.441406 Z M 198.875 111.441406 " fill-opacity="1" fill-rule="nonzero"/></g></g></g></g><g fill="#000000" fill-opacity="1"><g transform="translate(93.324813, 285.838428)"><g><path d="M 8.859375 -4.3125 L 19.875 -4.3125 L 19.875 0 L 3.515625 0 L 3.515625 -32.5625 L 8.859375 -32.5625 Z M 8.859375 -4.3125 "/></g></g></g><g fill="#000000" fill-opacity="1"><g transform="translate(114.126909, 285.838428)"><g><path d="M 1.734375 -13.03125 C 1.734375 -15.625 2.269531 -17.921875 3.34375 -19.921875 C 4.425781 -21.921875 5.894531 -23.472656 7.75 -24.578125 C 9.613281 -25.679688 11.671875 -26.234375 13.921875 -26.234375 C 15.953125 -26.234375 17.722656 -25.832031 19.234375 -25.03125 C 20.753906 -24.238281 21.96875 -23.253906 22.875 -22.078125 L 22.875 -25.8125 L 28.25 -25.8125 L 28.25 0 L 22.875 0 L 22.875 -3.84375 C 21.96875 -2.625 20.734375 -1.609375 19.171875 -0.796875 C 17.609375 0.015625 15.828125 0.421875 13.828125 0.421875 C 11.609375 0.421875 9.578125 -0.144531 7.734375 -1.28125 C 5.890625 -2.425781 4.425781 -4.019531 3.34375 -6.0625 C 2.269531 -8.113281 1.734375 -10.4375 1.734375 -13.03125 Z M 22.875 -12.9375 C 22.875 -14.71875 22.503906 -16.265625 21.765625 -17.578125 C 21.035156 -18.890625 20.078125 -19.890625 18.890625 -20.578125 C 17.703125 -21.265625 16.421875 -21.609375 15.046875 -21.609375 C 13.671875 -21.609375 12.390625 -21.269531 11.203125 -20.59375 C 10.015625 -19.925781 9.050781 -18.941406 8.3125 -17.640625 C 7.582031 -16.347656 7.21875 -14.8125 7.21875 -13.03125 C 7.21875 -11.25 7.582031 -9.6875 8.3125 -8.34375 C 9.050781 -7 10.019531 -5.972656 11.21875 -5.265625 C 12.425781 -4.566406 13.703125 -4.21875 15.046875 -4.21875 C 16.421875 -4.21875 17.703125 -4.5625 18.890625 -5.25 C 20.078125 -5.9375 21.035156 -6.941406 21.765625 -8.265625 C 22.503906 -9.597656 22.875 -11.15625 22.875 -12.9375 Z M 22.875 -12.9375 "/></g></g></g><g fill="#000000" fill-opacity="1"><g transform="translate(145.892273, 285.838428)"><g><path d="M 8.25 -4.359375 L 19.96875 -4.359375 L 19.96875 0 L 2.0625 0 L 2.0625 -4.359375 L 13.828125 -21.46875 L 2.0625 -21.46875 L 2.0625 -25.8125 L 19.96875 -25.8125 L 19.96875 -21.46875 Z M 8.25 -4.359375 "/></g></g></g><g fill="#000000" fill-opacity="1"><g transform="translate(167.959365, 285.838428)"><g><path d="M 26.75 -25.8125 L 10.921875 12.140625 L 5.390625 12.140625 L 10.640625 -0.421875 L 0.46875 -25.8125 L 6.421875 -25.8125 L 13.6875 -6.140625 L 21.234375 -25.8125 Z M 26.75 -25.8125 "/></g></g></g><g fill="#000000" fill-opacity="1"><g transform="translate(195.226983, 285.838428)"><g><path d="M 20.953125 -16.734375 C 22.691406 -16.421875 24.171875 -15.5 25.390625 -13.96875 C 26.609375 -12.4375 27.21875 -10.703125 27.21875 -8.765625 C 27.21875 -7.109375 26.785156 -5.613281 25.921875 -4.28125 C 25.066406 -2.957031 23.828125 -1.910156 22.203125 -1.140625 C 20.585938 -0.378906 18.703125 0 16.546875 0 L 3.515625 0 L 3.515625 -32.5625 L 15.9375 -32.5625 C 18.15625 -32.5625 20.054688 -32.1875 21.640625 -31.4375 C 23.234375 -30.6875 24.4375 -29.675781 25.25 -28.40625 C 26.0625 -27.144531 26.46875 -25.734375 26.46875 -24.171875 C 26.46875 -22.304688 25.96875 -20.75 24.96875 -19.5 C 23.96875 -18.25 22.628906 -17.328125 20.953125 -16.734375 Z M 8.859375 -18.890625 L 15.46875 -18.890625 C 17.21875 -18.890625 18.582031 -19.285156 19.5625 -20.078125 C 20.550781 -20.878906 21.046875 -22.023438 21.046875 -23.515625 C 21.046875 -24.984375 20.550781 -26.128906 19.5625 -26.953125 C 18.582031 -27.785156 17.21875 -28.203125 15.46875 -28.203125 L 8.859375 -28.203125 Z M 16.078125 -4.359375 C 17.890625 -4.359375 19.3125 -4.796875 20.34375 -5.671875 C 21.375 -6.546875 21.890625 -7.765625 21.890625 -9.328125 C 21.890625 -10.921875 21.34375 -12.1875 20.25 -13.125 C 19.15625 -14.0625 17.703125 -14.53125 15.890625 -14.53125 L 8.859375 -14.53125 L 8.859375 -4.359375 Z M 16.078125 -4.359375 "/></g></g></g><g fill="#000000" fill-opacity="1"><g transform="translate(224.743468, 285.838428)"><g><path d="M 26.890625 -25.8125 L 26.890625 0 L 21.5625 0 L 21.5625 -3.046875 C 20.71875 -1.984375 19.613281 -1.144531 18.25 -0.53125 C 16.894531 0.0703125 15.453125 0.375 13.921875 0.375 C 11.890625 0.375 10.066406 -0.046875 8.453125 -0.890625 C 6.847656 -1.734375 5.582031 -2.984375 4.65625 -4.640625 C 3.738281 -6.296875 3.28125 -8.296875 3.28125 -10.640625 L 3.28125 -25.8125 L 8.578125 -25.8125 L 8.578125 -11.4375 C 8.578125 -9.125 9.15625 -7.347656 10.3125 -6.109375 C 11.46875 -4.878906 13.046875 -4.265625 15.046875 -4.265625 C 17.046875 -4.265625 18.628906 -4.878906 19.796875 -6.109375 C 20.972656 -7.347656 21.5625 -9.125 21.5625 -11.4375 L 21.5625 -25.8125 Z M 26.890625 -25.8125 "/></g></g></g><g fill="#000000" fill-opacity="1"><g transform="translate(255.150143, 285.838428)"><g><path d="M 13.921875 -26.234375 C 15.921875 -26.234375 17.691406 -25.832031 19.234375 -25.03125 C 20.785156 -24.238281 22 -23.253906 22.875 -22.078125 L 22.875 -25.8125 L 28.25 -25.8125 L 28.25 0.421875 C 28.25 2.796875 27.75 4.910156 26.75 6.765625 C 25.75 8.628906 24.304688 10.09375 22.421875 11.15625 C 20.535156 12.21875 18.28125 12.75 15.65625 12.75 C 12.15625 12.75 9.25 11.925781 6.9375 10.28125 C 4.625 8.644531 3.3125 6.421875 3 3.609375 L 8.296875 3.609375 C 8.703125 4.953125 9.566406 6.035156 10.890625 6.859375 C 12.222656 7.691406 13.8125 8.109375 15.65625 8.109375 C 17.8125 8.109375 19.550781 7.453125 20.875 6.140625 C 22.207031 4.828125 22.875 2.921875 22.875 0.421875 L 22.875 -3.890625 C 21.96875 -2.671875 20.738281 -1.644531 19.1875 -0.8125 C 17.644531 0.0078125 15.890625 0.421875 13.921875 0.421875 C 11.671875 0.421875 9.613281 -0.144531 7.75 -1.28125 C 5.894531 -2.425781 4.425781 -4.019531 3.34375 -6.0625 C 2.269531 -8.113281 1.734375 -10.4375 1.734375 -13.03125 C 1.734375 -15.625 2.269531 -17.921875 3.34375 -19.921875 C 4.425781 -21.921875 5.894531 -23.472656 7.75 -24.578125 C 9.613281 -25.679688 11.671875 -26.234375 13.921875 -26.234375 Z M 22.875 -12.9375 C 22.875 -14.71875 22.503906 -16.265625 21.765625 -17.578125 C 21.035156 -18.890625 20.078125 -19.890625 18.890625 -20.578125 C 17.703125 -21.265625 16.421875 -21.609375 15.046875 -21.609375 C 13.671875 -21.609375 12.390625 -21.269531 11.203125 -20.59375 C 10.015625 -19.925781 9.050781 -18.941406 8.3125 -17.640625 C 7.582031 -16.347656 7.21875 -14.8125 7.21875 -13.03125 C 7.21875 -11.25 7.582031 -9.6875 8.3125 -8.34375 C 9.050781 -7 10.019531 -5.972656 11.21875 -5.265625 C 12.425781 -4.566406 13.703125 -4.21875 15.046875 -4.21875 C 16.421875 -4.21875 17.703125 -4.5625 18.890625 -5.25 C 20.078125 -5.9375 21.035156 -6.941406 21.765625 -8.265625 C 22.503906 -9.597656 22.875 -11.15625 22.875 -12.9375 Z M 22.875 -12.9375 "/></g></g></g><g fill="#000000" fill-opacity="1"><g transform="translate(286.918554, 285.838428)"><g/></g></g></svg>