<svg xmlns="http://www.w3.org/2000/svg" xmlns:xlink="http://www.w3.org/1999/xlink" width="500" zoomAndPan="magnify" viewBox="0 0 375 374.999991" height="500" preserveAspectRatio="xMidYMid meet" version="1.0"><defs><g/><clipPath id="c644e7a265"><path d="M 132.242188 95.523438 L 268 95.523438 L 268 245.523438 L 132.242188 245.523438 Z M 132.242188 95.523438 " clip-rule="nonzero"/></clipPath></defs><rect x="-37.5" width="450" fill="#ffffff" y="-37.499999" height="449.999989" fill-opacity="1"/><rect x="-37.5" width="450" fill="#d9d9d9" y="-37.499999" height="449.999989" fill-opacity="1"/><g clip-path="url(#c644e7a265)"><path fill="#000000" d="M 155.421875 168.972656 C 155.722656 168.246094 153.949219 165.785156 153.066406 166.074219 C 152.347656 166.308594 151.773438 167.988281 151.480469 168.621094 C 150.417969 170.90625 149.0625 173.09375 147.988281 175.40625 C 145.734375 180.269531 144.0625 185.398438 142.898438 190.640625 C 141.742188 195.832031 140.570312 201.046875 140.136719 206.363281 C 139.960938 208.640625 139.640625 211.347656 139.832031 213.589844 C 140.167969 217.398438 142.835938 214.351562 144.605469 213.597656 C 144.636719 213.347656 144.664062 213.113281 144.6875 212.867188 C 144.722656 212.867188 144.746094 212.859375 144.773438 212.859375 C 144.640625 210.265625 145.359375 207.417969 145.542969 205.015625 C 145.890625 200.613281 146.222656 196.195312 146.878906 191.824219 C 148.046875 184.144531 150.09375 176.628906 154.832031 170.417969 C 155.023438 169.945312 155.207031 169.472656 155.421875 168.972656 Z M 166.632812 174.503906 C 166.605469 174.386719 166.601562 174.285156 166.566406 174.164062 C 166.191406 172.910156 164.921875 171.332031 163.867188 170.410156 C 158.480469 165.65625 155.070312 173.925781 153.238281 177.75 C 151.039062 182.347656 149.9375 187.457031 149.238281 192.46875 C 148.714844 196.261719 148.382812 200.066406 148.082031 203.875 C 147.828125 207.179688 146.636719 210.566406 147.300781 213.902344 C 147.511719 214.984375 147.910156 215.738281 148.429688 216.246094 C 150.59375 218.328125 154.914062 215.855469 157.097656 213.785156 C 153.71875 207.359375 154.621094 199.496094 156.59375 192.746094 C 158.46875 186.316406 160.878906 178.507812 166.632812 174.503906 Z M 169.050781 186.667969 C 169.378906 183.769531 169.824219 180.695312 169.949219 177.644531 C 168.570312 177.367188 167.203125 177.351562 165.96875 178.222656 C 164.355469 179.359375 163.523438 181.351562 162.65625 183.039062 C 160.96875 186.3125 159.898438 189.855469 158.949219 193.398438 C 157.425781 199.054688 156.335938 205.464844 158.519531 211.054688 C 158.664062 210.933594 158.824219 210.839844 159.007812 210.800781 C 159.054688 210.777344 159.113281 210.753906 159.175781 210.753906 C 160.261719 210.753906 160.761719 210.753906 161.304688 210.800781 C 161.355469 210.683594 161.417969 210.570312 161.515625 210.464844 C 167.585938 203.894531 168.105469 195.113281 169.050781 186.667969 Z M 185.066406 120.976562 C 185.769531 120.042969 185.78125 118.378906 184.652344 117.757812 C 184.417969 117.632812 184.261719 117.460938 184.199219 117.261719 C 181.8125 118.28125 178.550781 118.351562 176.058594 117.441406 C 175.96875 117.5625 175.847656 117.671875 175.691406 117.757812 C 174.566406 118.378906 174.566406 120.042969 175.277344 120.976562 C 175.308594 121.015625 175.320312 121.046875 175.347656 121.097656 C 178.5625 121.054688 181.777344 120.890625 184.980469 121.117188 C 185.003906 121.066406 185.027344 121.023438 185.066406 120.976562 Z M 186.464844 110.132812 C 186.441406 109.101562 186.453125 108.0625 186.46875 107.027344 C 185.140625 107.320312 183.566406 107.304688 183.214844 105.777344 C 182.984375 104.78125 183.371094 103.714844 183.894531 102.78125 C 182.699219 102.558594 181.523438 102.242188 180.914062 101.082031 C 180.683594 100.644531 180.792969 100.230469 181.03125 99.917969 C 181.035156 99.90625 181.046875 99.902344 181.050781 99.890625 C 181.058594 99.878906 181.074219 99.859375 181.085938 99.851562 C 181.128906 99.808594 181.15625 99.769531 181.207031 99.726562 C 182.085938 98.964844 182.085938 97.777344 180.683594 97.785156 C 180.183594 97.785156 179.246094 97.878906 179.082031 98.480469 C 179.015625 98.691406 178.964844 98.945312 179.035156 99.164062 C 179.058594 99.234375 179.0625 99.273438 179.0625 99.296875 C 179.921875 99.371094 180.230469 100.242188 180 100.84375 C 179.960938 101 179.878906 101.148438 179.746094 101.292969 C 178.707031 102.398438 177.335938 102.617188 175.941406 102.8125 C 176.257812 103.664062 176.554688 104.527344 176.75 105.425781 C 176.824219 105.78125 176.734375 106.082031 176.554688 106.3125 C 176.46875 106.667969 176.226562 106.984375 175.855469 107.042969 C 175.027344 107.160156 173.714844 107.214844 172.863281 107.230469 C 172.863281 108.042969 172.835938 108.855469 172.707031 109.644531 C 173.535156 109.660156 174.351562 109.691406 175.1875 109.695312 C 175.714844 109.695312 176.039062 110.007812 176.164062 110.398438 C 176.34375 110.566406 176.46875 110.800781 176.492188 111.117188 C 176.578125 112.453125 176.007812 113.625 175.03125 114.457031 C 176.75 116.476562 182.460938 116.285156 184.5 114.59375 C 183.742188 113.8125 183.371094 112.6875 183.285156 111.589844 C 183.097656 111.195312 183.023438 110.777344 183.277344 110.339844 C 183.589844 109.8125 184.199219 109.660156 184.769531 109.714844 C 185.355469 109.769531 185.917969 109.9375 186.464844 110.132812 Z M 194.058594 152.242188 C 194.269531 151.695312 194.523438 150.890625 194.039062 150.417969 C 192.859375 149.289062 181.242188 151.128906 181.253906 149.378906 C 181.253906 149.015625 183.496094 148.738281 190.582031 148.789062 C 190.675781 147.945312 190.691406 146.921875 190.691406 146.230469 C 189.363281 146.125 188.207031 146.015625 187.234375 145.914062 C 185.964844 145.816406 184.96875 145.75 184.214844 145.660156 C 182.714844 145.480469 182.144531 145.296875 182.144531 145.101562 C 182.152344 144.898438 182.734375 144.75 184.253906 144.675781 C 185.015625 144.640625 186.003906 144.601562 187.292969 144.628906 C 188.109375 144.667969 193.152344 145.617188 192.660156 143.875 C 192.125 142.023438 183.921875 143.894531 183.929688 142.546875 C 183.929688 142.175781 185.585938 141.820312 190.894531 141.625 C 193.429688 136.34375 193.578125 130.226562 196.792969 125.28125 C 193.480469 124.152344 190.105469 123.457031 186.578125 123.324219 C 186.464844 123.347656 186.332031 123.363281 186.1875 123.347656 C 182.382812 122.960938 178.566406 123.21875 174.75 123.238281 C 174.652344 123.265625 174.535156 123.289062 174.40625 123.289062 C 170.648438 123.347656 167.070312 124.089844 163.550781 125.28125 C 166.828125 130.316406 166.910156 136.566406 169.578125 141.90625 C 179.570312 141.976562 182.675781 142.296875 182.675781 142.664062 C 182.667969 144.144531 167.953125 142.195312 167.332031 144.140625 C 166.859375 145.617188 169.515625 144.601562 170.101562 144.542969 C 171.378906 144.421875 172.664062 144.414062 173.941406 144.460938 C 175.53125 144.53125 176.75 144.636719 177.683594 144.726562 C 179.53125 144.917969 180.242188 145.074219 180.242188 145.277344 C 180.242188 145.464844 179.53125 145.652344 177.648438 145.710938 C 176.703125 145.75 175.492188 145.742188 173.933594 145.75 C 172.707031 145.757812 171.269531 145.789062 169.636719 145.992188 C 169.648438 146.035156 169.652344 146.066406 169.652344 146.109375 C 169.652344 146.675781 169.664062 147.539062 169.722656 148.335938 C 170.28125 148.328125 170.804688 148.328125 171.277344 148.328125 C 172.402344 148.359375 173.289062 148.433594 173.941406 148.507812 C 175.269531 148.644531 175.785156 148.824219 175.785156 149.019531 C 175.785156 149.203125 175.269531 149.378906 173.933594 149.492188 C 173.253906 149.550781 172.390625 149.574219 171.277344 149.613281 C 170.078125 149.648438 167.164062 149.492188 166.304688 150.417969 C 165.851562 150.929688 166.058594 151.71875 166.285156 152.300781 C 166.324219 152.398438 166.332031 152.640625 166.347656 152.640625 C 171.511719 152.640625 176.46875 152.640625 181.445312 152.640625 C 185.566406 152.640625 189.871094 152.933594 194 152.574219 C 194.011719 152.484375 194.023438 152.339844 194.058594 152.242188 Z M 197.347656 158.417969 C 198.324219 157.253906 197.980469 155.746094 196.738281 154.953125 C 195.441406 154.105469 194.089844 154.113281 192.585938 154.195312 C 191.222656 154.269531 189.851562 154.34375 188.484375 154.324219 C 185.6875 154.285156 182.886719 154.269531 180.085938 154.269531 C 176.628906 154.269531 173.171875 154.269531 169.722656 154.269531 C 167.457031 154.269531 165.816406 153.617188 163.890625 154.960938 C 163.308594 155.367188 162.746094 155.1875 162.566406 156.023438 C 162.402344 156.75 162.417969 157.84375 163 158.402344 C 164.066406 159.449219 165.890625 159.289062 167.269531 159.296875 C 167.398438 159.296875 167.503906 159.320312 167.601562 159.355469 C 167.871094 159.316406 168.164062 159.363281 168.398438 159.488281 C 176.785156 159.460938 185.183594 159.113281 193.566406 159.21875 C 193.714844 159.21875 193.832031 159.257812 193.9375 159.316406 C 195.136719 159.328125 196.617188 159.296875 197.347656 158.417969 Z M 206.554688 240.835938 C 207.238281 239.78125 208.078125 238.609375 208.308594 237.390625 C 207.410156 237.585938 206.566406 237.773438 205.789062 237.910156 C 204.835938 238.054688 203.972656 238.183594 203.191406 238.292969 C 202.417969 238.378906 201.71875 238.40625 201.097656 238.449219 C 200.480469 238.480469 199.941406 238.523438 199.476562 238.480469 C 197.601562 238.425781 196.894531 238.269531 196.894531 238.085938 C 196.894531 237.886719 197.59375 237.683594 199.417969 237.503906 C 199.875 237.46875 200.394531 237.382812 200.992188 237.296875 C 201.589844 237.210938 202.261719 237.140625 203.015625 237.023438 C 203.777344 236.886719 204.617188 236.738281 205.535156 236.578125 C 206.199219 236.433594 206.921875 236.277344 207.671875 236.117188 C 207.019531 235.714844 206.058594 235.550781 205.519531 235.429688 C 205.082031 235.324219 204.851562 235.039062 204.777344 234.707031 C 204.679688 234.550781 204.617188 234.355469 204.617188 234.160156 C 204.617188 233.988281 204.570312 233.785156 204.511719 233.582031 C 203.65625 233.929688 202.816406 234.121094 202.015625 234.292969 C 200.257812 234.671875 198.632812 234.710938 197.1875 234.863281 C 195.742188 234.964844 194.464844 234.910156 193.316406 234.929688 C 192.183594 234.917969 191.203125 234.863281 190.351562 234.828125 C 186.941406 234.65625 185.660156 234.46875 185.648438 234.273438 C 185.648438 234.085938 186.953125 233.925781 190.363281 233.84375 C 191.214844 233.820312 192.191406 233.804688 193.308594 233.777344 C 194.429688 233.707031 195.703125 233.710938 197.105469 233.582031 C 198.496094 233.40625 200.0625 233.332031 201.742188 232.957031 C 202.636719 232.761719 203.597656 232.5 204.476562 232.085938 C 204.558594 231.980469 204.65625 231.878906 204.789062 231.800781 C 204.910156 231.738281 205.058594 231.6875 205.195312 231.679688 C 210.671875 227.570312 203.867188 223.449219 201.480469 220.101562 C 199.867188 217.820312 199.582031 215.484375 199.90625 212.902344 C 199.882812 213.125 195.425781 213.039062 195.074219 213.0625 C 194.074219 213.113281 193.285156 213.136719 192.671875 213.121094 C 191.472656 213.09375 191.019531 212.964844 191 212.769531 C 191 212.574219 191.441406 212.359375 192.609375 212.136719 C 193.191406 212.019531 193.953125 211.90625 194.9375 211.785156 C 195.515625 211.703125 196.191406 211.621094 196.933594 211.542969 C 191.859375 205.765625 190.261719 198.242188 189.558594 190.75 C 189.0625 185.363281 188.054688 179.882812 188.371094 174.457031 C 188.507812 172.234375 188.679688 169.980469 189.398438 167.863281 C 190.203125 165.480469 191.15625 163.210938 191.375 160.6875 C 183.914062 160.667969 176.449219 160.949219 168.992188 160.988281 C 169.460938 165.582031 171.855469 169.691406 171.972656 174.457031 C 172.097656 179.921875 171.28125 185.316406 170.78125 190.75 C 170.066406 198.351562 168.457031 205.984375 163.199219 211.796875 C 167.164062 212.308594 170.558594 212.453125 173.402344 212.550781 C 176.652344 212.625 179.1875 212.679688 181.128906 212.726562 C 185.003906 212.828125 186.488281 213.015625 186.488281 213.199219 C 186.488281 213.394531 185.015625 213.585938 181.132812 213.734375 C 179.1875 213.808594 176.648438 213.910156 173.371094 213.882812 C 170.242188 213.851562 166.421875 213.832031 161.871094 213.125 C 161.335938 213.125 160.976562 212.964844 160.441406 212.957031 C 160.761719 215.542969 160.480469 217.820312 158.871094 220.101562 C 156.476562 223.449219 149.679688 227.570312 155.144531 231.679688 C 155.296875 231.6875 155.429688 231.738281 155.550781 231.800781 C 155.683594 231.878906 155.78125 231.972656 155.863281 232.085938 C 155.890625 232.09375 155.9375 232.117188 155.964844 232.132812 C 157.082031 232.589844 158.273438 232.800781 159.429688 232.980469 C 161.773438 233.378906 163.886719 233.550781 165.785156 233.777344 C 167.691406 233.957031 169.402344 233.988281 170.90625 234.097656 C 172.433594 234.160156 173.761719 234.171875 174.898438 234.21875 C 179.5 234.339844 181.253906 234.492188 181.253906 234.6875 C 181.25 234.878906 179.503906 235.078125 174.898438 235.203125 C 173.753906 235.21875 172.414062 235.265625 170.886719 235.253906 C 169.355469 235.203125 167.625 235.207031 165.679688 235.0625 C 163.730469 234.863281 161.5625 234.707031 159.226562 234.332031 C 158.15625 234.171875 157.007812 233.976562 155.84375 233.550781 C 155.769531 233.761719 155.730469 233.976562 155.730469 234.160156 C 155.722656 234.355469 155.65625 234.550781 155.570312 234.707031 C 155.488281 235.039062 155.257812 235.324219 154.828125 235.429688 C 154.378906 235.527344 153.742188 235.65625 153.171875 235.875 C 156.316406 237.1875 159.566406 237.5625 162.511719 237.789062 C 165.800781 238 168.808594 237.945312 171.507812 237.992188 C 176.90625 238.050781 181.109375 238.105469 184.332031 238.195312 C 187.546875 238.273438 189.765625 238.34375 191.175781 238.378906 C 192.589844 238.429688 193.199219 238.523438 193.210938 238.609375 C 193.210938 238.707031 192.609375 238.816406 191.1875 238.917969 C 189.777344 239.027344 187.546875 239.160156 184.332031 239.179688 C 181.117188 239.21875 176.890625 239.257812 171.488281 239.277344 C 168.773438 239.257812 165.785156 239.34375 162.429688 239.148438 C 159.242188 238.914062 155.648438 238.539062 152.039062 236.898438 C 151.996094 237.089844 151.996094 237.296875 152.074219 237.539062 C 152.429688 238.765625 153.1875 239.863281 153.867188 240.957031 C 158.460938 241.53125 163.007812 242.660156 167.625 242.949219 C 171.976562 243.214844 176.320312 243 180.679688 243.121094 C 185.039062 243.242188 189.445312 243.472656 193.796875 242.964844 C 196.347656 242.660156 198.824219 242.125 201.34375 241.664062 C 202.773438 241.410156 205.0625 241.347656 206.554688 240.835938 Z M 212.03125 204.414062 C 212.789062 201.972656 213.789062 199.566406 215.152344 197.464844 C 207.320312 196.125 199.261719 195.042969 191.9375 192.460938 C 192.757812 198.996094 194.148438 205.398438 198.832031 210.464844 C 198.921875 210.570312 198.984375 210.679688 199.035156 210.792969 C 199.582031 210.757812 200.117188 210.753906 200.582031 210.753906 C 200.6875 210.753906 200.78125 210.757812 200.867188 210.777344 C 201.539062 210.660156 202.367188 211.214844 202.195312 212.101562 C 201.933594 213.4375 201.859375 214.65625 202.035156 215.8125 C 204.558594 216.699219 207.078125 217.625 209.585938 218.523438 C 209.722656 213.632812 210.777344 208.441406 212.03125 204.414062 Z M 222.820312 201.800781 C 223.929688 200.117188 227.558594 197.75 226.84375 195.386719 C 226.140625 193.085938 222.140625 193.460938 220.527344 194.414062 C 216.652344 196.699219 214.84375 202.839844 213.886719 206.898438 C 212.726562 211.859375 211.640625 217.5625 212.179688 222.679688 C 212.277344 223.640625 212.433594 224.578125 212.667969 225.453125 C 213.214844 225.957031 214.011719 226.269531 214.84375 226.503906 C 217.226562 227.171875 218.597656 226.453125 219.527344 224.957031 C 217.089844 217.40625 218.476562 208.40625 222.820312 201.800781 Z M 230.730469 202.582031 C 230.875 202.4375 231.03125 202.347656 231.1875 202.289062 C 231.097656 201.742188 230.941406 201.21875 230.605469 200.757812 C 227.242188 196.203125 224.125 204.21875 223.1875 206.410156 C 222.152344 208.867188 217.976562 226.660156 224.714844 223.226562 C 225.285156 222.929688 225.710938 222.511719 226.078125 222.039062 C 224.992188 215.722656 226.109375 207.203125 230.730469 202.582031 Z M 234.78125 204.917969 C 233.964844 204.78125 233.0625 204.550781 232.394531 204.382812 C 229.839844 206.972656 228.726562 210.742188 228.300781 214.277344 C 228.117188 215.835938 227.769531 218.050781 228.171875 219.59375 C 228.390625 220.417969 228.082031 220.578125 228.898438 221.214844 C 229.082031 221.359375 230.507812 221.613281 230.507812 221.6875 C 230.554688 221.507812 230.582031 221.34375 230.625 221.175781 C 229.054688 215.894531 231.886719 209.378906 234.78125 204.917969 Z M 251.148438 207.933594 C 251.269531 206.410156 251.292969 204.835938 250.746094 203.347656 C 248.355469 204.191406 245.789062 204.589844 243.179688 204.78125 C 242.804688 204.808594 238.945312 204.878906 237.175781 204.785156 C 237.148438 204.859375 237.109375 204.941406 237.058594 205.023438 C 233.792969 209.734375 229.824219 217.855469 233.800781 223.160156 C 233.867188 223.25 233.90625 223.339844 233.941406 223.425781 C 235.945312 224.191406 237.8125 225.007812 239.265625 226.707031 C 240.746094 228.421875 241.734375 230.320312 242.59375 232.207031 C 243.433594 231.425781 244.109375 230.449219 244.546875 229.359375 C 242.570312 227.730469 241.175781 225.609375 242.757812 223.410156 C 243.898438 221.84375 246.152344 221.574219 248.050781 222.222656 C 248.550781 220.261719 249 218.304688 249.394531 216.3125 C 246.902344 215.753906 244.148438 214.304688 245.226562 211.628906 C 246.0625 209.523438 248.539062 207.871094 251.148438 207.933594 Z M 253.816406 218.390625 C 254.707031 215.421875 255.574219 212.46875 255.261719 209.320312 C 254.628906 209.066406 253.96875 208.871094 253.300781 208.792969 C 253.300781 208.796875 253.289062 208.808594 253.289062 208.816406 C 253.28125 208.945312 253.242188 209.050781 253.191406 209.148438 C 253.132812 209.679688 252.644531 210.167969 251.878906 209.976562 C 250.246094 209.585938 247.765625 210.71875 247.375 212.191406 C 246.875 214.058594 249.113281 214.324219 250.675781 214.574219 C 250.902344 214.609375 251.074219 214.695312 251.210938 214.804688 C 251.585938 215.019531 251.855469 215.386719 251.765625 215.871094 C 251.257812 218.507812 250.660156 221.117188 249.992188 223.714844 C 249.9375 223.898438 249.84375 224.046875 249.722656 224.152344 C 249.371094 224.566406 248.632812 224.773438 248.003906 224.324219 C 246.855469 223.503906 244.921875 223.738281 244.402344 224.941406 C 243.863281 226.171875 245.011719 227.203125 246.046875 228.019531 C 246.242188 228.058594 246.433594 228.140625 246.582031 228.253906 C 247.871094 228.410156 249.171875 228.449219 250.464844 228.578125 C 252.378906 225.511719 252.800781 221.792969 253.816406 218.390625 Z M 258.976562 213.527344 C 258.472656 213.28125 257.953125 213.101562 257.414062 212.964844 C 257.101562 215.324219 256.359375 217.621094 255.6875 219.921875 C 255.140625 221.804688 254.75 223.730469 254.167969 225.585938 C 254.796875 225.625 255.402344 225.6875 256.007812 225.769531 C 257.113281 221.71875 258.0625 217.625 258.976562 213.527344 Z M 265.546875 220.722656 C 265.832031 219.46875 265.957031 217.878906 264.671875 216.902344 C 263.386719 215.933594 261.871094 216.25 260.960938 217.328125 C 260.777344 217.539062 260.558594 217.644531 260.320312 217.6875 C 259.953125 219.261719 259.582031 220.839844 259.1875 222.417969 C 260.121094 223.777344 261.980469 225.414062 263.625 224.039062 C 264.648438 223.179688 265.273438 221.980469 265.546875 220.722656 Z M 150.882812 165.121094 C 147.558594 164.351562 144.6875 168.847656 143.167969 171.054688 C 141.726562 173.132812 140.542969 175.390625 139.582031 177.726562 C 137.675781 182.355469 136.625 187.300781 136.054688 192.265625 C 135.566406 196.46875 135.3125 200.695312 135.230469 204.933594 C 135.15625 208.871094 134.566406 212.46875 137.832031 215.226562 C 137.84375 215.089844 137.855469 214.949219 137.871094 214.8125 C 137.820312 214.691406 137.78125 214.570312 137.765625 214.429688 C 136.785156 206.203125 138.855469 196.617188 140.863281 188.65625 C 141.949219 184.296875 143.328125 180.011719 145.109375 175.886719 C 145.574219 174.796875 149.828125 165.121094 150.882812 165.121094 Z M 229.097656 197.71875 C 230.386719 198.019531 231.59375 198.628906 232.359375 199.664062 C 233.027344 200.5625 233.3125 201.589844 233.441406 202.632812 C 233.90625 202.742188 234.417969 202.863281 234.917969 202.957031 C 235.027344 202.859375 235.183594 202.789062 235.410156 202.742188 C 236.386719 202.582031 237.386719 202.730469 238.328125 203.035156 C 238.429688 203.011719 238.535156 202.992188 238.652344 202.992188 C 242.757812 202.910156 246.863281 202.789062 250.542969 201.246094 C 250.699219 201.183594 250.839844 201.160156 250.984375 201.160156 C 251.429688 200.980469 251.988281 201.070312 252.273438 201.613281 C 253.179688 203.339844 253.421875 205.0625 253.398438 206.839844 C 254.503906 206.972656 255.554688 207.324219 256.589844 207.757812 C 256.746094 207.824219 256.867188 207.929688 256.957031 208.050781 C 257.195312 208.210938 257.367188 208.457031 257.414062 208.769531 C 257.527344 209.523438 257.550781 210.265625 257.539062 210.996094 C 258.546875 211.207031 259.523438 211.546875 260.417969 212.042969 C 260.96875 212.183594 261.457031 212.640625 261.316406 213.257812 C 261.203125 213.769531 261.089844 214.28125 260.984375 214.789062 C 262.3125 214.167969 263.90625 214.070312 265.382812 215 C 267.65625 216.429688 268.28125 218.707031 267.777344 220.945312 C 267.316406 223.054688 266.207031 225.367188 263.882812 226.234375 C 261.863281 226.988281 259.984375 226.171875 258.570312 224.84375 C 258.367188 225.625 258.160156 226.398438 257.953125 227.179688 C 257.796875 227.730469 257.226562 227.949219 256.625 227.839844 C 255.605469 227.609375 254.582031 227.507812 253.570312 227.519531 C 253.535156 227.519531 253.511719 227.511719 253.484375 227.519531 C 253.113281 228.398438 252.671875 229.25 252.117188 230.074219 C 251.921875 230.34375 251.660156 230.476562 251.386719 230.5 C 251.207031 230.5625 251.011719 230.585938 250.78125 230.554688 C 249.394531 230.351562 248.003906 230.335938 246.613281 230.199219 C 245.871094 232.019531 244.582031 233.628906 242.902344 234.828125 C 242.28125 235.277344 241.339844 235.105469 241.042969 234.339844 C 240.128906 231.960938 239.074219 229.148438 236.921875 227.339844 C 235.628906 226.242188 234.101562 225.609375 232.542969 225.015625 C 231.171875 224.722656 229.835938 223.128906 228.582031 223.207031 C 227.460938 223.277344 226.714844 224.65625 225.707031 225.039062 C 224.476562 225.511719 223.210938 225.503906 221.921875 225.140625 C 221.875 225.265625 221.808594 225.371094 221.726562 225.46875 C 220.335938 227.976562 217.976562 229.597656 214.347656 228.382812 C 213.375 228.066406 212.253906 227.632812 211.367188 227.007812 C 210.90625 226.984375 210.476562 226.722656 210.320312 226.148438 C 210.285156 226.03125 210.269531 225.917969 210.242188 225.808594 C 210.109375 225.578125 210.003906 225.324219 209.945312 225.039062 C 209.847656 224.582031 209.820312 224.136719 209.832031 223.691406 C 209.695312 222.695312 209.621094 221.65625 209.585938 220.589844 C 207.328125 219.789062 205.0625 218.945312 202.792969 218.132812 C 203.144531 218.777344 203.597656 219.390625 204.199219 220.003906 C 205.765625 221.589844 207.492188 222.890625 208.585938 224.871094 C 210.269531 227.921875 209.089844 231.191406 206.640625 233.238281 C 206.652344 233.335938 206.679688 233.417969 206.691406 233.515625 C 208.421875 233.988281 210.464844 234.890625 210.492188 236.925781 C 210.503906 238.597656 209.523438 240.148438 208.625 241.554688 C 208.683594 241.921875 208.539062 242.296875 208.089844 242.511719 C 208.03125 242.535156 207.964844 242.558594 207.90625 242.574219 C 207.726562 242.726562 207.527344 242.796875 207.3125 242.796875 C 205.996094 243.234375 204.640625 243.234375 203.21875 243.492188 C 200.605469 243.964844 198.007812 244.523438 195.386719 244.910156 C 190.945312 245.558594 186.445312 245.410156 181.984375 245.289062 C 177.207031 245.164062 172.386719 245.507812 167.625 245.085938 C 162.792969 244.644531 158.054688 243.550781 153.230469 243.011719 C 152.929688 242.972656 152.691406 242.84375 152.527344 242.648438 C 152.398438 242.574219 152.285156 242.457031 152.1875 242.296875 C 151.210938 240.703125 149.652344 238.71875 149.882812 236.726562 C 150.101562 234.792969 151.957031 233.976562 153.652344 233.515625 C 153.671875 233.417969 153.683594 233.335938 153.710938 233.238281 C 151.257812 231.191406 150.074219 227.921875 151.761719 224.871094 C 152.859375 222.875 154.632812 221.660156 156.144531 220.003906 C 157.464844 218.550781 158.128906 217.148438 158.328125 215.578125 C 154.484375 218.960938 147.695312 221.378906 144.941406 215.75 C 143.925781 216.292969 142.996094 216.957031 142 217.503906 C 141.214844 217.929688 139.832031 218.828125 138.78125 218.507812 C 136.882812 217.902344 135.59375 216.878906 134.742188 215.601562 C 132.777344 213.222656 132.695312 210.585938 132.746094 207.121094 C 132.828125 201.753906 133.070312 196.414062 133.753906 191.082031 C 134.609375 184.429688 136.332031 177.753906 139.734375 171.914062 C 141.644531 168.65625 144.089844 164.96875 147.558594 163.199219 C 149.242188 162.347656 151.394531 162.128906 153.199219 162.785156 C 155.46875 163.617188 156.261719 166.34375 157.390625 168.246094 C 162.753906 164.570312 167.652344 170.550781 169.160156 175.492188 C 169.417969 175.597656 169.695312 175.683594 169.980469 175.773438 C 169.96875 174.023438 169.824219 172.296875 169.453125 170.628906 C 168.75 167.488281 167.347656 164.609375 166.910156 161.433594 C 164.503906 161.410156 161.464844 161.15625 160.617188 158.476562 C 159.699219 155.496094 161.261719 153.039062 164.113281 152.496094 C 163.753906 151.316406 163.828125 149.96875 164.703125 149.019531 C 165.433594 148.207031 166.484375 147.878906 167.542969 147.859375 C 167.527344 147.539062 167.519531 147.238281 167.519531 146.941406 C 166.332031 146.734375 165.421875 145.835938 165.273438 144.472656 C 165.117188 143.105469 165.921875 142.003906 167.09375 141.554688 C 164.984375 136.34375 164.800781 130.246094 161.28125 125.707031 C 161.210938 125.636719 161.164062 125.539062 161.132812 125.457031 C 160.742188 124.929688 160.820312 123.992188 161.628906 123.691406 C 165.3125 122.324219 169.0625 121.449219 172.953125 121.21875 C 172.292969 119.589844 172.703125 117.480469 174.019531 116.328125 C 173.386719 115.808594 172.890625 115.179688 172.605469 114.433594 C 172.390625 113.878906 172.664062 113.453125 173.070312 113.269531 C 173.128906 113.210938 173.191406 113.15625 173.269531 113.097656 C 173.835938 112.78125 174.164062 112.355469 174.289062 111.820312 C 173.402344 111.796875 172.507812 111.773438 171.621094 111.773438 C 171.328125 111.773438 171.097656 111.664062 170.925781 111.519531 C 170.472656 111.347656 170.125 110.910156 170.347656 110.300781 C 170.78125 109.046875 170.722656 107.734375 170.722656 106.417969 C 170.722656 106.042969 170.878906 105.777344 171.113281 105.605469 C 171.28125 105.316406 171.585938 105.117188 172.023438 105.117188 C 172.5625 105.117188 173.523438 105.121094 174.445312 105.058594 C 174.191406 104.210938 173.863281 103.382812 173.558594 102.554688 C 173.519531 102.4375 173.5 102.347656 173.496094 102.261719 C 173.300781 101.714844 173.460938 101.0625 174.183594 100.941406 C 175.144531 100.765625 176.332031 100.78125 177.28125 100.402344 C 176.90625 99.792969 176.773438 99.003906 176.941406 98.214844 C 177.273438 96.636719 178.757812 95.753906 180.289062 95.652344 C 181.761719 95.578125 183.277344 96.132812 183.824219 97.597656 C 184.199219 98.589844 183.960938 99.671875 183.375 100.511719 C 184.085938 100.828125 185.152344 100.820312 185.757812 100.941406 C 185.980469 100.984375 186.160156 101.082031 186.285156 101.214844 C 186.734375 101.476562 186.972656 102.019531 186.578125 102.558594 C 186.113281 103.210938 185.332031 104.234375 185.289062 105.058594 C 185.433594 105.074219 185.609375 105.058594 185.757812 105.023438 C 186.210938 104.921875 186.648438 104.773438 187.089844 104.621094 C 187.734375 104.390625 188.191406 104.773438 188.34375 105.277344 C 188.519531 105.449219 188.632812 105.691406 188.632812 106.011719 C 188.621094 107.863281 188.523438 109.734375 188.691406 111.589844 C 188.753906 112.324219 187.953125 112.746094 187.328125 112.625 C 186.839844 112.519531 186.355469 112.308594 185.878906 112.160156 C 185.757812 112.121094 185.632812 112.089844 185.507812 112.050781 C 185.640625 112.640625 185.953125 113.171875 186.550781 113.453125 C 187.097656 113.722656 187.195312 114.230469 187.027344 114.652344 C 187.015625 114.800781 186.972656 114.945312 186.878906 115.105469 C 186.660156 115.472656 186.371094 115.808594 186.039062 116.105469 C 187.585938 117.199219 188.097656 119.480469 187.382812 121.21875 C 191.285156 121.449219 195.035156 122.324219 198.714844 123.691406 C 199.527344 123.992188 199.59375 124.929688 199.214844 125.457031 C 199.179688 125.539062 199.136719 125.636719 199.066406 125.707031 C 195.546875 130.246094 195.359375 136.34375 193.25 141.554688 C 194.414062 142.003906 195.222656 143.105469 195.074219 144.472656 C 194.929688 145.835938 194.011719 146.734375 192.828125 146.941406 C 192.828125 147.238281 192.808594 147.539062 192.796875 147.859375 C 193.855469 147.875 194.988281 148.179688 195.644531 149.019531 C 196.464844 150.0625 196.597656 151.28125 196.222656 152.5 C 198.9375 153.054688 200.921875 155.5625 199.71875 158.476562 C 198.617188 161.128906 195.996094 161.410156 193.441406 161.433594 C 192.902344 165.421875 190.835938 169.011719 190.601562 173.085938 C 190.320312 177.652344 190.789062 182.144531 191.296875 186.667969 C 191.429688 187.871094 191.546875 189.085938 191.675781 190.304688 C 199.433594 193.234375 208.101562 194.261719 216.441406 195.710938 C 216.441406 195.683594 219.160156 192.636719 219.636719 192.390625 C 221.738281 191.308594 224.660156 190.980469 226.707031 192.273438 C 227.648438 192.867188 229.46875 197.71875 229.097656 197.71875 " fill-opacity="1" fill-rule="nonzero"/></g><g fill="#000000" fill-opacity="1"><g transform="translate(140.491358, 282.278917)"><g><path d="M 7.484375 -24.875 L 7.484375 -4.96875 L 16.046875 -4.96875 L 16.046875 0 L 1.8125 0 L 1.8125 -24.875 Z M 7.484375 -24.875 "/></g></g></g><g fill="#000000" fill-opacity="1"><g transform="translate(157.520853, 282.278917)"><g><path d="M 3.265625 -1.828125 C 1.546875 -3.359375 0.6875 -5.320312 0.6875 -7.71875 C 0.6875 -10.113281 1.582031 -12.078125 3.375 -13.609375 C 5.164062 -15.148438 7.378906 -15.921875 10.015625 -15.921875 C 12.609375 -15.921875 14.789062 -15.144531 16.5625 -13.59375 C 18.34375 -12.050781 19.234375 -10.09375 19.234375 -7.71875 C 19.234375 -5.34375 18.363281 -3.382812 16.625 -1.84375 C 14.882812 -0.3125 12.679688 0.453125 10.015625 0.453125 C 7.234375 0.453125 4.984375 -0.304688 3.265625 -1.828125 Z M 7.390625 -10.34375 C 6.703125 -9.65625 6.359375 -8.78125 6.359375 -7.71875 C 6.359375 -6.65625 6.691406 -5.785156 7.359375 -5.109375 C 8.023438 -4.429688 8.898438 -4.09375 9.984375 -4.09375 C 11.023438 -4.09375 11.878906 -4.4375 12.546875 -5.125 C 13.222656 -5.8125 13.5625 -6.675781 13.5625 -7.71875 C 13.5625 -8.78125 13.210938 -9.65625 12.515625 -10.34375 C 11.828125 -11.03125 10.984375 -11.375 9.984375 -11.375 C 8.953125 -11.375 8.085938 -11.03125 7.390625 -10.34375 Z M 7.390625 -10.34375 "/></g></g></g><g fill="#000000" fill-opacity="1"><g transform="translate(177.443847, 282.278917)"><g><path d="M 2.859375 -1.90625 C 1.410156 -3.488281 0.6875 -5.425781 0.6875 -7.71875 C 0.6875 -10.007812 1.410156 -11.945312 2.859375 -13.53125 C 4.304688 -15.125 6.148438 -15.921875 8.390625 -15.921875 C 10.429688 -15.921875 12.117188 -15.28125 13.453125 -14 L 13.453125 -15.46875 L 18.78125 -15.46875 L 18.78125 0 L 13.515625 0 L 13.515625 -1.75 L 13.453125 -1.75 C 12.117188 -0.28125 10.429688 0.453125 8.390625 0.453125 C 6.148438 0.453125 4.304688 -0.332031 2.859375 -1.90625 Z M 7.390625 -10.34375 C 6.703125 -9.65625 6.359375 -8.78125 6.359375 -7.71875 C 6.359375 -6.65625 6.691406 -5.785156 7.359375 -5.109375 C 8.023438 -4.429688 8.898438 -4.09375 9.984375 -4.09375 C 11.023438 -4.09375 11.878906 -4.4375 12.546875 -5.125 C 13.222656 -5.8125 13.5625 -6.675781 13.5625 -7.71875 C 13.5625 -8.78125 13.210938 -9.65625 12.515625 -10.34375 C 11.828125 -11.03125 10.984375 -11.375 9.984375 -11.375 C 8.953125 -11.375 8.085938 -11.03125 7.390625 -10.34375 Z M 7.390625 -10.34375 "/></g></g></g><g fill="#000000" fill-opacity="1"><g transform="translate(198.029947, 282.278917)"><g><path d="M 1.8125 0 L 1.8125 -15.46875 L 7.140625 -15.46875 L 7.140625 -13.84375 L 7.203125 -13.84375 C 8.585938 -15.226562 10.066406 -15.921875 11.640625 -15.921875 C 12.398438 -15.921875 13.15625 -15.816406 13.90625 -15.609375 C 14.664062 -15.410156 15.390625 -15.097656 16.078125 -14.671875 C 16.773438 -14.253906 17.335938 -13.660156 17.765625 -12.890625 C 18.203125 -12.117188 18.421875 -11.21875 18.421875 -10.1875 L 18.421875 0 L 13.09375 0 L 13.09375 -8.75 C 13.09375 -9.550781 12.832031 -10.253906 12.3125 -10.859375 C 11.800781 -11.460938 11.132812 -11.765625 10.3125 -11.765625 C 9.507812 -11.765625 8.78125 -11.453125 8.125 -10.828125 C 7.46875 -10.203125 7.140625 -9.507812 7.140625 -8.75 L 7.140625 0 Z M 1.8125 0 "/></g></g></g><g fill="#000000" fill-opacity="1"><g transform="translate(91.506986, 324.278914)"><g><path d="M 15.046875 -5.125 C 15.910156 -5.125 16.75 -5.253906 17.5625 -5.515625 C 18.375 -5.773438 18.972656 -6.023438 19.359375 -6.265625 L 19.9375 -6.671875 L 22.34375 -1.84375 C 22.257812 -1.78125 22.144531 -1.695312 22 -1.59375 C 21.863281 -1.5 21.539062 -1.316406 21.03125 -1.046875 C 20.519531 -0.773438 19.972656 -0.535156 19.390625 -0.328125 C 18.804688 -0.128906 18.039062 0.046875 17.09375 0.203125 C 16.15625 0.367188 15.179688 0.453125 14.171875 0.453125 C 11.859375 0.453125 9.664062 -0.113281 7.59375 -1.25 C 5.53125 -2.382812 3.863281 -3.945312 2.59375 -5.9375 C 1.320312 -7.925781 0.6875 -10.078125 0.6875 -12.390625 C 0.6875 -14.140625 1.054688 -15.816406 1.796875 -17.421875 C 2.546875 -19.035156 3.539062 -20.414062 4.78125 -21.5625 C 6.019531 -22.707031 7.460938 -23.617188 9.109375 -24.296875 C 10.753906 -24.984375 12.441406 -25.328125 14.171875 -25.328125 C 15.773438 -25.328125 17.253906 -25.132812 18.609375 -24.75 C 19.972656 -24.375 20.9375 -23.992188 21.5 -23.609375 L 22.34375 -23.046875 L 19.9375 -18.21875 C 19.789062 -18.332031 19.578125 -18.472656 19.296875 -18.640625 C 19.015625 -18.816406 18.453125 -19.046875 17.609375 -19.328125 C 16.765625 -19.609375 15.910156 -19.75 15.046875 -19.75 C 13.679688 -19.75 12.453125 -19.523438 11.359375 -19.078125 C 10.273438 -18.640625 9.414062 -18.054688 8.78125 -17.328125 C 8.15625 -16.609375 7.675781 -15.832031 7.34375 -15 C 7.007812 -14.164062 6.84375 -13.316406 6.84375 -12.453125 C 6.84375 -10.566406 7.550781 -8.875 8.96875 -7.375 C 10.382812 -5.875 12.410156 -5.125 15.046875 -5.125 Z M 15.046875 -5.125 "/></g></g></g><g fill="#000000" fill-opacity="1"><g transform="translate(114.202931, 324.278914)"><g><path d="M 1.8125 0 L 1.8125 -25.9375 L 7.140625 -25.9375 L 7.140625 -13.84375 L 7.203125 -13.84375 C 8.585938 -15.226562 10.066406 -15.921875 11.640625 -15.921875 C 12.398438 -15.921875 13.15625 -15.816406 13.90625 -15.609375 C 14.664062 -15.410156 15.390625 -15.097656 16.078125 -14.671875 C 16.773438 -14.253906 17.335938 -13.660156 17.765625 -12.890625 C 18.203125 -12.117188 18.421875 -11.21875 18.421875 -10.1875 L 18.421875 0 L 13.09375 0 L 13.09375 -8.75 C 13.09375 -9.550781 12.832031 -10.253906 12.3125 -10.859375 C 11.800781 -11.460938 11.132812 -11.765625 10.3125 -11.765625 C 9.507812 -11.765625 8.78125 -11.453125 8.125 -10.828125 C 7.46875 -10.203125 7.140625 -9.507812 7.140625 -8.75 L 7.140625 0 Z M 1.8125 0 "/></g></g></g><g fill="#000000" fill-opacity="1"><g transform="translate(134.125926, 324.278914)"><g><path d="M 17.453125 -7 L 6.25 -7 C 6.25 -5.914062 6.597656 -5.109375 7.296875 -4.578125 C 8.003906 -4.054688 8.769531 -3.796875 9.59375 -3.796875 C 10.457031 -3.796875 11.140625 -3.910156 11.640625 -4.140625 C 12.140625 -4.378906 12.710938 -4.835938 13.359375 -5.515625 L 17.21875 -3.59375 C 15.613281 -0.894531 12.941406 0.453125 9.203125 0.453125 C 6.867188 0.453125 4.863281 -0.34375 3.1875 -1.9375 C 1.519531 -3.539062 0.6875 -5.46875 0.6875 -7.71875 C 0.6875 -9.96875 1.519531 -11.894531 3.1875 -13.5 C 4.863281 -15.113281 6.867188 -15.921875 9.203125 -15.921875 C 11.648438 -15.921875 13.640625 -15.210938 15.171875 -13.796875 C 16.710938 -12.378906 17.484375 -10.351562 17.484375 -7.71875 C 17.484375 -7.351562 17.472656 -7.113281 17.453125 -7 Z M 6.390625 -9.953125 L 12.28125 -9.953125 C 12.15625 -10.753906 11.832031 -11.367188 11.3125 -11.796875 C 10.800781 -12.234375 10.144531 -12.453125 9.34375 -12.453125 C 8.457031 -12.453125 7.753906 -12.21875 7.234375 -11.75 C 6.710938 -11.289062 6.429688 -10.691406 6.390625 -9.953125 Z M 6.390625 -9.953125 "/></g></g></g><g fill="#000000" fill-opacity="1"><g transform="translate(152.300767, 324.278914)"><g><path d="M 10.046875 -11.546875 C 9.035156 -11.546875 8.164062 -11.171875 7.4375 -10.421875 C 6.71875 -9.679688 6.359375 -8.789062 6.359375 -7.75 C 6.359375 -6.6875 6.71875 -5.78125 7.4375 -5.03125 C 8.164062 -4.289062 9.035156 -3.921875 10.046875 -3.921875 C 10.523438 -3.921875 10.976562 -3.976562 11.40625 -4.09375 C 11.84375 -4.21875 12.160156 -4.34375 12.359375 -4.46875 L 12.640625 -4.640625 L 14.4375 -0.9375 C 14.300781 -0.832031 14.109375 -0.703125 13.859375 -0.546875 C 13.609375 -0.398438 13.035156 -0.195312 12.140625 0.0625 C 11.242188 0.320312 10.285156 0.453125 9.265625 0.453125 C 6.984375 0.453125 4.984375 -0.34375 3.265625 -1.9375 C 1.546875 -3.539062 0.6875 -5.457031 0.6875 -7.6875 C 0.6875 -9.9375 1.546875 -11.867188 3.265625 -13.484375 C 4.984375 -15.109375 6.984375 -15.921875 9.265625 -15.921875 C 10.285156 -15.921875 11.226562 -15.800781 12.09375 -15.5625 C 12.957031 -15.320312 13.570312 -15.082031 13.9375 -14.84375 L 14.4375 -14.46875 L 12.640625 -10.828125 C 11.972656 -11.304688 11.109375 -11.546875 10.046875 -11.546875 Z M 10.046875 -11.546875 "/></g></g></g><g fill="#000000" fill-opacity="1"><g transform="translate(167.099854, 324.278914)"><g><path d="M 19.484375 -15.46875 L 12.125 -8.078125 L 20.203125 0 L 13.328125 0 L 7.140625 -6.1875 L 7.140625 0 L 1.8125 0 L 1.8125 -25.9375 L 7.140625 -25.9375 L 7.140625 -10.078125 L 12.546875 -15.46875 Z M 19.484375 -15.46875 "/></g></g></g><g fill="#000000" fill-opacity="1"><g transform="translate(186.570739, 324.278914)"><g><path d="M 1.8125 0 L 1.8125 -15.46875 L 7.140625 -15.46875 L 7.140625 -13.84375 L 7.203125 -13.84375 C 8.585938 -15.226562 10.066406 -15.921875 11.640625 -15.921875 C 12.765625 -15.921875 13.816406 -15.6875 14.796875 -15.21875 C 15.785156 -14.757812 16.53125 -14.050781 17.03125 -13.09375 C 18.601562 -14.976562 20.316406 -15.921875 22.171875 -15.921875 C 23.816406 -15.921875 25.234375 -15.457031 26.421875 -14.53125 C 27.609375 -13.601562 28.203125 -12.15625 28.203125 -10.1875 L 28.203125 0 L 22.859375 0 L 22.859375 -8.75 C 22.859375 -9.570312 22.628906 -10.257812 22.171875 -10.8125 C 21.722656 -11.363281 21.046875 -11.640625 20.140625 -11.640625 C 19.359375 -11.640625 18.757812 -11.398438 18.34375 -10.921875 C 17.9375 -10.453125 17.710938 -9.890625 17.671875 -9.234375 L 17.671875 0 L 12.328125 0 L 12.328125 -8.75 C 12.328125 -9.570312 12.101562 -10.257812 11.65625 -10.8125 C 11.207031 -11.363281 10.53125 -11.640625 9.625 -11.640625 C 8.800781 -11.640625 8.179688 -11.382812 7.765625 -10.875 C 7.347656 -10.363281 7.140625 -9.753906 7.140625 -9.046875 L 7.140625 0 Z M 1.8125 0 "/></g></g></g><g fill="#000000" fill-opacity="1"><g transform="translate(216.259321, 324.278914)"><g><path d="M 2.859375 -1.90625 C 1.410156 -3.488281 0.6875 -5.425781 0.6875 -7.71875 C 0.6875 -10.007812 1.410156 -11.945312 2.859375 -13.53125 C 4.304688 -15.125 6.148438 -15.921875 8.390625 -15.921875 C 10.429688 -15.921875 12.117188 -15.28125 13.453125 -14 L 13.453125 -15.46875 L 18.78125 -15.46875 L 18.78125 0 L 13.515625 0 L 13.515625 -1.75 L 13.453125 -1.75 C 12.117188 -0.28125 10.429688 0.453125 8.390625 0.453125 C 6.148438 0.453125 4.304688 -0.332031 2.859375 -1.90625 Z M 7.390625 -10.34375 C 6.703125 -9.65625 6.359375 -8.78125 6.359375 -7.71875 C 6.359375 -6.65625 6.691406 -5.785156 7.359375 -5.109375 C 8.023438 -4.429688 8.898438 -4.09375 9.984375 -4.09375 C 11.023438 -4.09375 11.878906 -4.4375 12.546875 -5.125 C 13.222656 -5.8125 13.5625 -6.675781 13.5625 -7.71875 C 13.5625 -8.78125 13.210938 -9.65625 12.515625 -10.34375 C 11.828125 -11.03125 10.984375 -11.375 9.984375 -11.375 C 8.953125 -11.375 8.085938 -11.03125 7.390625 -10.34375 Z M 7.390625 -10.34375 "/></g></g></g><g fill="#000000" fill-opacity="1"><g transform="translate(236.845421, 324.278914)"><g><path d="M 2.71875 -15.46875 L 2.71875 -21.234375 L 8.046875 -21.234375 L 8.046875 -15.46875 L 11.3125 -15.46875 L 11.3125 -11.40625 L 8.046875 -11.40625 L 8.046875 -6.484375 C 8.046875 -5.054688 8.453125 -4.34375 9.265625 -4.34375 C 9.460938 -4.34375 9.671875 -4.378906 9.890625 -4.453125 C 10.109375 -4.535156 10.28125 -4.617188 10.40625 -4.703125 L 10.578125 -4.828125 L 11.90625 -0.515625 C 10.757812 0.128906 9.453125 0.453125 7.984375 0.453125 C 6.984375 0.453125 6.117188 0.273438 5.390625 -0.078125 C 4.671875 -0.429688 4.125 -0.898438 3.75 -1.484375 C 3.382812 -2.078125 3.117188 -2.703125 2.953125 -3.359375 C 2.796875 -4.015625 2.71875 -4.710938 2.71875 -5.453125 L 2.71875 -11.40625 L 0.484375 -11.40625 L 0.484375 -15.46875 Z M 2.71875 -15.46875 "/></g></g></g><g fill="#000000" fill-opacity="1"><g transform="translate(248.750995, 324.278914)"><g><path d="M 17.453125 -7 L 6.25 -7 C 6.25 -5.914062 6.597656 -5.109375 7.296875 -4.578125 C 8.003906 -4.054688 8.769531 -3.796875 9.59375 -3.796875 C 10.457031 -3.796875 11.140625 -3.910156 11.640625 -4.140625 C 12.140625 -4.378906 12.710938 -4.835938 13.359375 -5.515625 L 17.21875 -3.59375 C 15.613281 -0.894531 12.941406 0.453125 9.203125 0.453125 C 6.867188 0.453125 4.863281 -0.34375 3.1875 -1.9375 C 1.519531 -3.539062 0.6875 -5.46875 0.6875 -7.71875 C 0.6875 -9.96875 1.519531 -11.894531 3.1875 -13.5 C 4.863281 -15.113281 6.867188 -15.921875 9.203125 -15.921875 C 11.648438 -15.921875 13.640625 -15.210938 15.171875 -13.796875 C 16.710938 -12.378906 17.484375 -10.351562 17.484375 -7.71875 C 17.484375 -7.351562 17.472656 -7.113281 17.453125 -7 Z M 6.390625 -9.953125 L 12.28125 -9.953125 C 12.15625 -10.753906 11.832031 -11.367188 11.3125 -11.796875 C 10.800781 -12.234375 10.144531 -12.453125 9.34375 -12.453125 C 8.457031 -12.453125 7.753906 -12.21875 7.234375 -11.75 C 6.710938 -11.289062 6.429688 -10.691406 6.390625 -9.953125 Z M 6.390625 -9.953125 "/></g></g></g></svg>