<svg xmlns="http://www.w3.org/2000/svg" xmlns:xlink="http://www.w3.org/1999/xlink" width="500" zoomAndPan="magnify" viewBox="0 0 375 374.999991" height="500" preserveAspectRatio="xMidYMid meet" version="1.0"><defs><g/><clipPath id="841eec10c3"><path d="M 173 76.34375 L 179 76.34375 L 179 91 L 173 91 Z M 173 76.34375 " clip-rule="nonzero"/></clipPath><clipPath id="f54c2efeee"><path d="M 225 189 L 231 189 L 231 203.84375 L 225 203.84375 Z M 225 189 " clip-rule="nonzero"/></clipPath><clipPath id="8c1a2144e9"><path d="M 128.246094 79.039062 L 248.761719 79.039062 L 248.761719 199.257812 L 128.246094 199.257812 Z M 128.246094 79.039062 " clip-rule="nonzero"/></clipPath><clipPath id="9ed270b512"><path d="M 126.515625 161 L 166 161 L 166 201 L 126.515625 201 Z M 126.515625 161 " clip-rule="nonzero"/></clipPath><clipPath id="c3e25b1929"><path d="M 168 76.34375 L 183 76.34375 L 183 91 L 168 91 Z M 168 76.34375 " clip-rule="nonzero"/></clipPath><clipPath id="da51a1a715"><path d="M 220 189 L 235 189 L 235 203.84375 L 220 203.84375 Z M 220 189 " clip-rule="nonzero"/></clipPath></defs><rect x="-37.5" width="450" fill="#ffffff" y="-37.499999" height="449.999989" fill-opacity="1"/><rect x="-37.5" width="450" fill="#545454" y="-37.499999" height="449.999989" fill-opacity="1"/><path fill="#d8d4d3" d="M 243.003906 111.898438 C 240.210938 121.863281 235.144531 132.726562 226.078125 141.769531 C 223.898438 143.941406 221.484375 146.019531 218.902344 147.953125 C 210.097656 154.636719 199.539062 159.832031 190.351562 162.898438 C 187.582031 163.84375 184.929688 164.578125 182.515625 165.097656 C 182.445312 164.742188 182.351562 164.433594 182.257812 164.105469 C 181.996094 163.089844 181.6875 162.097656 181.308594 161.152344 C 180.03125 157.800781 178.089844 154.753906 175.484375 152.15625 C 172.125 148.804688 168.003906 146.5625 163.507812 145.402344 C 163.175781 145.3125 162.867188 145.214844 162.511719 145.144531 C 163.03125 142.738281 163.765625 140.09375 164.710938 137.328125 C 167.789062 128.167969 173 117.636719 179.699219 108.855469 C 181.640625 106.28125 183.722656 103.871094 185.902344 101.699219 C 194.96875 92.65625 205.859375 87.605469 215.851562 84.820312 C 225.082031 82.222656 233.582031 81.535156 239.214844 81.464844 C 243.546875 81.394531 246.175781 81.65625 246.175781 81.65625 C 246.175781 81.65625 247.621094 95.609375 243.003906 111.898438 " fill-opacity="1" fill-rule="nonzero"/><path fill="#e4e4e3" d="M 235.902344 109.539062 C 233.109375 119.503906 228.042969 130.363281 218.976562 139.40625 C 216.796875 141.578125 214.382812 143.65625 211.800781 145.59375 C 202.996094 152.277344 192.433594 157.46875 183.25 160.539062 C 182.585938 160.753906 181.949219 160.964844 181.308594 161.152344 C 180.03125 157.800781 178.089844 154.753906 175.484375 152.15625 C 172.125 148.804688 168.003906 146.5625 163.507812 145.402344 C 163.175781 145.3125 162.867188 145.214844 162.511719 145.144531 C 163.03125 142.738281 163.765625 140.09375 164.710938 137.328125 C 167.789062 128.167969 173 117.636719 179.699219 108.855469 C 181.640625 106.28125 183.722656 103.871094 185.902344 101.699219 C 194.96875 92.65625 205.859375 87.605469 215.851562 84.820312 C 225.082031 82.222656 233.582031 81.535156 239.214844 81.464844 C 239.429688 85.976562 239.429688 97.074219 235.902344 109.539062 " fill-opacity="1" fill-rule="nonzero"/><path fill="#f5f6f5" d="M 175.433594 139.917969 L 171.039062 138.167969 C 171.679688 136.566406 172.375 134.941406 173.125 133.304688 L 177.429688 135.269531 C 176.710938 136.832031 176.046875 138.386719 175.433594 139.917969 " fill-opacity="1" fill-rule="nonzero"/><path fill="#f5f6f5" d="M 179.425781 131.144531 L 175.210938 129 C 177.988281 123.5625 181.117188 118.550781 184.507812 114.105469 L 185.5 112.777344 C 186.671875 111.199219 187.378906 110.242188 189.257812 108.371094 L 192.605469 111.710938 C 190.976562 113.332031 190.453125 114.039062 189.308594 115.585938 L 188.285156 116.953125 C 185.058594 121.1875 182.082031 125.957031 179.425781 131.144531 " fill-opacity="1" fill-rule="nonzero"/><path fill="#e91c45" d="M 182.257812 164.105469 L 172.523438 168.472656 L 159.125 155.109375 L 159.859375 153.480469 L 163.507812 145.402344 C 168.003906 146.5625 172.125 148.804688 175.484375 152.15625 C 176.8125 153.480469 177.972656 154.945312 178.941406 156.476562 C 180.457031 158.839844 181.546875 161.390625 182.257812 164.105469 " fill-opacity="1" fill-rule="nonzero"/><path fill="#ee205c" d="M 179.886719 159.382812 L 170.160156 163.75 L 159.859375 153.480469 L 163.507812 145.402344 C 168.003906 146.5625 172.125 148.804688 175.484375 152.15625 C 176.8125 153.480469 177.972656 154.945312 178.941406 156.476562 C 179.320312 157.421875 179.628906 158.390625 179.886719 159.382812 " fill-opacity="1" fill-rule="nonzero"/><path fill="#e91c45" d="M 164.714844 137.320312 L 157.449219 130.074219 L 130.667969 140.09375 L 155.777344 108.371094 L 179.210938 108.371094 L 179.695312 108.855469 C 173 117.636719 167.796875 128.171875 164.714844 137.320312 " fill-opacity="1" fill-rule="nonzero"/><path fill="#e91c45" d="M 219.390625 171.8125 L 187.582031 196.855469 L 197.625 170.144531 L 190.363281 162.898438 C 199.535156 159.828125 210.097656 154.632812 218.902344 147.957031 L 219.390625 148.441406 L 219.390625 171.8125 " fill-opacity="1" fill-rule="nonzero"/><path fill="#52c6ed" d="M 222.738281 125.074219 C 217.199219 130.601562 208.203125 130.601562 202.640625 125.074219 C 202.261719 124.699219 201.929688 124.320312 201.621094 123.917969 C 197.125 118.347656 197.476562 110.175781 202.640625 105.03125 C 207.351562 100.355469 214.5 99.644531 219.945312 102.878906 C 220.941406 103.445312 221.886719 104.179688 222.738281 105.03125 C 228.277344 110.554688 228.277344 119.527344 222.738281 125.074219 " fill-opacity="1" fill-rule="nonzero"/><path fill="#5fcbe7" d="M 218.925781 121.769531 C 214.238281 126.46875 207.066406 127.175781 201.621094 123.917969 C 197.125 118.347656 197.476562 110.175781 202.640625 105.03125 C 207.351562 100.355469 214.5 99.644531 219.945312 102.878906 C 224.46875 108.453125 224.109375 116.621094 218.925781 121.769531 " fill-opacity="1" fill-rule="nonzero"/><path fill="#e91c45" d="M 243.003906 111.898438 L 215.851562 84.820312 C 226.527344 81.796875 236.234375 81.371094 241.628906 81.441406 C 244.496094 81.488281 246.175781 81.65625 246.175781 81.65625 C 246.175781 81.65625 247.621094 95.609375 243.003906 111.898438 " fill-opacity="1" fill-rule="nonzero"/><path fill="#ee205c" d="M 238.269531 107.179688 L 215.851562 84.820312 C 226.527344 81.796875 236.234375 81.371094 241.628906 81.441406 C 241.726562 86.824219 241.300781 96.507812 238.269531 107.179688 " fill-opacity="1" fill-rule="nonzero"/><path fill="#f14621" d="M 159.125 188.507812 C 153.578125 194.042969 128.992188 198.527344 128.992188 198.527344 C 128.992188 198.527344 133.488281 174.007812 139.035156 168.472656 C 144.582031 162.941406 153.578125 162.941406 159.125 168.472656 C 164.671875 174.007812 164.671875 182.976562 159.125 188.507812 " fill-opacity="1" fill-rule="nonzero"/><path fill="#f25a48" d="M 141.65625 185.890625 C 143.179688 180.570312 144.746094 176.386719 145.847656 175.027344 C 146.9375 173.949219 148.347656 173.769531 149.078125 173.769531 C 149.8125 173.769531 151.222656 173.949219 152.429688 175.152344 C 154.273438 176.992188 154.273438 179.988281 152.429688 181.832031 C 151.160156 182.847656 146.964844 184.382812 141.65625 185.890625 " fill-opacity="1" fill-rule="nonzero"/><g clip-path="url(#841eec10c3)"><path fill="#f68714" d="M 178.113281 90.507812 L 173.378906 90.507812 L 173.378906 76.34375 L 178.113281 76.34375 L 178.113281 90.507812 " fill-opacity="1" fill-rule="nonzero"/></g><path fill="#f68714" d="M 182.847656 85.785156 L 168.644531 85.785156 L 168.644531 81.066406 L 182.847656 81.066406 L 182.847656 85.785156 " fill-opacity="1" fill-rule="nonzero"/><g clip-path="url(#f54c2efeee)"><path fill="#f68714" d="M 230.195312 203.84375 L 225.460938 203.84375 L 225.460938 189.675781 L 230.195312 189.675781 L 230.195312 203.84375 " fill-opacity="1" fill-rule="nonzero"/></g><path fill="#f68714" d="M 234.929688 199.121094 L 220.726562 199.121094 L 220.726562 194.398438 L 234.929688 194.398438 L 234.929688 199.121094 " fill-opacity="1" fill-rule="nonzero"/><path fill="#f68714" d="M 147.335938 99.953125 L 142.601562 99.953125 L 142.601562 95.230469 L 147.335938 95.230469 L 147.335938 99.953125 " fill-opacity="1" fill-rule="nonzero"/><path fill="#f68714" d="M 246.769531 163.703125 L 242.03125 163.703125 L 242.03125 158.980469 L 246.769531 158.980469 L 246.769531 163.703125 " fill-opacity="1" fill-rule="nonzero"/><path fill="#f68714" d="M 133.132812 158.980469 L 128.394531 158.980469 L 128.394531 154.257812 L 133.132812 154.257812 L 133.132812 158.980469 " fill-opacity="1" fill-rule="nonzero"/><path fill="#f68714" d="M 175.746094 194.398438 L 171.011719 194.398438 L 171.011719 189.675781 L 175.746094 189.675781 L 175.746094 194.398438 " fill-opacity="1" fill-rule="nonzero"/><g clip-path="url(#8c1a2144e9)"><path fill="#100f0d" d="M 224.410156 140.09375 C 222.335938 142.160156 220.003906 144.171875 217.472656 146.074219 C 209.585938 152.054688 199.433594 157.371094 189.605469 160.660156 C 187.726562 161.292969 185.917969 161.828125 184.199219 162.265625 C 182.808594 157.730469 180.445312 153.777344 177.152344 150.492188 C 173.84375 147.195312 169.855469 144.828125 165.351562 143.46875 C 165.789062 141.75 166.328125 139.945312 166.960938 138.074219 C 170.257812 128.273438 175.589844 118.144531 181.589844 110.273438 C 183.492188 107.757812 185.507812 105.429688 187.582031 103.359375 C 194.875 96.089844 204.167969 90.769531 215.195312 87.492188 L 240.324219 112.554688 C 237.039062 123.546875 231.707031 132.816406 224.410156 140.09375 Z M 192.777344 189.753906 L 199.84375 170.972656 C 200.167969 170.105469 199.957031 169.128906 199.300781 168.472656 L 194.671875 163.859375 C 202.496094 160.898438 210.335938 156.816406 217.019531 152.222656 L 217.019531 170.667969 Z M 173.03125 165.652344 L 161.953125 154.601562 L 164.796875 148.304688 C 168.238281 149.488281 171.277344 151.3125 173.804688 153.832031 C 176.316406 156.339844 178.140625 159.355469 179.34375 162.816406 Z M 156.621094 127.863281 L 137.785156 134.910156 L 156.921875 110.734375 L 175.417969 110.734375 C 170.8125 117.402344 166.722656 125.222656 163.75 133.019531 L 159.125 128.40625 C 158.46875 127.75 157.488281 127.539062 156.621094 127.863281 Z M 243.945312 83.878906 C 244.113281 87.738281 244.144531 96.800781 241.738281 107.289062 L 220.476562 86.082031 C 230.992188 83.679688 240.078125 83.710938 243.945312 83.878906 Z M 246.417969 79.308594 C 245.820312 79.246094 231.78125 77.878906 215.21875 82.539062 C 202.824219 85.996094 192.398438 91.878906 184.234375 100.023438 C 182.410156 101.839844 180.652344 103.875 178.957031 106.011719 L 155.777344 106.011719 C 155.054688 106.011719 154.371094 106.339844 153.917969 106.90625 L 128.804688 138.628906 C 128.148438 139.460938 128.125 140.628906 128.753906 141.484375 C 129.207031 142.109375 129.925781 142.453125 130.664062 142.453125 C 130.941406 142.453125 131.226562 142.40625 131.496094 142.304688 L 156.855469 132.820312 L 162.03125 137.984375 C 161.289062 140.3125 160.65625 142.570312 160.207031 144.65625 C 160.085938 145.234375 160.203125 145.824219 160.496094 146.328125 L 156.964844 154.148438 C 156.5625 155.046875 156.753906 156.09375 157.449219 156.789062 L 170.839844 170.144531 C 171.292969 170.59375 171.898438 170.835938 172.515625 170.835938 C 172.84375 170.835938 173.175781 170.769531 173.484375 170.628906 L 181.320312 167.109375 C 181.6875 167.320312 182.09375 167.445312 182.511719 167.445312 C 182.675781 167.445312 182.839844 167.429688 183.003906 167.390625 C 185.097656 166.949219 187.359375 166.3125 189.695312 165.574219 L 194.875 170.738281 L 185.367188 196.03125 C 184.992188 197.019531 185.328125 198.140625 186.1875 198.765625 C 186.601562 199.070312 187.09375 199.21875 187.582031 199.21875 C 188.101562 199.21875 188.621094 199.046875 189.050781 198.710938 L 220.855469 173.667969 C 221.425781 173.21875 221.757812 172.535156 221.757812 171.8125 L 221.757812 148.691406 C 223.898438 147 225.9375 145.25 227.757812 143.429688 C 235.925781 135.285156 241.824219 124.890625 245.289062 112.53125 C 249.957031 96.011719 248.589844 82.003906 248.527344 81.414062 C 248.414062 80.304688 247.53125 79.421875 246.417969 79.308594 " fill-opacity="1" fill-rule="nonzero"/></g><path fill="#100f0d" d="M 171.039062 138.167969 L 175.433594 139.917969 C 176.046875 138.386719 176.710938 136.832031 177.429688 135.269531 L 173.125 133.304688 C 172.375 134.941406 171.679688 136.566406 171.039062 138.167969 " fill-opacity="1" fill-rule="nonzero"/><path fill="#100f0d" d="M 185.5 112.777344 L 184.507812 114.105469 C 181.117188 118.550781 177.988281 123.5625 175.210938 129 L 179.425781 131.144531 C 182.082031 125.957031 185.058594 121.1875 188.285156 116.953125 L 189.308594 115.585938 C 190.453125 114.039062 190.976562 113.332031 192.605469 111.710938 L 189.257812 108.371094 C 187.378906 110.242188 186.671875 111.199219 185.5 112.777344 " fill-opacity="1" fill-rule="nonzero"/><path fill="#100f0d" d="M 221.0625 123.398438 C 218.828125 125.625 215.855469 126.855469 212.691406 126.855469 C 209.53125 126.855469 206.558594 125.625 204.324219 123.398438 C 202.089844 121.167969 200.855469 118.203125 200.855469 115.050781 C 200.855469 111.894531 202.089844 108.929688 204.324219 106.699219 C 206.632812 104.398438 209.660156 103.25 212.691406 103.25 C 215.722656 103.25 218.757812 104.398438 221.0625 106.699219 C 225.679688 111.304688 225.679688 118.792969 221.0625 123.398438 Z M 224.410156 103.359375 C 217.949219 96.917969 207.4375 96.917969 200.976562 103.359375 C 197.84375 106.484375 196.121094 110.632812 196.121094 115.050781 C 196.121094 119.464844 197.84375 123.617188 200.976562 126.734375 C 204.101562 129.855469 208.265625 131.578125 212.691406 131.578125 C 217.121094 131.578125 221.28125 129.855469 224.410156 126.734375 C 230.871094 120.292969 230.871094 109.804688 224.410156 103.359375 " fill-opacity="1" fill-rule="nonzero"/><g clip-path="url(#9ed270b512)"><path fill="#100f0d" d="M 157.449219 186.839844 C 154.210938 190.066406 141.3125 193.597656 131.992188 195.535156 C 133.933594 186.238281 137.472656 173.375 140.710938 170.144531 C 143.019531 167.839844 146.046875 166.691406 149.078125 166.691406 C 152.109375 166.691406 155.144531 167.839844 157.449219 170.144531 C 162.066406 174.746094 162.066406 182.238281 157.449219 186.839844 Z M 137.363281 166.804688 C 131.460938 172.6875 127.136719 195.519531 126.664062 198.105469 C 126.523438 198.867188 126.765625 199.648438 127.316406 200.195312 C 127.765625 200.644531 128.367188 200.886719 128.992188 200.886719 C 129.132812 200.886719 129.277344 200.878906 129.417969 200.847656 C 132.007812 200.375 154.898438 196.0625 160.800781 190.179688 C 167.257812 183.734375 167.257812 173.25 160.800781 166.804688 C 154.335938 160.363281 143.824219 160.359375 137.363281 166.804688 " fill-opacity="1" fill-rule="nonzero"/></g><path fill="#100f0d" d="M 150.851562 180.058594 C 150.3125 180.425781 148.625 181.222656 145.226562 182.339844 C 146.359375 178.929688 147.191406 177.210938 147.609375 176.617188 C 148.144531 176.167969 148.863281 176.132812 149.078125 176.132812 C 149.449219 176.132812 150.152344 176.222656 150.753906 176.824219 C 151.644531 177.710938 151.675781 179.132812 150.851562 180.058594 Z M 149.078125 171.410156 C 148.199219 171.410156 145.957031 171.597656 144.183594 173.347656 C 144.121094 173.410156 144.0625 173.472656 144.007812 173.542969 C 142.375 175.550781 140.59375 181.011719 139.378906 185.242188 C 139.144531 186.0625 139.375 186.953125 139.984375 187.558594 C 140.433594 188.007812 141.039062 188.25 141.65625 188.25 C 141.875 188.25 142.09375 188.21875 142.304688 188.160156 C 146.546875 186.957031 152 185.203125 153.910156 183.671875 C 153.980469 183.617188 154.042969 183.5625 154.105469 183.5 C 156.871094 180.734375 156.871094 176.246094 154.101562 173.484375 C 152.292969 171.679688 150.179688 171.410156 149.078125 171.410156 " fill-opacity="1" fill-rule="nonzero"/><g clip-path="url(#c3e25b1929)"><path fill="#100f0d" d="M 173.378906 76.34375 L 173.378906 81.066406 L 168.644531 81.066406 L 168.644531 85.785156 L 173.378906 85.785156 L 173.378906 90.507812 L 178.113281 90.507812 L 178.113281 85.785156 L 182.847656 85.785156 L 182.847656 81.066406 L 178.113281 81.066406 L 178.113281 76.34375 L 173.378906 76.34375 " fill-opacity="1" fill-rule="nonzero"/></g><g clip-path="url(#da51a1a715)"><path fill="#100f0d" d="M 230.195312 189.675781 L 225.460938 189.675781 L 225.460938 194.398438 L 220.726562 194.398438 L 220.726562 199.121094 L 225.460938 199.121094 L 225.460938 203.84375 L 230.195312 203.84375 L 230.195312 199.121094 L 234.929688 199.121094 L 234.929688 194.398438 L 230.195312 194.398438 L 230.195312 189.675781 " fill-opacity="1" fill-rule="nonzero"/></g><path fill="#100f0d" d="M 142.601562 95.230469 L 142.601562 99.953125 L 147.335938 99.953125 L 147.335938 95.230469 L 142.601562 95.230469 " fill-opacity="1" fill-rule="nonzero"/><path fill="#100f0d" d="M 242.03125 163.703125 L 246.769531 163.703125 L 246.769531 158.980469 L 242.03125 158.980469 L 242.03125 163.703125 " fill-opacity="1" fill-rule="nonzero"/><path fill="#100f0d" d="M 128.394531 154.257812 L 128.394531 158.980469 L 133.132812 158.980469 L 133.132812 154.257812 L 128.394531 154.257812 " fill-opacity="1" fill-rule="nonzero"/><path fill="#100f0d" d="M 171.011719 194.398438 L 175.746094 194.398438 L 175.746094 189.675781 L 171.011719 189.675781 L 171.011719 194.398438 " fill-opacity="1" fill-rule="nonzero"/><g fill="#d9d9d9" fill-opacity="1"><g transform="translate(56.971058, 283.163302)"><g><path d="M 31.25 -25.21875 L 31.25 0 L 25.109375 0 L 25.109375 -14.21875 L 19.25 0 L 14.6875 0 L 8.84375 -14.21875 L 8.84375 0 L 2.6875 0 L 2.6875 -25.21875 L 9.734375 -25.21875 L 16.984375 -7.828125 L 24.21875 -25.21875 Z M 31.25 -25.21875 "/></g></g></g><g fill="#d9d9d9" fill-opacity="1"><g transform="translate(90.004338, 283.163302)"><g><path d="M 14.71875 -6.28125 C 15.539062 -7.144531 15.953125 -8.390625 15.953125 -10.015625 C 15.953125 -11.648438 15.53125 -12.890625 14.6875 -13.734375 C 13.851562 -14.585938 12.859375 -15.015625 11.703125 -15.015625 C 10.554688 -15.015625 9.566406 -14.585938 8.734375 -13.734375 C 7.910156 -12.890625 7.5 -11.648438 7.5 -10.015625 C 7.5 -8.390625 7.925781 -7.144531 8.78125 -6.28125 C 9.632812 -5.425781 10.632812 -5 11.78125 -5 C 12.925781 -5 13.90625 -5.425781 14.71875 -6.28125 Z M 4.28125 -2.578125 C 2.257812 -4.472656 1.25 -6.960938 1.25 -10.046875 C 1.25 -13.140625 2.253906 -15.613281 4.265625 -17.46875 C 6.285156 -19.332031 8.78125 -20.265625 11.75 -20.265625 C 14.71875 -20.265625 17.203125 -19.332031 19.203125 -17.46875 C 21.203125 -15.613281 22.203125 -13.140625 22.203125 -10.046875 C 22.203125 -6.960938 21.207031 -4.472656 19.21875 -2.578125 C 17.226562 -0.691406 14.75 0.25 11.78125 0.25 C 8.8125 0.25 6.3125 -0.691406 4.28125 -2.578125 Z M 4.28125 -2.578125 "/></g></g></g><g fill="#d9d9d9" fill-opacity="1"><g transform="translate(112.553011, 283.163302)"><g><path d="M 14.71875 -6.28125 C 15.539062 -7.144531 15.953125 -8.390625 15.953125 -10.015625 C 15.953125 -11.648438 15.53125 -12.890625 14.6875 -13.734375 C 13.851562 -14.585938 12.859375 -15.015625 11.703125 -15.015625 C 10.554688 -15.015625 9.566406 -14.585938 8.734375 -13.734375 C 7.910156 -12.890625 7.5 -11.648438 7.5 -10.015625 C 7.5 -8.390625 7.925781 -7.144531 8.78125 -6.28125 C 9.632812 -5.425781 10.632812 -5 11.78125 -5 C 12.925781 -5 13.90625 -5.425781 14.71875 -6.28125 Z M 4.28125 -2.578125 C 2.257812 -4.472656 1.25 -6.960938 1.25 -10.046875 C 1.25 -13.140625 2.253906 -15.613281 4.265625 -17.46875 C 6.285156 -19.332031 8.78125 -20.265625 11.75 -20.265625 C 14.71875 -20.265625 17.203125 -19.332031 19.203125 -17.46875 C 21.203125 -15.613281 22.203125 -13.140625 22.203125 -10.046875 C 22.203125 -6.960938 21.207031 -4.472656 19.21875 -2.578125 C 17.226562 -0.691406 14.75 0.25 11.78125 0.25 C 8.8125 0.25 6.3125 -0.691406 4.28125 -2.578125 Z M 4.28125 -2.578125 "/></g></g></g><g fill="#d9d9d9" fill-opacity="1"><g transform="translate(135.101686, 283.163302)"><g><path d="M 8.84375 -20.046875 L 8.84375 -17.09375 C 10.101562 -19.207031 12.125 -20.265625 14.90625 -20.265625 C 17.207031 -20.265625 19.066406 -19.492188 20.484375 -17.953125 C 21.910156 -16.421875 22.625 -14.335938 22.625 -11.703125 L 22.625 0 L 16.53125 0 L 16.53125 -10.890625 C 16.53125 -12.179688 16.1875 -13.175781 15.5 -13.875 C 14.8125 -14.582031 13.867188 -14.9375 12.671875 -14.9375 C 11.484375 -14.9375 10.546875 -14.582031 9.859375 -13.875 C 9.179688 -13.175781 8.84375 -12.179688 8.84375 -10.890625 L 8.84375 0 L 2.6875 0 L 2.6875 -20.046875 Z M 8.84375 -20.046875 "/></g></g></g><g fill="#d9d9d9" fill-opacity="1"><g transform="translate(159.337948, 283.163302)"><g/></g></g><g fill="#d9d9d9" fill-opacity="1"><g transform="translate(169.211727, 283.163302)"><g><path d="M 2.6875 -25.21875 L 8.84375 -25.21875 L 8.84375 -4.671875 L 16.484375 -4.671875 L 16.484375 0 L 2.6875 0 Z M 2.6875 -25.21875 "/></g></g></g><g fill="#d9d9d9" fill-opacity="1"><g transform="translate(185.512713, 283.163302)"><g><path d="M 14.90625 -6.359375 C 15.789062 -7.222656 16.234375 -8.441406 16.234375 -10.015625 C 16.234375 -11.597656 15.789062 -12.8125 14.90625 -13.65625 C 14.019531 -14.507812 13 -14.9375 11.84375 -14.9375 C 10.695312 -14.9375 9.679688 -14.503906 8.796875 -13.640625 C 7.910156 -12.785156 7.46875 -11.566406 7.46875 -9.984375 C 7.46875 -8.398438 7.910156 -7.179688 8.796875 -6.328125 C 9.679688 -5.484375 10.695312 -5.0625 11.84375 -5.0625 C 13 -5.0625 14.019531 -5.492188 14.90625 -6.359375 Z M 3.875 -2.625 C 2.101562 -4.539062 1.21875 -6.992188 1.21875 -9.984375 C 1.21875 -12.972656 2.101562 -15.429688 3.875 -17.359375 C 5.644531 -19.296875 7.804688 -20.265625 10.359375 -20.265625 C 12.910156 -20.265625 14.867188 -19.316406 16.234375 -17.421875 L 16.234375 -20.046875 L 22.375 -20.046875 L 22.375 0 L 16.234375 0 L 16.234375 -2.90625 C 14.753906 -0.800781 12.765625 0.25 10.265625 0.25 C 7.773438 0.25 5.644531 -0.707031 3.875 -2.625 Z M 3.875 -2.625 "/></g></g></g><g fill="#d9d9d9" fill-opacity="1"><g transform="translate(209.677164, 283.163302)"><g><path d="M 8.84375 -20.046875 L 8.84375 -17.09375 C 10.101562 -19.207031 12.125 -20.265625 14.90625 -20.265625 C 17.207031 -20.265625 19.066406 -19.492188 20.484375 -17.953125 C 21.910156 -16.421875 22.625 -14.335938 22.625 -11.703125 L 22.625 0 L 16.53125 0 L 16.53125 -10.890625 C 16.53125 -12.179688 16.1875 -13.175781 15.5 -13.875 C 14.8125 -14.582031 13.867188 -14.9375 12.671875 -14.9375 C 11.484375 -14.9375 10.546875 -14.582031 9.859375 -13.875 C 9.179688 -13.175781 8.84375 -12.179688 8.84375 -10.890625 L 8.84375 0 L 2.6875 0 L 2.6875 -20.046875 Z M 8.84375 -20.046875 "/></g></g></g><g fill="#d9d9d9" fill-opacity="1"><g transform="translate(233.913426, 283.163302)"><g><path d="M 14.90625 -6.359375 C 15.789062 -7.222656 16.234375 -8.441406 16.234375 -10.015625 C 16.234375 -11.597656 15.789062 -12.8125 14.90625 -13.65625 C 14.019531 -14.507812 13 -14.9375 11.84375 -14.9375 C 10.695312 -14.9375 9.679688 -14.503906 8.796875 -13.640625 C 7.910156 -12.785156 7.46875 -11.566406 7.46875 -9.984375 C 7.46875 -8.398438 7.910156 -7.179688 8.796875 -6.328125 C 9.679688 -5.484375 10.695312 -5.0625 11.84375 -5.0625 C 13 -5.0625 14.019531 -5.492188 14.90625 -6.359375 Z M 3.875 -2.625 C 2.101562 -4.539062 1.21875 -6.992188 1.21875 -9.984375 C 1.21875 -12.972656 2.101562 -15.429688 3.875 -17.359375 C 5.644531 -19.296875 7.804688 -20.265625 10.359375 -20.265625 C 12.910156 -20.265625 14.867188 -19.316406 16.234375 -17.421875 L 16.234375 -26.578125 L 22.375 -26.578125 L 22.375 0 L 16.234375 0 L 16.234375 -2.90625 C 14.753906 -0.800781 12.765625 0.25 10.265625 0.25 C 7.773438 0.25 5.644531 -0.707031 3.875 -2.625 Z M 3.875 -2.625 "/></g></g></g><g fill="#d9d9d9" fill-opacity="1"><g transform="translate(258.077887, 283.163302)"><g><path d="M 8.296875 -22.296875 C 7.597656 -21.609375 6.742188 -21.265625 5.734375 -21.265625 C 4.734375 -21.265625 3.882812 -21.609375 3.1875 -22.296875 C 2.5 -22.992188 2.15625 -23.851562 2.15625 -24.875 C 2.15625 -25.894531 2.5 -26.75 3.1875 -27.4375 C 3.882812 -28.132812 4.734375 -28.484375 5.734375 -28.484375 C 6.742188 -28.484375 7.597656 -28.132812 8.296875 -27.4375 C 8.992188 -26.75 9.34375 -25.894531 9.34375 -24.875 C 9.34375 -23.851562 8.992188 -22.992188 8.296875 -22.296875 Z M 2.6875 0 L 2.6875 -20.046875 L 8.84375 -20.046875 L 8.84375 0 Z M 2.6875 0 "/></g></g></g><g fill="#d9d9d9" fill-opacity="1"><g transform="translate(268.705717, 283.163302)"><g><path d="M 8.84375 -20.046875 L 8.84375 -17.09375 C 10.101562 -19.207031 12.125 -20.265625 14.90625 -20.265625 C 17.207031 -20.265625 19.066406 -19.492188 20.484375 -17.953125 C 21.910156 -16.421875 22.625 -14.335938 22.625 -11.703125 L 22.625 0 L 16.53125 0 L 16.53125 -10.890625 C 16.53125 -12.179688 16.1875 -13.175781 15.5 -13.875 C 14.8125 -14.582031 13.867188 -14.9375 12.671875 -14.9375 C 11.484375 -14.9375 10.546875 -14.582031 9.859375 -13.875 C 9.179688 -13.175781 8.84375 -12.179688 8.84375 -10.890625 L 8.84375 0 L 2.6875 0 L 2.6875 -20.046875 Z M 8.84375 -20.046875 "/></g></g></g><g fill="#d9d9d9" fill-opacity="1"><g transform="translate(292.94199, 283.163302)"><g><path d="M 3.875 -2.625 C 2.101562 -4.539062 1.21875 -6.992188 1.21875 -9.984375 C 1.21875 -12.972656 2.101562 -15.429688 3.875 -17.359375 C 5.644531 -19.296875 7.804688 -20.265625 10.359375 -20.265625 C 12.910156 -20.265625 14.867188 -19.316406 16.234375 -17.421875 L 16.234375 -20.046875 L 22.375 -20.046875 L 22.375 -0.109375 C 22.375 2.691406 21.609375 5.023438 20.078125 6.890625 C 19.316406 7.847656 18.269531 8.59375 16.9375 9.125 C 15.601562 9.65625 14.066406 9.921875 12.328125 9.921875 C 9.253906 9.921875 6.816406 9.296875 5.015625 8.046875 C 3.222656 6.796875 2.207031 4.890625 1.96875 2.328125 L 8.015625 2.328125 C 8.585938 3.835938 10.023438 4.59375 12.328125 4.59375 C 13.453125 4.59375 14.382812 4.210938 15.125 3.453125 C 15.863281 2.703125 16.234375 1.515625 16.234375 -0.109375 L 16.234375 -2.90625 C 14.753906 -0.800781 12.765625 0.25 10.265625 0.25 C 7.773438 0.25 5.644531 -0.707031 3.875 -2.625 Z M 14.90625 -6.359375 C 15.789062 -7.222656 16.234375 -8.441406 16.234375 -10.015625 C 16.234375 -11.597656 15.789062 -12.8125 14.90625 -13.65625 C 14.019531 -14.507812 13 -14.9375 11.84375 -14.9375 C 10.695312 -14.9375 9.679688 -14.503906 8.796875 -13.640625 C 7.910156 -12.785156 7.46875 -11.566406 7.46875 -9.984375 C 7.46875 -8.398438 7.910156 -7.179688 8.796875 -6.328125 C 9.679688 -5.484375 10.695312 -5.0625 11.84375 -5.0625 C 13 -5.0625 14.019531 -5.492188 14.90625 -6.359375 Z M 14.90625 -6.359375 "/></g></g></g></svg>