<svg xmlns="http://www.w3.org/2000/svg" xmlns:xlink="http://www.w3.org/1999/xlink" width="500" zoomAndPan="magnify" viewBox="0 0 375 374.999991" height="500" preserveAspectRatio="xMidYMid meet" version="1.0"><defs><g/><clipPath id="15ffdac604"><path d="M 150 79.039062 L 193 79.039062 L 193 115 L 150 115 Z M 150 79.039062 " clip-rule="nonzero"/></clipPath><clipPath id="9e7b708e51"><path d="M 114 129 L 187 129 L 187 201.289062 L 114 201.289062 Z M 114 129 " clip-rule="nonzero"/></clipPath></defs><rect x="-37.5" width="450" fill="#ffffff" y="-37.499999" height="449.999989" fill-opacity="1"/><rect x="-37.5" width="450" fill="#20c997" y="-37.499999" height="449.999989" fill-opacity="1"/><path fill="#000000" d="M 213.425781 169.539062 C 212.53125 169.542969 211.667969 169.371094 210.839844 169.03125 C 210.011719 168.691406 209.28125 168.203125 208.648438 167.570312 L 170.539062 129.574219 C 170.226562 129.261719 169.949219 128.921875 169.703125 128.554688 C 169.457031 128.1875 169.25 127.796875 169.078125 127.390625 C 168.910156 126.980469 168.78125 126.558594 168.695312 126.125 C 168.609375 125.691406 168.566406 125.253906 168.566406 124.8125 C 168.566406 124.371094 168.609375 123.933594 168.695312 123.5 C 168.78125 123.066406 168.910156 122.644531 169.078125 122.238281 C 169.25 121.828125 169.457031 121.441406 169.703125 121.074219 C 169.949219 120.703125 170.226562 120.363281 170.539062 120.050781 L 192.769531 97.890625 C 193.085938 97.578125 193.425781 97.296875 193.792969 97.054688 C 194.164062 96.808594 194.554688 96.601562 194.960938 96.433594 C 195.371094 96.261719 195.792969 96.136719 196.230469 96.050781 C 196.664062 95.964844 197.101562 95.921875 197.546875 95.921875 C 197.988281 95.921875 198.429688 95.964844 198.863281 96.050781 C 199.296875 96.136719 199.722656 96.261719 200.128906 96.433594 C 200.539062 96.601562 200.929688 96.808594 201.296875 97.054688 C 201.667969 97.296875 202.007812 97.578125 202.324219 97.890625 L 240.433594 135.878906 C 240.746094 136.191406 241.023438 136.53125 241.269531 136.898438 C 241.515625 137.265625 241.722656 137.65625 241.894531 138.0625 C 242.0625 138.472656 242.191406 138.894531 242.277344 139.328125 C 242.363281 139.761719 242.40625 140.199219 242.40625 140.640625 C 242.40625 141.082031 242.363281 141.519531 242.277344 141.953125 C 242.191406 142.386719 242.0625 142.808594 241.894531 143.214844 C 241.722656 143.625 241.515625 144.011719 241.269531 144.378906 C 241.023438 144.75 240.746094 145.089844 240.433594 145.402344 L 218.203125 167.566406 C 217.570312 168.199219 216.839844 168.6875 216.011719 169.027344 C 215.183594 169.371094 214.320312 169.542969 213.425781 169.539062 Z M 211.84375 164.382812 C 212.050781 164.589844 212.292969 164.75 212.566406 164.863281 C 212.839844 164.976562 213.125 165.03125 213.417969 165.03125 C 213.714844 165.03125 214 164.976562 214.273438 164.863281 C 214.546875 164.75 214.785156 164.589844 214.996094 164.382812 L 237.226562 142.21875 C 237.433594 142.007812 237.597656 141.769531 237.707031 141.496094 C 237.820312 141.222656 237.878906 140.941406 237.878906 140.644531 C 237.878906 140.351562 237.820312 140.066406 237.707031 139.792969 C 237.597656 139.523438 237.433594 139.28125 237.226562 139.074219 L 199.121094 101.078125 C 198.910156 100.871094 198.671875 100.710938 198.398438 100.597656 C 198.125 100.484375 197.839844 100.429688 197.546875 100.429688 C 197.25 100.429688 196.964844 100.484375 196.691406 100.597656 C 196.417969 100.710938 196.179688 100.871094 195.96875 101.078125 L 173.738281 123.246094 C 173.53125 123.457031 173.371094 123.695312 173.257812 123.96875 C 173.144531 124.242188 173.085938 124.523438 173.085938 124.820312 C 173.085938 125.113281 173.144531 125.398438 173.257812 125.671875 C 173.371094 125.941406 173.53125 126.183594 173.738281 126.390625 Z M 211.84375 164.382812 " fill-opacity="1" fill-rule="nonzero"/><path fill="#000000" d="M 239.863281 142.664062 L 202.042969 138.132812 C 201.789062 138.105469 201.550781 138.035156 201.324219 137.925781 C 201.09375 137.8125 200.890625 137.667969 200.710938 137.492188 C 200.53125 137.3125 200.386719 137.109375 200.277344 136.882812 C 200.164062 136.65625 200.09375 136.417969 200.066406 136.164062 L 195.523438 98.453125 L 200.015625 97.914062 L 204.34375 133.867188 L 240.40625 138.183594 Z M 239.863281 142.664062 " fill-opacity="1" fill-rule="nonzero"/><path fill="#000000" d="M 170.652344 122.34375 L 200.066406 122.34375 L 200.066406 126.855469 L 170.652344 126.855469 Z M 170.652344 122.34375 " fill-opacity="1" fill-rule="nonzero"/><path fill="#000000" d="M 211.375 138.132812 L 215.902344 138.132812 L 215.902344 167.457031 L 211.375 167.457031 Z M 211.375 138.132812 " fill-opacity="1" fill-rule="nonzero"/><path fill="#000000" d="M 241.84375 187.742188 C 240.664062 187.722656 239.539062 187.476562 238.460938 186.996094 C 237.382812 186.519531 236.445312 185.847656 235.644531 184.984375 C 226.503906 175.871094 231.191406 168.28125 233.996094 163.742188 C 235.542969 161.242188 236.113281 160.121094 235.644531 159.65625 C 232.199219 156.21875 225.765625 159.960938 225.691406 159.996094 L 223.367188 156.125 C 223.753906 155.902344 232.890625 150.539062 238.835938 156.464844 C 241.917969 159.527344 239.65625 163.171875 237.847656 166.101562 C 235.082031 170.574219 232.226562 175.195312 238.839844 181.789062 C 239.039062 182.011719 239.257812 182.214844 239.5 182.390625 C 239.742188 182.566406 240 182.71875 240.273438 182.839844 C 240.546875 182.964844 240.828125 183.054688 241.121094 183.117188 C 241.414062 183.183594 241.710938 183.210938 242.011719 183.210938 C 242.3125 183.210938 242.609375 183.179688 242.902344 183.117188 C 243.195312 183.050781 243.476562 182.957031 243.75 182.835938 C 244.023438 182.710938 244.277344 182.558594 244.519531 182.382812 C 244.761719 182.203125 244.980469 182 245.175781 181.777344 C 256.785156 170.203125 255.5 157.289062 251.511719 153.3125 C 248.609375 150.421875 239.417969 150.230469 234.304688 150.796875 L 233.804688 146.3125 C 235.390625 146.144531 249.335938 144.761719 254.710938 150.125 C 260.554688 155.953125 261.65625 171.71875 248.359375 184.976562 C 247.492188 185.835938 246.492188 186.507812 245.367188 186.984375 C 244.242188 187.460938 243.066406 187.714844 241.84375 187.742188 Z M 241.84375 187.742188 " fill-opacity="1" fill-rule="nonzero"/><path fill="#000000" d="M 239.429688 183.9375 L 235.039062 182.84375 C 235.175781 182.300781 238.445312 169.496094 245.164062 162.796875 L 248.363281 165.988281 C 242.53125 171.8125 239.46875 183.816406 239.429688 183.9375 Z M 239.429688 183.9375 " fill-opacity="1" fill-rule="nonzero"/><g clip-path="url(#15ffdac604)"><path fill="#000000" d="M 182.015625 114.902344 L 178.140625 112.582031 C 178.171875 112.523438 181.925781 106.109375 178.480469 102.671875 C 178.007812 102.203125 176.894531 102.773438 174.378906 104.316406 C 169.828125 107.105469 162.21875 111.789062 153.074219 102.671875 C 152.46875 102.125 151.953125 101.507812 151.527344 100.8125 C 151.105469 100.121094 150.789062 99.378906 150.582031 98.59375 C 150.375 97.808594 150.285156 97.007812 150.3125 96.195312 C 150.339844 95.382812 150.484375 94.59375 150.746094 93.820312 C 151.242188 92.371094 152.019531 91.085938 153.078125 89.972656 C 154.398438 88.558594 155.832031 87.269531 157.375 86.105469 C 158.921875 84.9375 160.554688 83.914062 162.28125 83.03125 C 164.003906 82.152344 165.789062 81.425781 167.640625 80.851562 C 169.492188 80.28125 171.378906 79.871094 173.300781 79.628906 C 179.285156 79.007812 184.933594 80.546875 188.035156 83.640625 C 193.414062 89.003906 192.035156 102.914062 191.859375 104.480469 L 187.359375 103.984375 C 187.925781 98.886719 187.738281 89.722656 184.835938 86.839844 C 183.265625 85.628906 181.519531 84.789062 179.589844 84.316406 C 177.660156 83.84375 175.71875 83.785156 173.765625 84.132812 C 170.410156 84.578125 167.230469 85.578125 164.226562 87.132812 C 161.222656 88.6875 158.570312 90.703125 156.277344 93.183594 C 156.050781 93.378906 155.847656 93.597656 155.667969 93.839844 C 155.492188 94.078125 155.339844 94.335938 155.214844 94.609375 C 155.09375 94.878906 155 95.164062 154.933594 95.453125 C 154.871094 95.746094 154.839844 96.042969 154.839844 96.339844 C 154.839844 96.640625 154.871094 96.9375 154.933594 97.226562 C 155 97.519531 155.09375 97.804688 155.214844 98.074219 C 155.339844 98.347656 155.492188 98.605469 155.667969 98.84375 C 155.847656 99.082031 156.050781 99.300781 156.277344 99.5 C 162.890625 106.09375 167.527344 103.25 172.007812 100.492188 C 174.949219 98.691406 178.605469 96.433594 181.683594 99.5 C 187.621094 105.398438 182.25 114.503906 182.015625 114.902344 Z M 182.015625 114.902344 " fill-opacity="1" fill-rule="nonzero"/></g><path fill="#000000" d="M 155.222656 103.253906 L 154.121094 98.886719 C 154.246094 98.855469 166.300781 95.792969 172.125 89.980469 L 175.324219 93.171875 C 168.617188 99.859375 155.765625 103.121094 155.222656 103.253906 Z M 155.222656 103.253906 " fill-opacity="1" fill-rule="nonzero"/><g clip-path="url(#9e7b708e51)"><path fill="#000000" d="M 142.519531 201.289062 C 141.636719 201.292969 140.785156 201.125 139.96875 200.789062 C 139.15625 200.453125 138.433594 199.972656 137.8125 199.351562 L 116.042969 177.648438 C 115.734375 177.339844 115.460938 177.003906 115.214844 176.640625 C 114.972656 176.277344 114.769531 175.894531 114.601562 175.492188 C 114.433594 175.089844 114.308594 174.675781 114.222656 174.246094 C 114.136719 173.820312 114.09375 173.386719 114.09375 172.949219 C 114.09375 172.515625 114.136719 172.082031 114.222656 171.65625 C 114.308594 171.226562 114.433594 170.8125 114.601562 170.410156 C 114.769531 170.007812 114.972656 169.625 115.214844 169.261719 C 115.460938 168.898438 115.734375 168.5625 116.042969 168.253906 L 153.355469 131.054688 C 153.664062 130.75 154 130.472656 154.367188 130.234375 C 154.730469 129.992188 155.113281 129.789062 155.515625 129.621094 C 155.921875 129.453125 156.335938 129.328125 156.765625 129.242188 C 157.195312 129.160156 157.628906 129.117188 158.066406 129.117188 C 158.5 129.117188 158.933594 129.160156 159.363281 129.242188 C 159.792969 129.328125 160.207031 129.453125 160.613281 129.621094 C 161.015625 129.789062 161.398438 129.992188 161.765625 130.234375 C 162.128906 130.472656 162.464844 130.75 162.773438 131.054688 L 184.539062 152.753906 C 184.847656 153.0625 185.125 153.398438 185.367188 153.761719 C 185.609375 154.125 185.816406 154.507812 185.984375 154.910156 C 186.152344 155.3125 186.277344 155.726562 186.363281 156.15625 C 186.449219 156.582031 186.492188 157.015625 186.492188 157.449219 C 186.492188 157.886719 186.449219 158.320312 186.363281 158.746094 C 186.277344 159.175781 186.152344 159.589844 185.984375 159.992188 C 185.816406 160.394531 185.609375 160.777344 185.367188 161.140625 C 185.125 161.503906 184.847656 161.839844 184.539062 162.148438 L 147.230469 199.34375 C 146.605469 199.96875 145.882812 200.449219 145.066406 200.785156 C 144.25 201.121094 143.402344 201.289062 142.519531 201.289062 Z M 158.066406 133.625 C 157.476562 133.621094 156.972656 133.828125 156.558594 134.242188 L 119.242188 171.445312 C 119.042969 171.644531 118.890625 171.875 118.78125 172.136719 C 118.671875 172.398438 118.617188 172.667969 118.617188 172.953125 C 118.617188 173.234375 118.671875 173.507812 118.78125 173.765625 C 118.890625 174.027344 119.042969 174.257812 119.242188 174.457031 L 141.007812 196.15625 C 141.207031 196.355469 141.4375 196.507812 141.699219 196.613281 C 141.960938 196.722656 142.234375 196.777344 142.515625 196.777344 C 142.800781 196.777344 143.070312 196.722656 143.332031 196.613281 C 143.59375 196.507812 143.824219 196.355469 144.027344 196.15625 L 181.339844 158.957031 C 181.542969 158.753906 181.695312 158.523438 181.804688 158.265625 C 181.914062 158.003906 181.964844 157.730469 181.964844 157.449219 C 181.964844 157.167969 181.914062 156.894531 181.804688 156.636719 C 181.695312 156.375 181.542969 156.144531 181.339844 155.945312 L 159.578125 134.246094 C 159.160156 133.828125 158.65625 133.621094 158.066406 133.625 Z M 158.066406 133.625 " fill-opacity="1" fill-rule="nonzero"/></g><path fill="#000000" d="M 116.640625 174.972656 L 116.101562 170.496094 L 151.367188 166.273438 L 155.601562 131.113281 L 160.09375 131.648438 L 155.648438 168.570312 C 155.617188 168.820312 155.546875 169.058594 155.4375 169.285156 C 155.324219 169.511719 155.179688 169.714844 155 169.894531 C 154.824219 170.074219 154.617188 170.21875 154.390625 170.328125 C 154.164062 170.4375 153.921875 170.507812 153.671875 170.539062 Z M 116.640625 174.972656 " fill-opacity="1" fill-rule="nonzero"/><path fill="#000000" d="M 141.242188 169.710938 L 145.765625 169.710938 L 145.765625 199.035156 L 141.242188 199.035156 Z M 141.242188 169.710938 " fill-opacity="1" fill-rule="nonzero"/><path fill="#000000" d="M 154.816406 156.179688 L 184.226562 156.179688 L 184.226562 160.691406 L 154.816406 160.691406 Z M 154.816406 156.179688 " fill-opacity="1" fill-rule="nonzero"/><path fill="#000000" d="M 168.390625 183.246094 L 197.800781 183.246094 L 197.800781 187.757812 L 168.390625 187.757812 Z M 168.390625 183.246094 " fill-opacity="1" fill-rule="nonzero"/><path fill="#000000" d="M 202.328125 183.246094 L 206.851562 183.246094 L 206.851562 187.757812 L 202.328125 187.757812 Z M 202.328125 183.246094 " fill-opacity="1" fill-rule="nonzero"/><path fill="#000000" d="M 188.753906 192.265625 L 222.6875 192.265625 L 222.6875 196.777344 L 188.753906 196.777344 Z M 188.753906 192.265625 " fill-opacity="1" fill-rule="nonzero"/><path fill="#000000" d="M 227.214844 192.265625 L 231.738281 192.265625 L 231.738281 196.777344 L 227.214844 196.777344 Z M 227.214844 192.265625 " fill-opacity="1" fill-rule="nonzero"/><path fill="#000000" d="M 184.226562 174.222656 L 213.640625 174.222656 L 213.640625 178.734375 L 184.226562 178.734375 Z M 184.226562 174.222656 " fill-opacity="1" fill-rule="nonzero"/><path fill="#000000" d="M 218.164062 174.222656 L 222.6875 174.222656 L 222.6875 178.734375 L 218.164062 178.734375 Z M 218.164062 174.222656 " fill-opacity="1" fill-rule="nonzero"/><g fill="#ffffff" fill-opacity="1"><g transform="translate(92.949681, 243.228761)"><g><path d="M 7.578125 0.234375 C 6.085938 0.234375 4.84375 0.0195312 3.84375 -0.40625 C 2.84375 -0.84375 2.085938 -1.410156 1.578125 -2.109375 C 1.066406 -2.804688 0.796875 -3.550781 0.765625 -4.34375 C 0.765625 -4.476562 0.8125 -4.59375 0.90625 -4.6875 C 1 -4.78125 1.113281 -4.828125 1.25 -4.828125 L 3.765625 -4.828125 C 3.960938 -4.828125 4.113281 -4.785156 4.21875 -4.703125 C 4.332031 -4.628906 4.4375 -4.535156 4.53125 -4.421875 C 4.632812 -4.140625 4.804688 -3.875 5.046875 -3.625 C 5.285156 -3.375 5.609375 -3.171875 6.015625 -3.015625 C 6.429688 -2.859375 6.953125 -2.78125 7.578125 -2.78125 C 8.578125 -2.78125 9.328125 -2.941406 9.828125 -3.265625 C 10.335938 -3.597656 10.59375 -4.039062 10.59375 -4.59375 C 10.59375 -4.988281 10.457031 -5.304688 10.1875 -5.546875 C 9.914062 -5.796875 9.488281 -6.019531 8.90625 -6.21875 C 8.332031 -6.425781 7.5625 -6.640625 6.59375 -6.859375 C 5.4375 -7.117188 4.453125 -7.445312 3.640625 -7.84375 C 2.828125 -8.238281 2.210938 -8.75 1.796875 -9.375 C 1.390625 -10 1.1875 -10.773438 1.1875 -11.703125 C 1.1875 -12.640625 1.441406 -13.46875 1.953125 -14.1875 C 2.460938 -14.90625 3.179688 -15.46875 4.109375 -15.875 C 5.035156 -16.289062 6.144531 -16.5 7.4375 -16.5 C 8.46875 -16.5 9.382812 -16.359375 10.1875 -16.078125 C 10.988281 -15.796875 11.65625 -15.429688 12.1875 -14.984375 C 12.71875 -14.535156 13.125 -14.054688 13.40625 -13.546875 C 13.6875 -13.035156 13.832031 -12.539062 13.84375 -12.0625 C 13.84375 -11.914062 13.800781 -11.789062 13.71875 -11.6875 C 13.632812 -11.59375 13.515625 -11.546875 13.359375 -11.546875 L 10.75 -11.546875 C 10.601562 -11.546875 10.46875 -11.578125 10.34375 -11.640625 C 10.21875 -11.703125 10.109375 -11.8125 10.015625 -11.96875 C 9.929688 -12.382812 9.660156 -12.738281 9.203125 -13.03125 C 8.753906 -13.320312 8.164062 -13.46875 7.4375 -13.46875 C 6.675781 -13.46875 6.070312 -13.332031 5.625 -13.0625 C 5.1875 -12.789062 4.96875 -12.367188 4.96875 -11.796875 C 4.96875 -11.429688 5.082031 -11.117188 5.3125 -10.859375 C 5.550781 -10.609375 5.929688 -10.382812 6.453125 -10.1875 C 6.984375 -9.988281 7.695312 -9.785156 8.59375 -9.578125 C 9.945312 -9.296875 11.046875 -8.957031 11.890625 -8.5625 C 12.742188 -8.164062 13.367188 -7.660156 13.765625 -7.046875 C 14.171875 -6.441406 14.375 -5.671875 14.375 -4.734375 C 14.375 -3.703125 14.085938 -2.8125 13.515625 -2.0625 C 12.941406 -1.320312 12.144531 -0.753906 11.125 -0.359375 C 10.101562 0.0351562 8.921875 0.234375 7.578125 0.234375 Z M 7.578125 0.234375 "/></g></g></g><g fill="#ffffff" fill-opacity="1"><g transform="translate(110.890032, 243.228761)"><g><path d="M 5.875 0 C 5.707031 0 5.566406 -0.0507812 5.453125 -0.15625 C 5.347656 -0.269531 5.296875 -0.410156 5.296875 -0.578125 L 5.296875 -13.015625 L 1.0625 -13.015625 C 0.914062 -13.015625 0.785156 -13.066406 0.671875 -13.171875 C 0.566406 -13.285156 0.515625 -13.425781 0.515625 -13.59375 L 0.515625 -15.6875 C 0.515625 -15.851562 0.566406 -15.988281 0.671875 -16.09375 C 0.785156 -16.207031 0.914062 -16.265625 1.0625 -16.265625 L 13.25 -16.265625 C 13.414062 -16.265625 13.550781 -16.207031 13.65625 -16.09375 C 13.769531 -15.988281 13.828125 -15.851562 13.828125 -15.6875 L 13.828125 -13.59375 C 13.828125 -13.425781 13.769531 -13.285156 13.65625 -13.171875 C 13.550781 -13.066406 13.414062 -13.015625 13.25 -13.015625 L 9.03125 -13.015625 L 9.03125 -0.578125 C 9.03125 -0.410156 8.976562 -0.269531 8.875 -0.15625 C 8.769531 -0.0507812 8.628906 0 8.453125 0 Z M 5.875 0 "/></g></g></g><g fill="#ffffff" fill-opacity="1"><g transform="translate(128.017072, 243.228761)"><g><path d="M 0.765625 0 C 0.628906 0 0.515625 -0.046875 0.421875 -0.140625 C 0.328125 -0.242188 0.28125 -0.359375 0.28125 -0.484375 C 0.28125 -0.566406 0.285156 -0.640625 0.296875 -0.703125 L 5.828125 -15.640625 C 5.878906 -15.804688 5.972656 -15.953125 6.109375 -16.078125 C 6.242188 -16.203125 6.4375 -16.265625 6.6875 -16.265625 L 9.671875 -16.265625 C 9.910156 -16.265625 10.097656 -16.203125 10.234375 -16.078125 C 10.378906 -15.953125 10.484375 -15.804688 10.546875 -15.640625 L 16.0625 -0.703125 C 16.082031 -0.640625 16.09375 -0.566406 16.09375 -0.484375 C 16.09375 -0.359375 16.039062 -0.242188 15.9375 -0.140625 C 15.84375 -0.046875 15.726562 0 15.59375 0 L 13.15625 0 C 12.9375 0 12.769531 -0.0507812 12.65625 -0.15625 C 12.550781 -0.269531 12.484375 -0.375 12.453125 -0.46875 L 11.453125 -3.0625 L 4.90625 -3.0625 L 3.921875 -0.46875 C 3.878906 -0.375 3.804688 -0.269531 3.703125 -0.15625 C 3.609375 -0.0507812 3.441406 0 3.203125 0 Z M 5.78125 -6.0625 L 10.578125 -6.0625 L 8.171875 -12.734375 Z M 5.78125 -6.0625 "/></g></g></g><g fill="#ffffff" fill-opacity="1"><g transform="translate(147.16577, 243.228761)"><g><path d="M 6.53125 0 C 6.351562 0 6.210938 -0.0507812 6.109375 -0.15625 C 6.003906 -0.269531 5.953125 -0.410156 5.953125 -0.578125 L 5.953125 -5.6875 L 0.515625 -15.515625 C 0.492188 -15.566406 0.472656 -15.609375 0.453125 -15.640625 C 0.441406 -15.679688 0.4375 -15.726562 0.4375 -15.78125 C 0.4375 -15.90625 0.488281 -16.015625 0.59375 -16.109375 C 0.695312 -16.210938 0.804688 -16.265625 0.921875 -16.265625 L 3.421875 -16.265625 C 3.617188 -16.265625 3.78125 -16.207031 3.90625 -16.09375 C 4.03125 -15.988281 4.113281 -15.890625 4.15625 -15.796875 L 7.8125 -9.40625 L 11.453125 -15.796875 C 11.503906 -15.890625 11.585938 -15.988281 11.703125 -16.09375 C 11.828125 -16.207031 12 -16.265625 12.21875 -16.265625 L 14.6875 -16.265625 C 14.820312 -16.265625 14.9375 -16.210938 15.03125 -16.109375 C 15.125 -16.015625 15.171875 -15.90625 15.171875 -15.78125 C 15.171875 -15.726562 15.164062 -15.679688 15.15625 -15.640625 C 15.15625 -15.609375 15.140625 -15.566406 15.109375 -15.515625 L 9.671875 -5.6875 L 9.671875 -0.578125 C 9.671875 -0.410156 9.613281 -0.269531 9.5 -0.15625 C 9.394531 -0.0507812 9.253906 0 9.078125 0 Z M 6.53125 0 "/></g></g></g><g fill="#ffffff" fill-opacity="1"><g transform="translate(165.570872, 243.228761)"><g/></g></g><g fill="#ffffff" fill-opacity="1"><g transform="translate(173.495917, 243.228761)"><g><path d="M 7.578125 0.234375 C 6.085938 0.234375 4.84375 0.0195312 3.84375 -0.40625 C 2.84375 -0.84375 2.085938 -1.410156 1.578125 -2.109375 C 1.066406 -2.804688 0.796875 -3.550781 0.765625 -4.34375 C 0.765625 -4.476562 0.8125 -4.59375 0.90625 -4.6875 C 1 -4.78125 1.113281 -4.828125 1.25 -4.828125 L 3.765625 -4.828125 C 3.960938 -4.828125 4.113281 -4.785156 4.21875 -4.703125 C 4.332031 -4.628906 4.4375 -4.535156 4.53125 -4.421875 C 4.632812 -4.140625 4.804688 -3.875 5.046875 -3.625 C 5.285156 -3.375 5.609375 -3.171875 6.015625 -3.015625 C 6.429688 -2.859375 6.953125 -2.78125 7.578125 -2.78125 C 8.578125 -2.78125 9.328125 -2.941406 9.828125 -3.265625 C 10.335938 -3.597656 10.59375 -4.039062 10.59375 -4.59375 C 10.59375 -4.988281 10.457031 -5.304688 10.1875 -5.546875 C 9.914062 -5.796875 9.488281 -6.019531 8.90625 -6.21875 C 8.332031 -6.425781 7.5625 -6.640625 6.59375 -6.859375 C 5.4375 -7.117188 4.453125 -7.445312 3.640625 -7.84375 C 2.828125 -8.238281 2.210938 -8.75 1.796875 -9.375 C 1.390625 -10 1.1875 -10.773438 1.1875 -11.703125 C 1.1875 -12.640625 1.441406 -13.46875 1.953125 -14.1875 C 2.460938 -14.90625 3.179688 -15.46875 4.109375 -15.875 C 5.035156 -16.289062 6.144531 -16.5 7.4375 -16.5 C 8.46875 -16.5 9.382812 -16.359375 10.1875 -16.078125 C 10.988281 -15.796875 11.65625 -15.429688 12.1875 -14.984375 C 12.71875 -14.535156 13.125 -14.054688 13.40625 -13.546875 C 13.6875 -13.035156 13.832031 -12.539062 13.84375 -12.0625 C 13.84375 -11.914062 13.800781 -11.789062 13.71875 -11.6875 C 13.632812 -11.59375 13.515625 -11.546875 13.359375 -11.546875 L 10.75 -11.546875 C 10.601562 -11.546875 10.46875 -11.578125 10.34375 -11.640625 C 10.21875 -11.703125 10.109375 -11.8125 10.015625 -11.96875 C 9.929688 -12.382812 9.660156 -12.738281 9.203125 -13.03125 C 8.753906 -13.320312 8.164062 -13.46875 7.4375 -13.46875 C 6.675781 -13.46875 6.070312 -13.332031 5.625 -13.0625 C 5.1875 -12.789062 4.96875 -12.367188 4.96875 -11.796875 C 4.96875 -11.429688 5.082031 -11.117188 5.3125 -10.859375 C 5.550781 -10.609375 5.929688 -10.382812 6.453125 -10.1875 C 6.984375 -9.988281 7.695312 -9.785156 8.59375 -9.578125 C 9.945312 -9.296875 11.046875 -8.957031 11.890625 -8.5625 C 12.742188 -8.164062 13.367188 -7.660156 13.765625 -7.046875 C 14.171875 -6.441406 14.375 -5.671875 14.375 -4.734375 C 14.375 -3.703125 14.085938 -2.8125 13.515625 -2.0625 C 12.941406 -1.320312 12.144531 -0.753906 11.125 -0.359375 C 10.101562 0.0351562 8.921875 0.234375 7.578125 0.234375 Z M 7.578125 0.234375 "/></g></g></g><g fill="#ffffff" fill-opacity="1"><g transform="translate(191.436268, 243.228761)"><g><path d="M 6.53125 0 C 6.351562 0 6.210938 -0.0507812 6.109375 -0.15625 C 6.003906 -0.269531 5.953125 -0.410156 5.953125 -0.578125 L 5.953125 -5.6875 L 0.515625 -15.515625 C 0.492188 -15.566406 0.472656 -15.609375 0.453125 -15.640625 C 0.441406 -15.679688 0.4375 -15.726562 0.4375 -15.78125 C 0.4375 -15.90625 0.488281 -16.015625 0.59375 -16.109375 C 0.695312 -16.210938 0.804688 -16.265625 0.921875 -16.265625 L 3.421875 -16.265625 C 3.617188 -16.265625 3.78125 -16.207031 3.90625 -16.09375 C 4.03125 -15.988281 4.113281 -15.890625 4.15625 -15.796875 L 7.8125 -9.40625 L 11.453125 -15.796875 C 11.503906 -15.890625 11.585938 -15.988281 11.703125 -16.09375 C 11.828125 -16.207031 12 -16.265625 12.21875 -16.265625 L 14.6875 -16.265625 C 14.820312 -16.265625 14.9375 -16.210938 15.03125 -16.109375 C 15.125 -16.015625 15.171875 -15.90625 15.171875 -15.78125 C 15.171875 -15.726562 15.164062 -15.679688 15.15625 -15.640625 C 15.15625 -15.609375 15.140625 -15.566406 15.109375 -15.515625 L 9.671875 -5.6875 L 9.671875 -0.578125 C 9.671875 -0.410156 9.613281 -0.269531 9.5 -0.15625 C 9.394531 -0.0507812 9.253906 0 9.078125 0 Z M 6.53125 0 "/></g></g></g><g fill="#ffffff" fill-opacity="1"><g transform="translate(209.841377, 243.228761)"><g><path d="M 2.28125 0 C 2.125 0 1.988281 -0.0507812 1.875 -0.15625 C 1.769531 -0.269531 1.71875 -0.410156 1.71875 -0.578125 L 1.71875 -15.6875 C 1.71875 -15.851562 1.769531 -15.988281 1.875 -16.09375 C 1.988281 -16.207031 2.125 -16.265625 2.28125 -16.265625 L 4.421875 -16.265625 C 4.648438 -16.265625 4.816406 -16.207031 4.921875 -16.09375 C 5.035156 -15.988281 5.109375 -15.90625 5.140625 -15.84375 L 11.3125 -6.1875 L 11.3125 -15.6875 C 11.3125 -15.851562 11.363281 -15.988281 11.46875 -16.09375 C 11.582031 -16.207031 11.722656 -16.265625 11.890625 -16.265625 L 14.265625 -16.265625 C 14.429688 -16.265625 14.566406 -16.207031 14.671875 -16.09375 C 14.785156 -15.988281 14.84375 -15.851562 14.84375 -15.6875 L 14.84375 -0.578125 C 14.84375 -0.421875 14.785156 -0.285156 14.671875 -0.171875 C 14.566406 -0.0546875 14.429688 0 14.265625 0 L 12.125 0 C 11.894531 0 11.722656 -0.0546875 11.609375 -0.171875 C 11.503906 -0.285156 11.4375 -0.367188 11.40625 -0.421875 L 5.25 -9.78125 L 5.25 -0.578125 C 5.25 -0.410156 5.191406 -0.269531 5.078125 -0.15625 C 4.972656 -0.0507812 4.835938 0 4.671875 0 Z M 2.28125 0 "/></g></g></g><g fill="#ffffff" fill-opacity="1"><g transform="translate(229.199211, 243.228761)"><g><path d="M 8.171875 0.234375 C 6.734375 0.234375 5.503906 -0.0078125 4.484375 -0.5 C 3.460938 -0.988281 2.671875 -1.703125 2.109375 -2.640625 C 1.554688 -3.578125 1.25 -4.71875 1.1875 -6.0625 C 1.164062 -6.695312 1.15625 -7.378906 1.15625 -8.109375 C 1.15625 -8.835938 1.164062 -9.535156 1.1875 -10.203125 C 1.25 -11.535156 1.5625 -12.671875 2.125 -13.609375 C 2.6875 -14.546875 3.476562 -15.257812 4.5 -15.75 C 5.53125 -16.25 6.753906 -16.5 8.171875 -16.5 C 9.234375 -16.5 10.1875 -16.363281 11.03125 -16.09375 C 11.875 -15.832031 12.601562 -15.453125 13.21875 -14.953125 C 13.84375 -14.460938 14.328125 -13.882812 14.671875 -13.21875 C 15.015625 -12.550781 15.195312 -11.804688 15.21875 -10.984375 C 15.226562 -10.847656 15.179688 -10.734375 15.078125 -10.640625 C 14.984375 -10.546875 14.867188 -10.5 14.734375 -10.5 L 12.0625 -10.5 C 11.875 -10.5 11.722656 -10.539062 11.609375 -10.625 C 11.503906 -10.707031 11.421875 -10.859375 11.359375 -11.078125 C 11.128906 -12.015625 10.742188 -12.644531 10.203125 -12.96875 C 9.660156 -13.300781 8.984375 -13.46875 8.171875 -13.46875 C 7.234375 -13.46875 6.484375 -13.203125 5.921875 -12.671875 C 5.367188 -12.148438 5.066406 -11.285156 5.015625 -10.078125 C 4.972656 -8.804688 4.972656 -7.507812 5.015625 -6.1875 C 5.066406 -4.976562 5.367188 -4.109375 5.921875 -3.578125 C 6.484375 -3.046875 7.234375 -2.78125 8.171875 -2.78125 C 8.984375 -2.78125 9.660156 -2.953125 10.203125 -3.296875 C 10.753906 -3.640625 11.140625 -4.269531 11.359375 -5.1875 C 11.421875 -5.394531 11.503906 -5.539062 11.609375 -5.625 C 11.722656 -5.71875 11.875 -5.765625 12.0625 -5.765625 L 14.734375 -5.765625 C 14.867188 -5.765625 14.984375 -5.71875 15.078125 -5.625 C 15.179688 -5.53125 15.226562 -5.414062 15.21875 -5.28125 C 15.195312 -4.457031 15.015625 -3.710938 14.671875 -3.046875 C 14.328125 -2.378906 13.84375 -1.796875 13.21875 -1.296875 C 12.601562 -0.804688 11.875 -0.425781 11.03125 -0.15625 C 10.1875 0.101562 9.234375 0.234375 8.171875 0.234375 Z M 8.171875 0.234375 "/></g></g></g><g fill="#ffffff" fill-opacity="1"><g transform="translate(248.092308, 243.228761)"><g><path d="M 2.28125 0 C 2.125 0 1.988281 -0.0507812 1.875 -0.15625 C 1.769531 -0.269531 1.71875 -0.410156 1.71875 -0.578125 L 1.71875 -15.6875 C 1.71875 -15.851562 1.769531 -15.988281 1.875 -16.09375 C 1.988281 -16.207031 2.125 -16.265625 2.28125 -16.265625 L 12.828125 -16.265625 C 12.992188 -16.265625 13.128906 -16.207031 13.234375 -16.09375 C 13.347656 -15.988281 13.40625 -15.851562 13.40625 -15.6875 L 13.40625 -13.828125 C 13.40625 -13.648438 13.347656 -13.507812 13.234375 -13.40625 C 13.128906 -13.300781 12.992188 -13.25 12.828125 -13.25 L 5.296875 -13.25 L 5.296875 -9.625 L 12.3125 -9.625 C 12.476562 -9.625 12.613281 -9.566406 12.71875 -9.453125 C 12.832031 -9.347656 12.890625 -9.207031 12.890625 -9.03125 L 12.890625 -7.3125 C 12.890625 -7.164062 12.832031 -7.03125 12.71875 -6.90625 C 12.613281 -6.789062 12.476562 -6.734375 12.3125 -6.734375 L 5.296875 -6.734375 L 5.296875 -3.015625 L 13.015625 -3.015625 C 13.179688 -3.015625 13.316406 -2.957031 13.421875 -2.84375 C 13.535156 -2.738281 13.59375 -2.601562 13.59375 -2.4375 L 13.59375 -0.578125 C 13.59375 -0.410156 13.535156 -0.269531 13.421875 -0.15625 C 13.316406 -0.0507812 13.179688 0 13.015625 0 Z M 2.28125 0 "/></g></g></g><g fill="#ffffff" fill-opacity="1"><g transform="translate(265.54469, 243.228761)"><g><path d="M 2.28125 0 C 2.125 0 1.988281 -0.0507812 1.875 -0.15625 C 1.769531 -0.269531 1.71875 -0.410156 1.71875 -0.578125 L 1.71875 -15.6875 C 1.71875 -15.851562 1.769531 -15.988281 1.875 -16.09375 C 1.988281 -16.207031 2.125 -16.265625 2.28125 -16.265625 L 8.125 -16.265625 C 9.675781 -16.265625 10.96875 -16.019531 12 -15.53125 C 13.039062 -15.039062 13.835938 -14.328125 14.390625 -13.390625 C 14.941406 -12.453125 15.234375 -11.296875 15.265625 -9.921875 C 15.296875 -9.242188 15.3125 -8.644531 15.3125 -8.125 C 15.3125 -7.613281 15.296875 -7.023438 15.265625 -6.359375 C 15.210938 -4.921875 14.921875 -3.726562 14.390625 -2.78125 C 13.867188 -1.84375 13.101562 -1.144531 12.09375 -0.6875 C 11.082031 -0.226562 9.800781 0 8.25 0 Z M 5.40625 -3.015625 L 8.125 -3.015625 C 8.90625 -3.015625 9.535156 -3.125 10.015625 -3.34375 C 10.503906 -3.570312 10.875 -3.9375 11.125 -4.4375 C 11.375 -4.945312 11.507812 -5.601562 11.53125 -6.40625 C 11.539062 -6.863281 11.550781 -7.269531 11.5625 -7.625 C 11.570312 -7.976562 11.570312 -8.332031 11.5625 -8.6875 C 11.550781 -9.039062 11.539062 -9.4375 11.53125 -9.875 C 11.5 -11.03125 11.195312 -11.878906 10.625 -12.421875 C 10.0625 -12.972656 9.191406 -13.25 8.015625 -13.25 L 5.40625 -13.25 Z M 5.40625 -3.015625 "/></g></g></g><g fill="#ffffff" fill-opacity="1"><g transform="translate(113.979423, 278.100833)"><g><path d="M 0.46875 0 C 0.382812 0 0.3125 -0.03125 0.25 -0.09375 C 0.195312 -0.15625 0.171875 -0.222656 0.171875 -0.296875 C 0.171875 -0.335938 0.175781 -0.378906 0.1875 -0.421875 L 3.53125 -9.46875 C 3.5625 -9.570312 3.617188 -9.660156 3.703125 -9.734375 C 3.785156 -9.804688 3.898438 -9.84375 4.046875 -9.84375 L 5.84375 -9.84375 C 6 -9.84375 6.117188 -9.804688 6.203125 -9.734375 C 6.285156 -9.660156 6.347656 -9.570312 6.390625 -9.46875 L 9.71875 -0.421875 C 9.738281 -0.378906 9.75 -0.335938 9.75 -0.296875 C 9.75 -0.222656 9.71875 -0.15625 9.65625 -0.09375 C 9.59375 -0.03125 9.519531 0 9.4375 0 L 7.953125 0 C 7.828125 0 7.726562 -0.03125 7.65625 -0.09375 C 7.59375 -0.164062 7.550781 -0.226562 7.53125 -0.28125 L 6.9375 -1.859375 L 2.96875 -1.859375 L 2.375 -0.28125 C 2.34375 -0.226562 2.296875 -0.164062 2.234375 -0.09375 C 2.179688 -0.03125 2.082031 0 1.9375 0 Z M 3.5 -3.671875 L 6.390625 -3.671875 L 4.953125 -7.703125 Z M 3.5 -3.671875 "/></g></g></g><g fill="#ffffff" fill-opacity="1"><g transform="translate(127.3897, 278.100833)"><g><path d="M 1.375 0 C 1.28125 0 1.203125 -0.03125 1.140625 -0.09375 C 1.078125 -0.164062 1.046875 -0.25 1.046875 -0.34375 L 1.046875 -9.484375 C 1.046875 -9.585938 1.078125 -9.671875 1.140625 -9.734375 C 1.203125 -9.804688 1.28125 -9.84375 1.375 -9.84375 L 4.921875 -9.84375 C 5.859375 -9.84375 6.640625 -9.691406 7.265625 -9.390625 C 7.898438 -9.097656 8.378906 -8.664062 8.703125 -8.09375 C 9.035156 -7.53125 9.210938 -6.832031 9.234375 -6 C 9.253906 -5.59375 9.265625 -5.234375 9.265625 -4.921875 C 9.265625 -4.609375 9.253906 -4.253906 9.234375 -3.859375 C 9.210938 -2.984375 9.039062 -2.257812 8.71875 -1.6875 C 8.394531 -1.113281 7.925781 -0.6875 7.3125 -0.40625 C 6.695312 -0.132812 5.921875 0 4.984375 0 Z M 3.28125 -1.828125 L 4.921875 -1.828125 C 5.390625 -1.828125 5.769531 -1.894531 6.0625 -2.03125 C 6.363281 -2.164062 6.585938 -2.382812 6.734375 -2.6875 C 6.878906 -3 6.957031 -3.394531 6.96875 -3.875 C 6.976562 -4.144531 6.984375 -4.390625 6.984375 -4.609375 C 6.992188 -4.828125 6.992188 -5.039062 6.984375 -5.25 C 6.984375 -5.46875 6.976562 -5.707031 6.96875 -5.96875 C 6.957031 -6.675781 6.78125 -7.191406 6.4375 -7.515625 C 6.09375 -7.847656 5.5625 -8.015625 4.84375 -8.015625 L 3.28125 -8.015625 Z M 3.28125 -1.828125 "/></g></g></g><g fill="#ffffff" fill-opacity="1"><g transform="translate(140.870257, 278.100833)"><g><path d="M 1.375 0 C 1.28125 0 1.203125 -0.03125 1.140625 -0.09375 C 1.078125 -0.164062 1.046875 -0.25 1.046875 -0.34375 L 1.046875 -9.484375 C 1.046875 -9.585938 1.078125 -9.671875 1.140625 -9.734375 C 1.203125 -9.804688 1.28125 -9.84375 1.375 -9.84375 L 4.921875 -9.84375 C 5.859375 -9.84375 6.640625 -9.691406 7.265625 -9.390625 C 7.898438 -9.097656 8.378906 -8.664062 8.703125 -8.09375 C 9.035156 -7.53125 9.210938 -6.832031 9.234375 -6 C 9.253906 -5.59375 9.265625 -5.234375 9.265625 -4.921875 C 9.265625 -4.609375 9.253906 -4.253906 9.234375 -3.859375 C 9.210938 -2.984375 9.039062 -2.257812 8.71875 -1.6875 C 8.394531 -1.113281 7.925781 -0.6875 7.3125 -0.40625 C 6.695312 -0.132812 5.921875 0 4.984375 0 Z M 3.28125 -1.828125 L 4.921875 -1.828125 C 5.390625 -1.828125 5.769531 -1.894531 6.0625 -2.03125 C 6.363281 -2.164062 6.585938 -2.382812 6.734375 -2.6875 C 6.878906 -3 6.957031 -3.394531 6.96875 -3.875 C 6.976562 -4.144531 6.984375 -4.390625 6.984375 -4.609375 C 6.992188 -4.828125 6.992188 -5.039062 6.984375 -5.25 C 6.984375 -5.46875 6.976562 -5.707031 6.96875 -5.96875 C 6.957031 -6.675781 6.78125 -7.191406 6.4375 -7.515625 C 6.09375 -7.847656 5.5625 -8.015625 4.84375 -8.015625 L 3.28125 -8.015625 Z M 3.28125 -1.828125 "/></g></g></g><g fill="#ffffff" fill-opacity="1"><g transform="translate(154.350813, 278.100833)"><g><path d="M 1.375 0 C 1.28125 0 1.203125 -0.03125 1.140625 -0.09375 C 1.078125 -0.164062 1.046875 -0.25 1.046875 -0.34375 L 1.046875 -9.484375 C 1.046875 -9.585938 1.078125 -9.671875 1.140625 -9.734375 C 1.203125 -9.804688 1.28125 -9.84375 1.375 -9.84375 L 5.125 -9.84375 C 6.289062 -9.84375 7.210938 -9.570312 7.890625 -9.03125 C 8.566406 -8.488281 8.90625 -7.710938 8.90625 -6.703125 C 8.90625 -6.023438 8.738281 -5.453125 8.40625 -4.984375 C 8.082031 -4.523438 7.644531 -4.1875 7.09375 -3.96875 L 9.078125 -0.453125 C 9.109375 -0.390625 9.125 -0.335938 9.125 -0.296875 C 9.125 -0.222656 9.09375 -0.15625 9.03125 -0.09375 C 8.96875 -0.03125 8.898438 0 8.828125 0 L 7.25 0 C 7.082031 0 6.957031 -0.0390625 6.875 -0.125 C 6.789062 -0.21875 6.726562 -0.300781 6.6875 -0.375 L 4.984375 -3.59375 L 3.28125 -3.59375 L 3.28125 -0.34375 C 3.28125 -0.25 3.242188 -0.164062 3.171875 -0.09375 C 3.109375 -0.03125 3.023438 0 2.921875 0 Z M 3.28125 -5.390625 L 5.09375 -5.390625 C 5.59375 -5.390625 5.96875 -5.503906 6.21875 -5.734375 C 6.46875 -5.972656 6.59375 -6.300781 6.59375 -6.71875 C 6.59375 -7.144531 6.46875 -7.476562 6.21875 -7.71875 C 5.976562 -7.957031 5.601562 -8.078125 5.09375 -8.078125 L 3.28125 -8.078125 Z M 3.28125 -5.390625 "/></g></g></g><g fill="#ffffff" fill-opacity="1"><g transform="translate(167.451855, 278.100833)"><g><path d="M 1.375 0 C 1.28125 0 1.203125 -0.03125 1.140625 -0.09375 C 1.078125 -0.164062 1.046875 -0.25 1.046875 -0.34375 L 1.046875 -9.484375 C 1.046875 -9.585938 1.078125 -9.671875 1.140625 -9.734375 C 1.203125 -9.804688 1.28125 -9.84375 1.375 -9.84375 L 7.765625 -9.84375 C 7.867188 -9.84375 7.953125 -9.804688 8.015625 -9.734375 C 8.078125 -9.671875 8.109375 -9.585938 8.109375 -9.484375 L 8.109375 -8.359375 C 8.109375 -8.265625 8.078125 -8.179688 8.015625 -8.109375 C 7.953125 -8.046875 7.867188 -8.015625 7.765625 -8.015625 L 3.203125 -8.015625 L 3.203125 -5.828125 L 7.453125 -5.828125 C 7.554688 -5.828125 7.640625 -5.789062 7.703125 -5.71875 C 7.765625 -5.65625 7.796875 -5.570312 7.796875 -5.46875 L 7.796875 -4.421875 C 7.796875 -4.328125 7.765625 -4.242188 7.703125 -4.171875 C 7.640625 -4.109375 7.554688 -4.078125 7.453125 -4.078125 L 3.203125 -4.078125 L 3.203125 -1.828125 L 7.875 -1.828125 C 7.976562 -1.828125 8.0625 -1.789062 8.125 -1.71875 C 8.1875 -1.65625 8.21875 -1.570312 8.21875 -1.46875 L 8.21875 -0.34375 C 8.21875 -0.25 8.1875 -0.164062 8.125 -0.09375 C 8.0625 -0.03125 7.976562 0 7.875 0 Z M 1.375 0 "/></g></g></g><g fill="#ffffff" fill-opacity="1"><g transform="translate(179.836018, 278.100833)"><g><path d="M 4.578125 0.140625 C 3.679688 0.140625 2.929688 0.0078125 2.328125 -0.25 C 1.722656 -0.507812 1.265625 -0.847656 0.953125 -1.265625 C 0.640625 -1.691406 0.476562 -2.144531 0.46875 -2.625 C 0.46875 -2.707031 0.492188 -2.773438 0.546875 -2.828125 C 0.597656 -2.890625 0.671875 -2.921875 0.765625 -2.921875 L 2.28125 -2.921875 C 2.394531 -2.921875 2.484375 -2.894531 2.546875 -2.84375 C 2.617188 -2.800781 2.679688 -2.742188 2.734375 -2.671875 C 2.804688 -2.503906 2.914062 -2.34375 3.0625 -2.1875 C 3.207031 -2.039062 3.398438 -1.921875 3.640625 -1.828125 C 3.890625 -1.734375 4.203125 -1.6875 4.578125 -1.6875 C 5.191406 -1.6875 5.648438 -1.785156 5.953125 -1.984375 C 6.253906 -2.179688 6.40625 -2.445312 6.40625 -2.78125 C 6.40625 -3.019531 6.320312 -3.210938 6.15625 -3.359375 C 6 -3.503906 5.742188 -3.640625 5.390625 -3.765625 C 5.035156 -3.890625 4.570312 -4.015625 4 -4.140625 C 3.289062 -4.304688 2.691406 -4.507812 2.203125 -4.75 C 1.710938 -4.988281 1.34375 -5.296875 1.09375 -5.671875 C 0.84375 -6.054688 0.71875 -6.53125 0.71875 -7.09375 C 0.71875 -7.65625 0.867188 -8.148438 1.171875 -8.578125 C 1.484375 -9.015625 1.921875 -9.359375 2.484375 -9.609375 C 3.046875 -9.859375 3.71875 -9.984375 4.5 -9.984375 C 5.125 -9.984375 5.675781 -9.898438 6.15625 -9.734375 C 6.644531 -9.566406 7.050781 -9.34375 7.375 -9.0625 C 7.695312 -8.789062 7.941406 -8.5 8.109375 -8.1875 C 8.273438 -7.882812 8.363281 -7.585938 8.375 -7.296875 C 8.375 -7.210938 8.347656 -7.140625 8.296875 -7.078125 C 8.242188 -7.015625 8.171875 -6.984375 8.078125 -6.984375 L 6.515625 -6.984375 C 6.421875 -6.984375 6.332031 -7 6.25 -7.03125 C 6.175781 -7.070312 6.113281 -7.140625 6.0625 -7.234375 C 6.007812 -7.492188 5.84375 -7.710938 5.5625 -7.890625 C 5.289062 -8.066406 4.9375 -8.15625 4.5 -8.15625 C 4.039062 -8.15625 3.675781 -8.070312 3.40625 -7.90625 C 3.144531 -7.738281 3.015625 -7.484375 3.015625 -7.140625 C 3.015625 -6.921875 3.082031 -6.734375 3.21875 -6.578125 C 3.363281 -6.421875 3.59375 -6.28125 3.90625 -6.15625 C 4.226562 -6.039062 4.660156 -5.921875 5.203125 -5.796875 C 6.015625 -5.628906 6.675781 -5.425781 7.1875 -5.1875 C 7.707031 -4.945312 8.085938 -4.640625 8.328125 -4.265625 C 8.578125 -3.898438 8.703125 -3.4375 8.703125 -2.875 C 8.703125 -2.238281 8.523438 -1.695312 8.171875 -1.25 C 7.828125 -0.800781 7.347656 -0.457031 6.734375 -0.21875 C 6.117188 0.0195312 5.398438 0.140625 4.578125 0.140625 Z M 4.578125 0.140625 "/></g></g></g><g fill="#ffffff" fill-opacity="1"><g transform="translate(192.515362, 278.100833)"><g><path d="M 4.578125 0.140625 C 3.679688 0.140625 2.929688 0.0078125 2.328125 -0.25 C 1.722656 -0.507812 1.265625 -0.847656 0.953125 -1.265625 C 0.640625 -1.691406 0.476562 -2.144531 0.46875 -2.625 C 0.46875 -2.707031 0.492188 -2.773438 0.546875 -2.828125 C 0.597656 -2.890625 0.671875 -2.921875 0.765625 -2.921875 L 2.28125 -2.921875 C 2.394531 -2.921875 2.484375 -2.894531 2.546875 -2.84375 C 2.617188 -2.800781 2.679688 -2.742188 2.734375 -2.671875 C 2.804688 -2.503906 2.914062 -2.34375 3.0625 -2.1875 C 3.207031 -2.039062 3.398438 -1.921875 3.640625 -1.828125 C 3.890625 -1.734375 4.203125 -1.6875 4.578125 -1.6875 C 5.191406 -1.6875 5.648438 -1.785156 5.953125 -1.984375 C 6.253906 -2.179688 6.40625 -2.445312 6.40625 -2.78125 C 6.40625 -3.019531 6.320312 -3.210938 6.15625 -3.359375 C 6 -3.503906 5.742188 -3.640625 5.390625 -3.765625 C 5.035156 -3.890625 4.570312 -4.015625 4 -4.140625 C 3.289062 -4.304688 2.691406 -4.507812 2.203125 -4.75 C 1.710938 -4.988281 1.34375 -5.296875 1.09375 -5.671875 C 0.84375 -6.054688 0.71875 -6.53125 0.71875 -7.09375 C 0.71875 -7.65625 0.867188 -8.148438 1.171875 -8.578125 C 1.484375 -9.015625 1.921875 -9.359375 2.484375 -9.609375 C 3.046875 -9.859375 3.71875 -9.984375 4.5 -9.984375 C 5.125 -9.984375 5.675781 -9.898438 6.15625 -9.734375 C 6.644531 -9.566406 7.050781 -9.34375 7.375 -9.0625 C 7.695312 -8.789062 7.941406 -8.5 8.109375 -8.1875 C 8.273438 -7.882812 8.363281 -7.585938 8.375 -7.296875 C 8.375 -7.210938 8.347656 -7.140625 8.296875 -7.078125 C 8.242188 -7.015625 8.171875 -6.984375 8.078125 -6.984375 L 6.515625 -6.984375 C 6.421875 -6.984375 6.332031 -7 6.25 -7.03125 C 6.175781 -7.070312 6.113281 -7.140625 6.0625 -7.234375 C 6.007812 -7.492188 5.84375 -7.710938 5.5625 -7.890625 C 5.289062 -8.066406 4.9375 -8.15625 4.5 -8.15625 C 4.039062 -8.15625 3.675781 -8.070312 3.40625 -7.90625 C 3.144531 -7.738281 3.015625 -7.484375 3.015625 -7.140625 C 3.015625 -6.921875 3.082031 -6.734375 3.21875 -6.578125 C 3.363281 -6.421875 3.59375 -6.28125 3.90625 -6.15625 C 4.226562 -6.039062 4.660156 -5.921875 5.203125 -5.796875 C 6.015625 -5.628906 6.675781 -5.425781 7.1875 -5.1875 C 7.707031 -4.945312 8.085938 -4.640625 8.328125 -4.265625 C 8.578125 -3.898438 8.703125 -3.4375 8.703125 -2.875 C 8.703125 -2.238281 8.523438 -1.695312 8.171875 -1.25 C 7.828125 -0.800781 7.347656 -0.457031 6.734375 -0.21875 C 6.117188 0.0195312 5.398438 0.140625 4.578125 0.140625 Z M 4.578125 0.140625 "/></g></g></g><g fill="#ffffff" fill-opacity="1"><g transform="translate(205.194707, 278.100833)"><g/></g></g><g fill="#ffffff" fill-opacity="1"><g transform="translate(211.81577, 278.100833)"><g><path d="M 1.375 0 C 1.28125 0 1.203125 -0.03125 1.140625 -0.09375 C 1.078125 -0.164062 1.046875 -0.25 1.046875 -0.34375 L 1.046875 -9.484375 C 1.046875 -9.585938 1.078125 -9.671875 1.140625 -9.734375 C 1.203125 -9.804688 1.28125 -9.84375 1.375 -9.84375 L 5.5625 -9.84375 C 6.34375 -9.84375 6.984375 -9.726562 7.484375 -9.5 C 7.984375 -9.28125 8.347656 -8.960938 8.578125 -8.546875 C 8.816406 -8.140625 8.9375 -7.65625 8.9375 -7.09375 C 8.9375 -6.75 8.875 -6.445312 8.75 -6.1875 C 8.625 -5.925781 8.46875 -5.707031 8.28125 -5.53125 C 8.101562 -5.363281 7.929688 -5.238281 7.765625 -5.15625 C 8.128906 -4.988281 8.453125 -4.707031 8.734375 -4.3125 C 9.015625 -3.925781 9.15625 -3.46875 9.15625 -2.9375 C 9.15625 -2.34375 9.019531 -1.828125 8.75 -1.390625 C 8.488281 -0.953125 8.097656 -0.609375 7.578125 -0.359375 C 7.066406 -0.117188 6.4375 0 5.6875 0 Z M 3.28125 -1.65625 L 5.421875 -1.65625 C 5.878906 -1.65625 6.222656 -1.785156 6.453125 -2.046875 C 6.691406 -2.304688 6.8125 -2.609375 6.8125 -2.953125 C 6.8125 -3.316406 6.691406 -3.625 6.453125 -3.875 C 6.222656 -4.125 5.878906 -4.25 5.421875 -4.25 L 3.28125 -4.25 Z M 3.28125 -5.859375 L 5.296875 -5.859375 C 5.742188 -5.859375 6.078125 -5.96875 6.296875 -6.1875 C 6.515625 -6.414062 6.625 -6.703125 6.625 -7.046875 C 6.625 -7.390625 6.515625 -7.664062 6.296875 -7.875 C 6.078125 -8.082031 5.742188 -8.1875 5.296875 -8.1875 L 3.28125 -8.1875 Z M 3.28125 -5.859375 "/></g></g></g><g fill="#ffffff" fill-opacity="1"><g transform="translate(225.099534, 278.100833)"><g><path d="M 4.953125 0.140625 C 4.097656 0.140625 3.359375 0 2.734375 -0.28125 C 2.117188 -0.5625 1.632812 -0.984375 1.28125 -1.546875 C 0.9375 -2.117188 0.753906 -2.835938 0.734375 -3.703125 C 0.722656 -4.097656 0.71875 -4.492188 0.71875 -4.890625 C 0.71875 -5.296875 0.722656 -5.703125 0.734375 -6.109375 C 0.753906 -6.953125 0.941406 -7.660156 1.296875 -8.234375 C 1.648438 -8.816406 2.140625 -9.253906 2.765625 -9.546875 C 3.390625 -9.835938 4.117188 -9.984375 4.953125 -9.984375 C 5.773438 -9.984375 6.5 -9.835938 7.125 -9.546875 C 7.75 -9.253906 8.238281 -8.816406 8.59375 -8.234375 C 8.945312 -7.660156 9.140625 -6.953125 9.171875 -6.109375 C 9.191406 -5.703125 9.203125 -5.296875 9.203125 -4.890625 C 9.203125 -4.492188 9.191406 -4.097656 9.171875 -3.703125 C 9.140625 -2.835938 8.945312 -2.117188 8.59375 -1.546875 C 8.25 -0.984375 7.765625 -0.5625 7.140625 -0.28125 C 6.523438 0 5.796875 0.140625 4.953125 0.140625 Z M 4.953125 -1.6875 C 5.492188 -1.6875 5.9375 -1.847656 6.28125 -2.171875 C 6.632812 -2.503906 6.820312 -3.035156 6.84375 -3.765625 C 6.863281 -4.179688 6.875 -4.566406 6.875 -4.921875 C 6.875 -5.285156 6.863281 -5.671875 6.84375 -6.078125 C 6.832031 -6.566406 6.742188 -6.960938 6.578125 -7.265625 C 6.410156 -7.578125 6.1875 -7.800781 5.90625 -7.9375 C 5.632812 -8.082031 5.316406 -8.15625 4.953125 -8.15625 C 4.597656 -8.15625 4.28125 -8.082031 4 -7.9375 C 3.71875 -7.800781 3.488281 -7.578125 3.3125 -7.265625 C 3.144531 -6.960938 3.050781 -6.566406 3.03125 -6.078125 C 3.019531 -5.671875 3.015625 -5.285156 3.015625 -4.921875 C 3.015625 -4.566406 3.019531 -4.179688 3.03125 -3.765625 C 3.0625 -3.035156 3.25 -2.503906 3.59375 -2.171875 C 3.945312 -1.847656 4.398438 -1.6875 4.953125 -1.6875 Z M 4.953125 -1.6875 "/></g></g></g><g fill="#ffffff" fill-opacity="1"><g transform="translate(238.495758, 278.100833)"><g><path d="M 4.953125 0.140625 C 4.097656 0.140625 3.359375 0 2.734375 -0.28125 C 2.117188 -0.5625 1.632812 -0.984375 1.28125 -1.546875 C 0.9375 -2.117188 0.753906 -2.835938 0.734375 -3.703125 C 0.722656 -4.097656 0.71875 -4.492188 0.71875 -4.890625 C 0.71875 -5.296875 0.722656 -5.703125 0.734375 -6.109375 C 0.753906 -6.953125 0.941406 -7.660156 1.296875 -8.234375 C 1.648438 -8.816406 2.140625 -9.253906 2.765625 -9.546875 C 3.390625 -9.835938 4.117188 -9.984375 4.953125 -9.984375 C 5.773438 -9.984375 6.5 -9.835938 7.125 -9.546875 C 7.75 -9.253906 8.238281 -8.816406 8.59375 -8.234375 C 8.945312 -7.660156 9.140625 -6.953125 9.171875 -6.109375 C 9.191406 -5.703125 9.203125 -5.296875 9.203125 -4.890625 C 9.203125 -4.492188 9.191406 -4.097656 9.171875 -3.703125 C 9.140625 -2.835938 8.945312 -2.117188 8.59375 -1.546875 C 8.25 -0.984375 7.765625 -0.5625 7.140625 -0.28125 C 6.523438 0 5.796875 0.140625 4.953125 0.140625 Z M 4.953125 -1.6875 C 5.492188 -1.6875 5.9375 -1.847656 6.28125 -2.171875 C 6.632812 -2.503906 6.820312 -3.035156 6.84375 -3.765625 C 6.863281 -4.179688 6.875 -4.566406 6.875 -4.921875 C 6.875 -5.285156 6.863281 -5.671875 6.84375 -6.078125 C 6.832031 -6.566406 6.742188 -6.960938 6.578125 -7.265625 C 6.410156 -7.578125 6.1875 -7.800781 5.90625 -7.9375 C 5.632812 -8.082031 5.316406 -8.15625 4.953125 -8.15625 C 4.597656 -8.15625 4.28125 -8.082031 4 -7.9375 C 3.71875 -7.800781 3.488281 -7.578125 3.3125 -7.265625 C 3.144531 -6.960938 3.050781 -6.566406 3.03125 -6.078125 C 3.019531 -5.671875 3.015625 -5.285156 3.015625 -4.921875 C 3.015625 -4.566406 3.019531 -4.179688 3.03125 -3.765625 C 3.0625 -3.035156 3.25 -2.503906 3.59375 -2.171875 C 3.945312 -1.847656 4.398438 -1.6875 4.953125 -1.6875 Z M 4.953125 -1.6875 "/></g></g></g><g fill="#ffffff" fill-opacity="1"><g transform="translate(251.891989, 278.100833)"><g><path d="M 1.375 0 C 1.28125 0 1.203125 -0.03125 1.140625 -0.09375 C 1.078125 -0.164062 1.046875 -0.25 1.046875 -0.34375 L 1.046875 -9.484375 C 1.046875 -9.585938 1.078125 -9.671875 1.140625 -9.734375 C 1.203125 -9.804688 1.28125 -9.84375 1.375 -9.84375 L 2.890625 -9.84375 C 2.992188 -9.84375 3.078125 -9.804688 3.140625 -9.734375 C 3.210938 -9.671875 3.25 -9.585938 3.25 -9.484375 L 3.25 -6.28125 L 6.125 -9.578125 C 6.164062 -9.628906 6.226562 -9.6875 6.3125 -9.75 C 6.40625 -9.8125 6.523438 -9.84375 6.671875 -9.84375 L 8.390625 -9.84375 C 8.460938 -9.84375 8.53125 -9.8125 8.59375 -9.75 C 8.65625 -9.6875 8.6875 -9.617188 8.6875 -9.546875 C 8.6875 -9.484375 8.671875 -9.425781 8.640625 -9.375 L 5.015625 -5.125 L 8.90625 -0.46875 C 8.9375 -0.425781 8.953125 -0.367188 8.953125 -0.296875 C 8.953125 -0.222656 8.921875 -0.15625 8.859375 -0.09375 C 8.804688 -0.03125 8.738281 0 8.65625 0 L 6.890625 0 C 6.722656 0 6.597656 -0.0351562 6.515625 -0.109375 C 6.429688 -0.179688 6.375 -0.234375 6.34375 -0.265625 L 3.25 -3.859375 L 3.25 -0.34375 C 3.25 -0.25 3.210938 -0.164062 3.140625 -0.09375 C 3.078125 -0.03125 2.992188 0 2.890625 0 Z M 1.375 0 "/></g></g></g></svg>