<svg xmlns="http://www.w3.org/2000/svg" xmlns:xlink="http://www.w3.org/1999/xlink" width="500" zoomAndPan="magnify" viewBox="0 0 375 374.999991" height="500" preserveAspectRatio="xMidYMid meet" version="1.0"><defs><g/><clipPath id="5a0be0efcc"><path d="M 128.042969 64.785156 L 246.957031 64.785156 L 246.957031 251 L 128.042969 251 Z M 128.042969 64.785156 " clip-rule="nonzero"/></clipPath><clipPath id="325f357095"><path d="M 145.292969 64.785156 L 229.707031 64.785156 C 234.28125 64.785156 238.667969 66.601562 241.902344 69.835938 C 245.136719 73.074219 246.957031 77.460938 246.957031 82.035156 L 246.957031 233.34375 C 246.957031 237.921875 245.136719 242.308594 241.902344 245.542969 C 238.667969 248.777344 234.28125 250.59375 229.707031 250.59375 L 145.292969 250.59375 C 140.71875 250.59375 136.332031 248.777344 133.097656 245.542969 C 129.863281 242.308594 128.042969 237.921875 128.042969 233.34375 L 128.042969 82.035156 C 128.042969 77.460938 129.863281 73.074219 133.097656 69.835938 C 136.332031 66.601562 140.71875 64.785156 145.292969 64.785156 Z M 145.292969 64.785156 " clip-rule="nonzero"/></clipPath><clipPath id="0427f96246"><path d="M 143.238281 164.921875 L 231.738281 164.921875 L 231.738281 294.671875 L 143.238281 294.671875 Z M 143.238281 164.921875 " clip-rule="nonzero"/></clipPath><clipPath id="74699fb019"><path d="M 149.519531 128.148438 L 225.269531 128.148438 L 225.269531 175 L 149.519531 175 Z M 149.519531 128.148438 " clip-rule="nonzero"/></clipPath><clipPath id="3c8745579d"><path d="M 161.628906 95.777344 L 213.378906 95.777344 L 213.378906 128 L 161.628906 128 Z M 161.628906 95.777344 " clip-rule="nonzero"/></clipPath></defs><g clip-path="url(#5a0be0efcc)"><g clip-path="url(#325f357095)"><path fill="#032130" d="M 128.042969 64.785156 L 246.957031 64.785156 L 246.957031 250.582031 L 128.042969 250.582031 Z M 128.042969 64.785156 " fill-opacity="1" fill-rule="nonzero"/></g></g><g clip-path="url(#0427f96246)"><path fill="#ffffff" d="M 197.050781 285.164062 L 197.050781 197.585938 C 197.050781 197.585938 215.367188 216.035156 215.992188 216.523438 C 217.617188 217.789062 219.652344 218.550781 221.867188 218.550781 C 224.3125 218.550781 226.539062 217.625 228.234375 216.113281 L 229.011719 215.339844 C 230.523438 213.644531 231.449219 211.417969 231.449219 208.96875 C 231.449219 206.453125 230.464844 204.167969 228.878906 202.457031 C 228.878906 202.457031 193.597656 167.121094 193.363281 166.941406 C 191.746094 165.691406 189.726562 164.941406 187.519531 164.941406 C 185.320312 164.941406 183.296875 165.691406 181.679688 166.9375 C 181.027344 167.445312 145.722656 202.898438 145.722656 202.898438 C 144.390625 204.542969 143.589844 206.636719 143.589844 208.917969 C 143.589844 214.207031 147.878906 218.5 153.167969 218.5 C 155.488281 218.5 157.617188 217.675781 159.273438 216.304688 L 177.988281 197.585938 L 177.988281 285.164062 C 177.988281 290.429688 182.257812 294.695312 187.519531 294.695312 C 192.785156 294.695312 197.050781 290.429688 197.050781 285.164062 " fill-opacity="1" fill-rule="nonzero"/></g><g clip-path="url(#74699fb019)"><path fill="#2cb084" d="M 151.914062 160.425781 C 150.375 161.96875 149.519531 164.019531 149.519531 166.203125 C 149.519531 168.382812 150.375 170.429688 151.914062 171.972656 C 155.101562 175.15625 160.28125 175.15625 163.46875 171.976562 L 186.535156 148.957031 C 187.066406 148.429688 187.925781 148.429688 188.453125 148.957031 L 211.519531 171.976562 C 214.707031 175.15625 219.890625 175.15625 223.074219 171.972656 C 224.621094 170.429688 225.46875 168.382812 225.46875 166.203125 C 225.46875 164.019531 224.621094 161.96875 223.074219 160.425781 L 193.277344 130.652344 C 191.730469 129.105469 189.679688 128.253906 187.496094 128.253906 C 185.3125 128.253906 183.261719 129.105469 181.722656 130.652344 L 151.914062 160.425781 " fill-opacity="1" fill-rule="nonzero"/></g><g clip-path="url(#3c8745579d)"><path fill="#ffffff" d="M 163.261719 117.824219 C 162.210938 118.875 161.628906 120.269531 161.628906 121.757812 C 161.628906 123.242188 162.210938 124.636719 163.261719 125.6875 C 165.429688 127.855469 168.960938 127.855469 171.132812 125.691406 L 186.84375 110.011719 C 187.207031 109.648438 187.792969 109.648438 188.152344 110.011719 L 203.867188 125.691406 C 206.035156 127.855469 209.566406 127.855469 211.738281 125.6875 C 212.789062 124.636719 213.367188 123.242188 213.367188 121.757812 C 213.367188 120.269531 212.789062 118.875 211.738281 117.824219 L 191.4375 97.539062 C 190.382812 96.488281 188.984375 95.90625 187.5 95.90625 C 186.011719 95.90625 184.613281 96.488281 183.566406 97.539062 L 163.261719 117.824219 " fill-opacity="1" fill-rule="nonzero"/></g><g fill="#2cb084" fill-opacity="1"><g transform="translate(102.774555, 289.791514)"><g><path d="M 5.601562 0 L 12.398438 0 L 12.398438 -22 L 18 -22 L 18 -28 L 0 -28 L 0 -22 L 5.601562 -22 Z M 5.601562 0 "/></g></g></g><g fill="#2cb084" fill-opacity="1"><g transform="translate(120.772769, 289.791514)"><g><path d="M 14.679688 0 L 21.597656 0 L 16.398438 -28 L 4.800781 -28 L -0.398438 0 L 6.519531 0 L 7.640625 -6.039062 L 13.558594 -6.039062 Z M 8.757812 -12.039062 L 10.597656 -21.957031 L 12.4375 -12.039062 Z M 8.757812 -12.039062 "/></g></g></g><g fill="#2cb084" fill-opacity="1"><g transform="translate(141.970659, 289.791514)"><g><path d="M 1.601562 0 L 19.199219 0 L 19.199219 -6 L 8.398438 -6 L 8.398438 -28 L 1.601562 -28 Z M 1.601562 0 "/></g></g></g><g fill="#2cb084" fill-opacity="1"><g transform="translate(161.96867, 289.791514)"><g><path d="M 1.601562 0 L 19.199219 0 L 19.199219 -6 L 8.398438 -6 L 8.398438 -28 L 1.601562 -28 Z M 1.601562 0 "/></g></g></g><g fill="#2cb084" fill-opacity="1"><g transform="translate(181.966682, 289.791514)"><g><path d="M 6.398438 -8 L 6.398438 0 L 13.199219 0 L 13.199219 -8 L 19.597656 -28 L 12.800781 -28 L 9.679688 -16.917969 L 6.800781 -28 L 0 -28 Z M 6.398438 -8 "/></g></g></g><g fill="#032130" fill-opacity="1"><g transform="translate(164.184472, 313.691199)"><g><path d="M 4.789062 0.210938 C 7.453125 0.210938 8.777344 -0.796875 8.777344 -2.8125 L 8.777344 -11.886719 C 8.777344 -13.902344 7.453125 -14.910156 4.789062 -14.910156 C 2.101562 -14.910156 0.796875 -13.902344 0.796875 -11.886719 L 0.796875 -2.8125 C 0.796875 -0.796875 2.101562 0.210938 4.789062 0.210938 Z M 3.171875 -3.148438 L 3.171875 -11.550781 C 3.171875 -12.304688 3.78125 -12.789062 4.789062 -12.789062 C 5.773438 -12.789062 6.382812 -12.328125 6.382812 -11.550781 L 6.382812 -3.148438 C 6.382812 -2.371094 5.773438 -1.910156 4.789062 -1.910156 C 3.78125 -1.910156 3.171875 -2.394531 3.171875 -3.148438 Z M 3.171875 -3.148438 "/></g></g></g><g fill="#032130" fill-opacity="1"><g transform="translate(173.73951, 313.691199)"><g/></g></g><g fill="#2cb084" fill-opacity="1"><g transform="translate(177.274315, 313.691199)"><g><path d="M 0.796875 -5.375 L 6.53125 -5.375 L 6.53125 -7.246094 L 0.796875 -7.246094 Z M 0.796875 -5.375 "/></g></g></g><g fill="#032130" fill-opacity="1"><g transform="translate(184.610252, 313.691199)"><g/></g></g><g fill="#032130" fill-opacity="1"><g transform="translate(188.138271, 313.691199)"><g><path d="M 2.308594 0 L 4.703125 0 L 4.703125 -14.699219 L 2.308594 -14.699219 L 2.308594 -14.554688 C 2.308594 -13.105469 1.574219 -12.367188 0.167969 -12.367188 L 0 -12.367188 L 0 -10.246094 L 0.0195312 -10.246094 C 1.027344 -10.246094 1.804688 -10.585938 2.308594 -11.191406 Z M 2.308594 0 "/></g></g></g><g fill="#032130" fill-opacity="1"><g transform="translate(194.690299, 313.691199)"><g><path d="M 4.789062 0.210938 C 7.453125 0.210938 8.777344 -0.796875 8.777344 -2.8125 L 8.777344 -11.886719 C 8.777344 -13.902344 7.453125 -14.910156 4.789062 -14.910156 C 2.101562 -14.910156 0.796875 -13.902344 0.796875 -11.886719 L 0.796875 -2.8125 C 0.796875 -0.796875 2.101562 0.210938 4.789062 0.210938 Z M 3.171875 -3.148438 L 3.171875 -11.550781 C 3.171875 -12.304688 3.78125 -12.789062 4.789062 -12.789062 C 5.773438 -12.789062 6.382812 -12.328125 6.382812 -11.550781 L 6.382812 -3.148438 C 6.382812 -2.371094 5.773438 -1.910156 4.789062 -1.910156 C 3.78125 -1.910156 3.171875 -2.394531 3.171875 -3.148438 Z M 3.171875 -3.148438 "/></g></g></g><g fill="#032130" fill-opacity="1"><g transform="translate(204.245337, 313.691199)"><g><path d="M 4.789062 0.210938 C 7.453125 0.210938 8.777344 -0.796875 8.777344 -2.8125 L 8.777344 -11.886719 C 8.777344 -13.902344 7.453125 -14.910156 4.789062 -14.910156 C 2.101562 -14.910156 0.796875 -13.902344 0.796875 -11.886719 L 0.796875 -2.8125 C 0.796875 -0.796875 2.101562 0.210938 4.789062 0.210938 Z M 3.171875 -3.148438 L 3.171875 -11.550781 C 3.171875 -12.304688 3.78125 -12.789062 4.789062 -12.789062 C 5.773438 -12.789062 6.382812 -12.328125 6.382812 -11.550781 L 6.382812 -3.148438 C 6.382812 -2.371094 5.773438 -1.910156 4.789062 -1.910156 C 3.78125 -1.910156 3.171875 -2.394531 3.171875 -3.148438 Z M 3.171875 -3.148438 "/></g></g></g><g fill="#032130" fill-opacity="1"><g transform="translate(214.87543, 289.791514)"><g><path d="M 11.398438 0.398438 C 18.160156 0.398438 21.199219 -1.800781 21.199219 -6.71875 L 21.199219 -28 L 14.398438 -28 L 14.398438 -7.71875 C 14.398438 -6.398438 13.277344 -5.601562 11.398438 -5.601562 C 9.558594 -5.601562 8.398438 -6.398438 8.398438 -7.71875 L 8.398438 -28 L 1.601562 -28 L 1.601562 -6.71875 C 1.601562 -1.800781 4.640625 0.398438 11.398438 0.398438 Z M 11.398438 0.398438 "/></g></g></g><g fill="#032130" fill-opacity="1"><g transform="translate(237.673169, 289.791514)"><g><path d="M 1.601562 0 L 8.398438 0 L 8.398438 -8 L 13.199219 -8 C 18.160156 -8 20.398438 -9.800781 20.398438 -13.800781 L 20.398438 -22.199219 C 20.398438 -26.199219 18.160156 -28 13.199219 -28 L 1.601562 -28 Z M 8.398438 -14 L 8.398438 -22 L 11.71875 -22 C 12.757812 -22 13.597656 -21.359375 13.597656 -20.597656 L 13.597656 -15.398438 C 13.597656 -14.597656 12.757812 -14 11.71875 -14 Z M 8.398438 -14 "/></g></g></g></svg>