<svg xmlns="http://www.w3.org/2000/svg" xmlns:xlink="http://www.w3.org/1999/xlink" width="500" zoomAndPan="magnify" viewBox="0 0 375 374.999991" height="500" preserveAspectRatio="xMidYMid meet" version="1.0"><defs><g/><clipPath id="d27273b851"><path d="M 75 37.5 L 299.835938 37.5 L 299.835938 193.5 L 75 193.5 Z M 75 37.5 " clip-rule="nonzero"/></clipPath></defs><rect x="-37.5" width="450" fill="#ffffff" y="-37.499999" height="449.999989" fill-opacity="1"/><rect x="-37.5" width="450" fill="#b68756" y="-37.499999" height="449.999989" fill-opacity="1"/><g clip-path="url(#d27273b851)"><path fill="#1e3f48" d="M 298.8125 133.578125 C 297.5 132.59375 296.1875 131.621094 294.59375 131.117188 C 294.074219 130.953125 293.550781 130.839844 293.679688 130.007812 C 294 127.945312 294.179688 125.859375 294.484375 123.796875 C 295.066406 119.886719 295.824219 116.003906 295.96875 112.042969 C 296.023438 110.488281 295.34375 109.375 293.832031 108.792969 C 292.464844 108.269531 291.109375 107.75 289.675781 107.402344 C 286.628906 106.671875 283.566406 106.046875 280.019531 105.996094 C 282.609375 103.238281 284.871094 100.738281 287.242188 98.347656 C 288.753906 96.820312 290.421875 95.449219 291.671875 93.679688 C 292.445312 92.578125 292.320312 91.738281 291.007812 91.113281 C 288.816406 90.070312 286.550781 89.230469 284.257812 88.445312 C 278.152344 86.355469 271.828125 85.3125 265.476562 84.34375 C 261.636719 83.757812 257.835938 82.9375 253.945312 82.65625 C 245.507812 82.054688 237.285156 83.796875 229.035156 84.976562 C 223.9375 85.707031 218.878906 86.988281 214.050781 88.925781 C 212.609375 89.507812 211.546875 89.507812 210.617188 87.921875 C 208.550781 84.402344 205.734375 81.417969 203.136719 78.296875 C 202.304688 77.292969 202.230469 76.59375 202.710938 75.488281 C 204.109375 72.289062 205.535156 69.089844 206.699219 65.804688 C 207.785156 62.757812 207.144531 60.332031 205.050781 59.363281 C 198.675781 56.40625 192.410156 53.179688 185.53125 51.429688 C 182.851562 50.75 180.753906 51.273438 179.175781 53.566406 C 178.832031 54.0625 178.546875 54.300781 177.992188 53.816406 C 174.628906 50.875 170.429688 49.371094 166.539062 47.367188 C 163.589844 45.851562 160.738281 44.117188 157.601562 42.960938 C 152.808594 41.199219 148.0625 39.332031 143.121094 37.964844 C 141.425781 37.496094 140.535156 37.625 139.476562 39.0625 C 132.59375 48.375 125.5 57.523438 118.441406 66.703125 C 113.9375 72.5625 109.851562 78.722656 105.15625 84.46875 C 97.445312 93.917969 89.769531 103.40625 82.550781 113.25 C 81.339844 114.898438 80.644531 116.566406 81.164062 118.59375 C 81.660156 120.535156 81.097656 122.128906 79.703125 123.511719 C 78.492188 124.710938 77.46875 126.074219 76.703125 127.597656 C 74.996094 130.996094 75.222656 132.609375 79.167969 134.796875 C 79.558594 135.011719 80 135.140625 80.414062 135.316406 C 83.882812 136.800781 87.703125 137.480469 91.019531 139.183594 C 95.152344 141.308594 99.371094 143.136719 103.75 144.617188 C 109.625 146.609375 115.066406 149.660156 121.019531 151.480469 C 126.824219 153.253906 132.738281 154.695312 138.234375 157.4375 C 145.304688 160.960938 153.125 162.589844 160.269531 165.960938 C 161.175781 166.386719 162.179688 166.609375 163.152344 166.882812 C 168.558594 168.417969 174.085938 169.617188 179.34375 171.554688 C 184.375 173.402344 189.484375 174.957031 194.625 176.386719 C 201.828125 178.398438 209.148438 179.972656 216.207031 182.53125 C 224.613281 185.578125 233.535156 187.019531 241.757812 190.683594 C 243.496094 191.457031 245.335938 192.0625 247.191406 192.511719 C 251.699219 193.601562 252.628906 193.210938 254.277344 190.972656 C 256.222656 188.339844 258.183594 185.714844 260.242188 183.171875 C 263.804688 178.777344 267.722656 174.691406 271.269531 170.28125 C 275.09375 165.523438 278.804688 160.671875 283.066406 156.269531 C 289.019531 150.117188 293.742188 142.949219 299.152344 136.347656 C 299.980469 135.335938 299.886719 134.382812 298.8125 133.578125 Z M 298.8125 133.578125 " fill-opacity="1" fill-rule="nonzero"/></g><path fill="#ffbd59" d="M 192.722656 66.21875 C 192.570312 67.355469 192.679688 68.171875 194.589844 67.816406 C 195.953125 67.5625 196.695312 68.976562 197.105469 70.152344 C 197.519531 71.347656 196.8125 72.085938 195.683594 72.414062 C 194.238281 72.835938 193.679688 73.394531 194.777344 74.890625 C 195.660156 76.089844 194.96875 77.359375 194.191406 78.460938 C 193.5 79.441406 192.765625 80.542969 191.378906 80.195312 C 189.949219 79.835938 189.476562 80.480469 189.089844 81.667969 C 188.289062 84.128906 186.875 85.101562 184.921875 84.703125 C 183.28125 84.367188 182.671875 83.433594 183 81.765625 C 183.332031 80.058594 183.21875 79.945312 181.480469 80.273438 C 179.785156 80.59375 178.628906 79.875 178.003906 78.105469 C 177.511719 76.707031 178.035156 75.242188 179.671875 74.753906 C 181.816406 74.113281 181.199219 73.269531 180.3125 72.035156 C 179.011719 70.222656 179.164062 68.421875 180.613281 66.613281 C 182.109375 64.75 183.164062 64.671875 184.929688 66.285156 C 185.335938 66.65625 185.667969 67.390625 186.207031 67.273438 C 186.921875 67.121094 186.53125 66.3125 186.644531 65.796875 C 187.308594 62.710938 189.222656 61.792969 191.722656 63.304688 C 192.820312 63.96875 192.777344 64.933594 192.722656 66.21875 Z M 183.871094 74.777344 C 183.871094 77.050781 185 78.296875 187.027344 78.273438 C 189.242188 78.246094 191.6875 75.753906 191.699219 73.515625 C 191.707031 71.652344 189.238281 69.480469 187.175781 69.53125 C 185.480469 69.574219 183.867188 72.132812 183.871094 74.777344 Z M 171.574219 90.101562 C 168.222656 94.402344 167.636719 101.257812 170.324219 105.699219 C 171.558594 100.378906 172.640625 95.449219 171.574219 90.101562 Z M 178.710938 111.773438 C 183.304688 109.226562 185.28125 106.761719 186.242188 102.265625 C 182.683594 104.789062 179.972656 107.585938 178.710938 111.773438 Z M 178.710938 111.773438 " fill-opacity="1" fill-rule="nonzero"/><path fill="#d0ccb9" d="M 205.277344 63.46875 C 205.277344 64.503906 205.011719 65.476562 204.597656 66.414062 C 197.6875 82.089844 191.320312 97.964844 186.230469 114.34375 C 184.847656 118.792969 183.332031 123.222656 181.214844 127.414062 C 180.421875 128.984375 179.546875 129.464844 177.792969 129.035156 C 174.230469 128.160156 170.785156 126.902344 167.355469 125.679688 C 163.789062 124.410156 160.171875 123.398438 156.515625 122.503906 C 154.863281 122.097656 154.257812 121.421875 154.664062 119.707031 C 155.429688 116.46875 156.273438 113.277344 157.675781 110.230469 C 158.757812 107.882812 159.597656 105.421875 160.492188 102.992188 C 164.125 93.101562 168.082031 83.34375 172.507812 73.777344 C 173.734375 71.125 174.75 68.363281 175.671875 65.589844 C 176.878906 61.941406 178.6875 58.558594 180.167969 55.03125 C 181.207031 52.558594 182.484375 52.097656 185.015625 52.808594 C 191.664062 54.679688 197.746094 57.917969 204.054688 60.605469 C 205.042969 61.027344 205.320312 61.800781 205.277344 63.46875 Z M 198.707031 70.746094 C 198.546875 69.226562 197.878906 67.835938 196.648438 67.179688 C 195.035156 66.320312 193.921875 65.375 193.773438 63.457031 C 193.726562 62.828125 193.085938 62.457031 192.546875 62.132812 C 189.410156 60.230469 187.457031 60.820312 185.792969 64.210938 C 185.53125 64.75 185.433594 64.949219 184.804688 64.523438 C 184.042969 64.007812 183.195312 63.515625 182.136719 63.902344 C 179.597656 64.824219 176.6875 69.003906 178.875 72.230469 C 179.554688 73.230469 179.273438 73.5 178.417969 74.078125 C 175.675781 75.925781 175.957031 80.207031 179.046875 81.265625 C 180.714844 81.832031 181.445312 82.402344 181.980469 84.117188 C 182.367188 85.363281 182.804688 86.230469 181.972656 87.378906 C 181.664062 87.808594 181.589844 88.425781 181.472656 88.972656 C 180.839844 91.976562 179.671875 94.769531 178.113281 97.402344 C 177.390625 98.617188 176.910156 99.9375 176.394531 101.25 C 174.871094 105.160156 174.128906 109.230469 173.65625 113.386719 C 173.328125 116.304688 172.019531 118.984375 171.179688 121.777344 C 171.035156 122.265625 170.703125 122.808594 171.375 123.054688 C 172 123.28125 172.269531 122.75 172.433594 122.238281 C 173.339844 119.351562 174.691406 116.59375 175.082031 113.550781 C 175.605469 109.464844 176.257812 105.394531 177.90625 101.601562 C 179.917969 96.972656 182.503906 92.582031 183.429688 87.527344 C 183.492188 87.207031 183.746094 86.921875 183.832031 86.601562 C 183.96875 86.070312 184.335938 86.09375 184.75 86.113281 C 187.496094 86.253906 189.230469 85.234375 190.222656 82.722656 C 190.511719 81.992188 190.726562 81.664062 191.59375 81.640625 C 194.636719 81.550781 197.25 77.757812 196.269531 74.796875 C 195.992188 73.96875 196.144531 73.773438 196.839844 73.503906 C 198.082031 73.019531 198.589844 71.980469 198.707031 70.746094 Z M 173.371094 94.488281 C 173.5625 92.480469 173.324219 90.546875 172.355469 88.753906 C 172.125 88.324219 171.964844 87.761719 171.320312 87.800781 C 170.714844 87.832031 170.519531 88.339844 170.292969 88.789062 C 169.121094 91.089844 168.066406 93.460938 167.359375 95.933594 C 166.335938 99.527344 167.398438 102.90625 168.917969 106.152344 C 169.171875 106.695312 169.625 107.246094 170.363281 107.113281 C 171.027344 106.992188 171.132812 106.351562 171.320312 105.835938 C 172.644531 102.167969 173.300781 98.375 173.371094 94.488281 Z M 177.464844 113.910156 C 184.027344 111.132812 186.921875 107.460938 188.066406 101.671875 C 188.175781 101.125 188.207031 100.6875 187.769531 100.292969 C 187.238281 99.8125 186.816406 100.234375 186.40625 100.480469 C 183.292969 102.34375 180.761719 104.820312 178.949219 107.957031 C 177.910156 109.75 177.3125 111.714844 177.464844 113.910156 Z M 194.523438 128.121094 C 199.308594 127.121094 203.921875 125.484375 208.636719 124.207031 C 209.921875 123.859375 211.347656 123.445312 212.175781 122.339844 C 215.320312 118.140625 218.464844 113.9375 221.191406 109.445312 C 221.789062 108.457031 221.445312 108.222656 220.425781 108.136719 C 218.585938 107.980469 216.859375 108.488281 215.109375 108.851562 C 209.207031 110.082031 204.027344 112.441406 200.726562 117.875 C 199.851562 119.316406 198.679688 120.570312 197.640625 121.90625 C 196.128906 123.855469 194.390625 125.644531 193.289062 128.199219 C 193.859375 128.164062 194.199219 128.1875 194.523438 128.121094 Z M 187.484375 71.441406 C 186.195312 71.394531 185.292969 72.714844 185.300781 74.753906 C 185.308594 75.878906 185.738281 76.726562 187.0625 76.726562 C 188.460938 76.722656 189.980469 75.085938 190.003906 73.5625 C 190.019531 72.339844 189.023438 71.5 187.484375 71.441406 Z M 187.484375 71.441406 " fill-opacity="1" fill-rule="nonzero"/><path fill="#106585" d="M 81.242188 124.183594 C 81.28125 124.722656 81.351562 124.992188 81.308594 125.242188 C 80.761719 128.457031 82.328125 130.066406 85.246094 131.128906 C 95.652344 134.921875 106.039062 138.777344 116.359375 142.792969 C 126.117188 146.59375 135.898438 150.351562 145.273438 155.042969 C 149.359375 157.089844 153.761719 158.324219 157.914062 160.230469 C 160.246094 161.304688 163.242188 161.078125 165.882812 161.828125 C 174.1875 164.179688 182.757812 165.21875 191.195312 166.90625 C 207.816406 170.230469 224.03125 174.851562 239.585938 181.664062 C 242.105469 182.769531 244.390625 184.363281 247.125 185.039062 C 248.351562 185.34375 249.265625 185.359375 250.152344 184.382812 C 253.726562 180.449219 257.121094 176.367188 260.558594 172.316406 C 266.554688 165.246094 272.71875 158.320312 278.824219 151.34375 C 282.027344 147.6875 285.210938 144.007812 288.8125 140.71875 C 291.023438 138.699219 292.675781 136.308594 293.273438 133.324219 C 293.480469 132.308594 293.945312 132.359375 294.644531 132.746094 C 294.742188 132.800781 294.839844 132.859375 294.941406 132.90625 C 298.332031 134.558594 298.324219 134.652344 295.984375 137.511719 C 291.757812 142.675781 288.136719 148.324219 283.535156 153.175781 C 274.847656 162.339844 267.5 172.636719 259.03125 181.984375 C 256.84375 184.402344 255.03125 187.164062 253.109375 189.808594 C 252.007812 191.320312 250.519531 191.894531 248.296875 191.175781 C 245.300781 190.207031 242.289062 189.230469 239.40625 187.976562 C 233.328125 185.328125 226.730469 184.386719 220.558594 182.136719 C 209.054688 177.945312 196.953125 175.824219 185.414062 171.855469 C 177.582031 169.15625 169.527344 167.261719 161.710938 164.589844 C 155.015625 162.296875 148.335938 159.878906 141.859375 157.042969 C 135.285156 154.164062 128.582031 151.769531 121.691406 149.820312 C 116.027344 148.222656 110.90625 145.269531 105.378906 143.3125 C 100.710938 141.660156 96.035156 140.035156 91.734375 137.453125 C 90.136719 136.496094 88.140625 136.191406 86.308594 135.640625 C 83.710938 134.859375 81.253906 133.738281 78.808594 132.585938 C 77.511719 131.96875 76.96875 131.105469 77.542969 129.59375 C 78.316406 127.550781 79.605469 125.929688 81.242188 124.183594 Z M 81.242188 124.183594 " fill-opacity="1" fill-rule="nonzero"/><path fill="#e3d8d6" d="M 152.566406 120.660156 C 149.410156 118.59375 146.53125 116.320312 143.421875 114.375 C 132.683594 107.652344 121.511719 101.832031 109.511719 97.675781 C 108.980469 97.492188 108.425781 97.382812 107.890625 97.214844 C 107.355469 97.042969 106.695312 96.664062 106.425781 97.398438 C 106.082031 98.324219 107.054688 98.3125 107.542969 98.515625 C 111.597656 100.199219 115.761719 101.644531 119.714844 103.535156 C 129.90625 108.410156 139.925781 113.609375 149.03125 120.382812 C 151.980469 122.578125 154.933594 124.765625 157.90625 126.921875 C 160.867188 129.070312 163.332031 131.695312 165.476562 134.632812 C 165.578125 134.769531 165.648438 134.929688 165.753906 135.058594 C 166.171875 135.566406 166.699219 136.039062 167.328125 135.550781 C 167.894531 135.109375 167.535156 134.546875 167.210938 134.050781 C 165.515625 131.488281 163.457031 129.246094 161.175781 127.207031 C 160.472656 126.578125 159.722656 126 159.074219 125.242188 C 166.132812 126.550781 172.539062 130.054688 179.847656 131.089844 C 173.050781 139.726562 166.199219 148.183594 159.367188 156.40625 C 153.671875 148.835938 146.714844 142.578125 138.449219 137.558594 C 129.074219 131.859375 118.816406 128.21875 108.769531 124.132812 C 100.402344 120.730469 91.632812 118.3125 82.820312 115.386719 C 84.164062 113.640625 85.554688 111.957031 86.820312 110.179688 C 93.085938 101.386719 100.128906 93.195312 106.898438 84.804688 C 111.453125 79.160156 115.394531 73.109375 119.789062 67.375 C 126.734375 58.324219 133.789062 49.355469 140.390625 40.046875 C 141.019531 39.160156 141.492188 39.054688 142.527344 39.324219 C 147.480469 40.632812 152.226562 42.515625 157 44.332031 C 159.703125 45.363281 162.175781 46.832031 164.730469 48.140625 C 168.832031 50.246094 173.1875 51.878906 176.941406 54.675781 C 177.929688 55.410156 178.0625 55.917969 177.523438 56.957031 C 175.980469 59.9375 174.605469 63 173.628906 66.261719 C 164.628906 59.035156 154.480469 54.488281 143.992188 50.605469 C 143.484375 50.414062 142.539062 49.421875 142.179688 50.507812 C 141.863281 51.460938 143.054688 51.613281 143.746094 51.910156 C 149.128906 54.214844 154.539062 56.460938 159.6875 59.265625 C 163.503906 61.34375 167.339844 63.410156 170.742188 66.15625 C 172.867188 67.871094 172.855469 67.882812 171.964844 70.351562 C 170.734375 73.75 169.054688 76.949219 167.605469 80.253906 C 167.210938 81.152344 166.949219 81.304688 166.144531 80.597656 C 163.34375 78.128906 160.28125 75.984375 157.292969 73.75 C 151.035156 69.070312 143.910156 66.054688 136.820312 62.964844 C 136.109375 62.652344 135.363281 62.417969 134.753906 61.863281 C 134.300781 61.453125 133.660156 61.425781 133.308594 62.054688 C 132.992188 62.628906 133.402344 63.042969 133.878906 63.277344 C 135.597656 64.117188 137.300781 65.003906 139.074219 65.726562 C 148.699219 69.632812 157.183594 75.367188 165.164062 81.925781 C 166 82.613281 166.34375 83.226562 165.855469 84.347656 C 164.527344 87.394531 163.308594 90.488281 162.089844 93.582031 C 161.71875 94.523438 161.425781 94.53125 160.570312 93.957031 C 152.035156 88.242188 143.742188 82.140625 134.582031 77.402344 C 131.929688 76.03125 129.238281 74.746094 126.285156 74.101562 C 125.683594 73.972656 125.066406 73.816406 124.875 74.503906 C 124.671875 75.234375 125.351562 75.398438 125.910156 75.554688 C 129.851562 76.660156 133.417969 78.589844 136.941406 80.609375 C 144.644531 85.027344 151.785156 90.304688 159.230469 95.117188 C 160.445312 95.902344 160.878906 96.582031 160.222656 98.066406 C 159.132812 100.535156 158.296875 103.117188 157.429688 105.679688 C 157.117188 106.601562 156.828125 106.523438 156.160156 106.007812 C 145.207031 97.523438 132.871094 91.667969 119.890625 87.039062 C 118.710938 86.621094 117.515625 86.34375 116.253906 86.394531 C 115.847656 86.410156 115.394531 86.417969 115.328125 86.921875 C 115.25 87.5 115.691406 87.648438 116.160156 87.78125 C 126.511719 90.734375 136.253906 95.085938 145.359375 100.8125 C 148.796875 102.976562 152.367188 104.964844 155.46875 107.628906 C 155.894531 107.996094 156.570312 108.203125 156.121094 109.089844 C 154.304688 112.691406 153.390625 116.585938 152.566406 120.660156 Z M 99.738281 107.199219 C 99.378906 107.160156 99.007812 107.246094 98.96875 107.648438 C 98.914062 108.191406 99.277344 108.40625 99.789062 108.519531 C 101.441406 108.871094 103.105469 109.179688 104.71875 109.664062 C 117.699219 113.554688 129.316406 120.273438 140.820312 127.199219 C 148.066406 131.558594 154.910156 136.449219 160.289062 143.113281 C 160.664062 143.574219 161.148438 144.207031 161.820312 143.566406 C 162.457031 142.957031 161.890625 142.40625 161.511719 141.949219 C 159.011719 138.941406 156.351562 136.070312 153.300781 133.628906 C 147.863281 129.28125 141.746094 125.964844 135.859375 122.28125 C 126.605469 116.492188 116.824219 112.023438 106.5 108.613281 C 104.289062 107.882812 102.039062 107.46875 99.738281 107.199219 Z M 162.546875 155.464844 C 165.929688 150.9375 169.664062 146.6875 173.179688 142.269531 C 182.15625 130.992188 190.808594 119.476562 199.449219 107.945312 C 203.277344 102.839844 207.101562 97.726562 210.90625 92.601562 C 211.671875 91.570312 212.609375 90.921875 213.847656 90.5 C 218.808594 88.800781 223.886719 87.378906 229.042969 86.679688 C 237.242188 85.566406 245.402344 83.769531 253.777344 84.378906 C 257.613281 84.65625 261.359375 85.472656 265.144531 86.082031 C 271.378906 87.089844 277.613281 88.0625 283.601562 90.148438 C 285.359375 90.761719 287.082031 91.464844 288.835938 92.074219 C 290.09375 92.507812 290.402344 92.929688 289.285156 94.023438 C 286.902344 96.355469 284.460938 98.621094 282.136719 101.015625 C 275.015625 108.351562 268.457031 116.175781 261.855469 123.957031 C 257.507812 129.078125 252.75 133.871094 248.941406 139.433594 C 246.328125 143.253906 243.917969 147.210938 240.976562 150.804688 C 240.367188 151.550781 239.832031 151.765625 239 151.535156 C 234.554688 150.300781 229.976562 150.257812 225.421875 149.898438 C 221.59375 149.59375 217.761719 149.089844 213.929688 149.164062 C 206.480469 149.304688 199.015625 148.761719 191.582031 149.792969 C 187.5625 150.351562 183.464844 150.339844 179.472656 151.144531 C 173.832031 152.28125 168.398438 154.175781 162.882812 155.761719 C 162.769531 155.664062 162.660156 155.5625 162.546875 155.464844 Z M 193.226562 129.949219 C 193.792969 129.90625 194.136719 129.910156 194.46875 129.847656 C 199.515625 128.933594 204.378906 127.328125 209.285156 125.898438 C 210.890625 125.429688 212.585938 124.863281 213.640625 123.429688 C 216.917969 118.96875 220.335938 114.601562 223.035156 109.746094 C 224.140625 107.757812 223.820312 107.28125 221.660156 106.769531 C 218.9375 106.121094 216.398438 107.042969 213.832031 107.527344 C 209.128906 108.417969 204.675781 109.84375 201.753906 114.136719 C 200.457031 116.046875 198.863281 117.753906 197.421875 119.566406 C 195.273438 122.257812 193 124.847656 191.347656 127.910156 C 190.75 129.019531 190.21875 129.800781 192.140625 129.699219 C 192.566406 129.679688 193.003906 129.894531 193.226562 129.949219 Z M 243.371094 102.027344 C 250.902344 102.371094 258.484375 102.425781 265.679688 105.203125 C 266.398438 105.480469 267.273438 105.75 267.539062 104.8125 C 267.78125 103.957031 266.824219 103.84375 266.222656 103.59375 C 259.460938 100.785156 252.25 100.511719 245.125 100.207031 C 238.933594 99.941406 232.714844 100.046875 226.511719 100.667969 C 222.578125 101.0625 218.632812 101.308594 214.824219 102.417969 C 212.453125 103.109375 210.136719 103.996094 207.816406 104.84375 C 207.433594 104.984375 206.875 105.273438 207.085938 105.820312 C 207.292969 106.351562 207.855469 106.132812 208.28125 106.070312 C 208.5 106.039062 208.699219 105.894531 208.914062 105.832031 C 213.238281 104.585938 217.515625 103.035156 222.039062 102.765625 C 229.136719 102.339844 236.21875 101.300781 243.371094 102.027344 Z M 244.066406 92.554688 C 240.230469 92.242188 236.945312 93.550781 233.53125 93.859375 C 227.074219 94.4375 220.757812 95.832031 214.394531 96.984375 C 213.917969 97.070312 213.0625 97.128906 213.195312 97.863281 C 213.332031 98.597656 214.144531 98.363281 214.648438 98.28125 C 220.148438 97.414062 225.609375 96.269531 231.164062 95.792969 C 234.707031 95.488281 238.167969 94.371094 241.6875 94.316406 C 247.140625 94.234375 252.601562 93.496094 258.074219 94.539062 C 262.097656 95.300781 266.292969 95.066406 270.222656 96.507812 C 270.898438 96.757812 271.660156 96.796875 272.386719 96.871094 C 273.042969 96.9375 273.976562 97.070312 274.117188 96.308594 C 274.257812 95.554688 273.414062 95.300781 272.714844 95.167969 C 271.996094 95.03125 271.28125 94.882812 270.570312 94.703125 C 263.425781 92.882812 256.144531 92.253906 248.800781 92.242188 C 247.109375 92.238281 245.417969 92.460938 244.066406 92.554688 Z M 224.613281 132.648438 C 229.558594 132.59375 234.007812 133.503906 238.191406 135.304688 C 239.222656 135.75 240.269531 136.207031 241.421875 136.167969 C 241.855469 136.152344 242.359375 136 242.480469 135.46875 C 242.585938 135.015625 242.347656 134.714844 241.875 134.640625 C 239.445312 134.273438 237.371094 132.914062 235.046875 132.222656 C 227.101562 129.851562 218.964844 130.910156 210.964844 131.136719 C 201.972656 131.386719 193.09375 133.25 184.382812 135.65625 C 183.902344 135.789062 183.210938 135.746094 183.300781 136.417969 C 183.402344 137.152344 184.132812 137.09375 184.679688 137 C 186.0625 136.765625 187.449219 136.523438 188.808594 136.179688 C 195.820312 134.390625 202.964844 133.441406 210.15625 132.914062 C 215.101562 132.550781 220.074219 133.019531 224.613281 132.648438 Z M 214.339844 139.105469 C 203.1875 139.046875 194.042969 140.339844 184.917969 141.867188 C 182.8125 142.21875 180.710938 142.578125 178.617188 142.984375 C 178.230469 143.058594 177.609375 143.09375 177.742188 143.769531 C 177.875 144.421875 178.34375 144.433594 178.917969 144.34375 C 181.363281 143.960938 183.8125 143.601562 186.265625 143.273438 C 191.625 142.554688 196.964844 141.605469 202.347656 141.21875 C 208.925781 140.746094 215.53125 140.515625 222.125 141.433594 C 225.96875 141.964844 229.878906 142.019531 233.398438 144 C 234.09375 144.390625 235.03125 144.378906 235.863281 144.5 C 236.382812 144.578125 236.972656 144.515625 237.0625 143.875 C 237.144531 143.289062 236.644531 142.84375 236.152344 142.855469 C 234.53125 142.890625 233.285156 141.917969 231.863281 141.425781 C 225.566406 139.253906 218.953125 139.6875 214.339844 139.105469 Z M 261.171875 110.960938 C 261.109375 110.507812 260.832031 110.25 260.429688 110.109375 C 259.535156 109.792969 258.652344 109.410156 257.734375 109.179688 C 253.527344 108.113281 249.253906 107.453125 244.914062 107.207031 C 239.425781 106.902344 233.976562 107.296875 228.539062 107.945312 C 228.089844 108 227.027344 107.835938 227.164062 108.757812 C 227.269531 109.453125 228.097656 109.203125 228.632812 109.179688 C 231.847656 109.054688 235.070312 108.972656 238.277344 108.742188 C 242.417969 108.441406 246.507812 108.984375 250.585938 109.429688 C 253.644531 109.761719 256.683594 110.453125 259.582031 111.578125 C 260.316406 111.863281 260.90625 111.824219 261.171875 110.960938 Z M 230.785156 114.597656 C 229.03125 114.597656 227.277344 114.59375 225.523438 114.597656 C 225.007812 114.597656 224.390625 114.59375 224.386719 115.277344 C 224.382812 115.929688 224.988281 115.988281 225.511719 116.023438 C 226.414062 116.082031 227.3125 116.195312 228.214844 116.199219 C 234.097656 116.246094 239.945312 116.65625 245.75 117.648438 C 248.132812 118.054688 250.523438 118.417969 252.828125 119.191406 C 253.410156 119.386719 254.160156 119.703125 254.453125 118.953125 C 254.78125 118.105469 253.988281 117.808594 253.34375 117.574219 C 252.710938 117.34375 252.074219 117.113281 251.417969 116.964844 C 244.625 115.445312 237.753906 114.605469 230.785156 114.597656 Z M 226.140625 121.476562 C 224.933594 121.476562 223.070312 121.480469 221.203125 121.476562 C 220.617188 121.472656 219.949219 121.53125 219.890625 122.207031 C 219.816406 123.039062 220.574219 122.9375 221.117188 122.953125 C 223.265625 123.003906 225.414062 123.132812 227.558594 123.054688 C 233.832031 122.828125 239.847656 124.378906 245.917969 125.574219 C 246.710938 125.730469 247.851562 126.792969 248.253906 125.574219 C 248.664062 124.335938 247.140625 124.351562 246.335938 123.976562 C 246.230469 123.925781 246.128906 123.871094 246.019531 123.851562 C 239.664062 122.640625 233.359375 121.023438 226.140625 121.476562 Z M 166.351562 158.65625 C 172.226562 157.984375 178.101562 158.1875 183.964844 158.597656 C 189.023438 158.949219 194.0625 159.585938 199.109375 160.125 C 204.316406 160.683594 209.550781 160.988281 214.71875 161.957031 C 222.734375 163.457031 230.765625 164.855469 238.363281 167.980469 C 239.558594 168.472656 240.441406 168.140625 241.167969 167.171875 C 243.917969 163.496094 247.226562 160.304688 250.394531 157.027344 C 255.46875 151.789062 260.292969 146.320312 265.222656 140.960938 C 274.328125 131.058594 283.292969 121.03125 292.90625 111.609375 C 293.878906 110.652344 293.472656 110.480469 292.519531 110.105469 C 288.324219 108.457031 283.9375 107.84375 279.484375 107.527344 C 279.019531 107.496094 278.613281 107.507812 278.265625 107.917969 C 276.21875 110.332031 273.722656 112.339844 271.828125 114.894531 C 267.207031 121.128906 261.765625 126.667969 256.816406 132.625 C 253.707031 136.367188 250.585938 140.046875 247.945312 144.140625 C 246.511719 146.371094 244.917969 148.5 243.355469 150.644531 C 241.765625 152.820312 239.921875 154.371094 237.011719 152.894531 C 236.71875 152.746094 236.359375 152.722656 236.027344 152.664062 C 231.238281 151.792969 226.359375 151.835938 221.53125 151.371094 C 213.8125 150.625 206.039062 150.804688 198.296875 151.027344 C 193.0625 151.179688 187.832031 151.886719 182.621094 152.492188 C 176.375 153.222656 170.496094 155.472656 164.472656 157.125 C 163.40625 157.417969 162.34375 157.824219 161.277344 158.683594 C 163.097656 158.683594 164.746094 158.839844 166.351562 158.65625 Z M 84.6875 129.210938 C 89.992188 131.246094 95.230469 133.464844 100.601562 135.316406 C 113.054688 139.605469 125.324219 144.386719 137.425781 149.554688 C 144.28125 152.484375 151.03125 155.667969 157.960938 158.410156 C 157.527344 156.738281 156.621094 155.25 155.382812 153.90625 C 152.46875 150.738281 149.429688 147.703125 146.128906 144.945312 C 143.964844 143.136719 141.738281 141.390625 139.285156 139.964844 C 133.042969 136.332031 126.578125 133.195312 119.875 130.460938 C 111.800781 127.167969 103.832031 123.636719 95.441406 121.171875 C 91.191406 119.925781 87.023438 118.414062 82.691406 116.976562 C 82.691406 117.871094 82.699219 118.601562 82.6875 119.332031 C 82.675781 119.929688 82.90625 120.320312 83.539062 120.367188 C 86.957031 120.640625 90.046875 122.066406 93.234375 123.140625 C 100.429688 125.558594 107.597656 128.066406 114.597656 130.984375 C 118.6875 132.6875 122.699219 134.722656 126.832031 136.222656 C 132.59375 138.3125 137.675781 141.433594 142.792969 144.609375 C 145.238281 146.125 147.015625 148.320312 149.121094 150.515625 C 147.964844 150.644531 147.46875 150.050781 146.953125 149.582031 C 142.679688 145.726562 137.625 143.074219 132.65625 140.300781 C 129.953125 138.789062 126.816406 138.246094 124.085938 136.753906 C 120.023438 134.542969 115.644531 133.046875 111.378906 131.335938 C 103.972656 128.363281 96.378906 125.855469 88.871094 123.140625 C 86.890625 122.425781 84.875 121.890625 82.917969 121.652344 C 82.058594 123.789062 83.183594 124.632812 84.867188 125.25 C 86.398438 125.816406 87.890625 126.429688 89.542969 126.605469 C 92.5625 126.929688 95.097656 128.738281 97.976562 129.476562 C 101.972656 130.503906 105.707031 132.207031 109.539062 133.675781 C 113.535156 135.207031 117.300781 137.351562 121.296875 138.761719 C 126.25 140.507812 130.996094 142.667969 135.808594 144.707031 C 137.75 145.527344 139.554688 146.558594 141.1875 147.871094 C 142.320312 148.789062 143.4375 149.761719 144.058594 151.160156 C 141.257812 149.425781 138.601562 147.535156 135.570312 146.269531 C 132.503906 144.988281 129.464844 143.652344 126.445312 142.257812 C 123.636719 140.960938 120.558594 140.476562 117.769531 139.027344 C 111.675781 135.859375 105.214844 133.523438 98.753906 131.191406 C 93.535156 129.308594 88.152344 127.945312 82.800781 125.921875 C 82.503906 127.558594 83.140625 128.617188 84.6875 129.210938 Z M 245.347656 182.546875 C 245.296875 181.316406 244.644531 180.183594 243.628906 179.890625 C 238.476562 178.402344 233.761719 175.839844 228.746094 174.019531 C 223 171.929688 217.054688 170.53125 211.171875 168.914062 C 210.757812 168.800781 210.269531 168.667969 210.4375 168.015625 C 211.6875 167.796875 212.902344 167.917969 214.105469 168.292969 C 215.925781 168.859375 217.734375 169.488281 219.582031 169.949219 C 224.859375 171.273438 230.109375 172.613281 235.070312 174.960938 C 237.488281 176.101562 239.957031 177.230469 242.609375 177.816406 C 242.660156 177.757812 242.714844 177.699219 242.773438 177.644531 C 242.675781 177.261719 242.5625 176.882812 242.488281 176.496094 C 242.199219 174.921875 241.4375 174.011719 239.703125 173.695312 C 237.222656 173.25 234.804688 172.449219 232.355469 171.808594 C 225.5625 170.035156 218.785156 168.210938 211.894531 166.8125 C 207.707031 165.960938 203.472656 165.460938 199.246094 164.796875 C 199.4375 164.207031 199.828125 164.1875 200.234375 164.1875 C 201.988281 164.199219 203.765625 164.023438 205.488281 164.257812 C 212.734375 165.238281 219.828125 166.964844 226.882812 168.855469 C 231.625 170.128906 236.394531 171.304688 241.320312 172.570312 C 240.832031 171.054688 240.527344 169.714844 238.613281 169.820312 C 237.976562 169.855469 237.3125 169.511719 236.671875 169.296875 C 232.78125 167.996094 228.988281 166.390625 224.898438 165.699219 C 218.734375 164.664062 212.652344 163.054688 206.410156 162.578125 C 198.921875 162.003906 191.503906 160.789062 184.011719 160.289062 C 178.359375 159.914062 172.695312 159.714844 167.015625 160.351562 C 168.949219 160.902344 170.882812 161.429688 172.851562 161.796875 C 183.121094 163.722656 193.421875 165.460938 203.589844 167.902344 C 217.035156 171.128906 230.097656 175.464844 242.667969 181.246094 C 243.574219 181.660156 244.234375 182.597656 245.363281 182.527344 Z M 246.347656 169.152344 C 250.625 164.804688 254.945312 160.496094 259.222656 156.148438 C 263.742188 151.554688 268.398438 147.078125 272.691406 142.28125 C 278.273438 136.042969 283.921875 129.863281 289.898438 124.023438 C 293.230469 120.765625 293.90625 117.027344 294.105469 112.640625 C 289.375 117.574219 284.703125 122.3125 280.183594 127.1875 C 272.882812 135.058594 265.6875 143.027344 258.429688 150.9375 C 256.027344 153.558594 253.78125 156.300781 251.21875 158.796875 C 248.679688 161.269531 246.347656 163.984375 243.90625 166.574219 C 241.519531 169.097656 241.605469 169.179688 243.480469 172.386719 C 244.484375 171.246094 245.363281 170.148438 246.347656 169.152344 Z M 185.421875 123.597656 C 186.464844 122.265625 187.507812 120.929688 188.554688 119.597656 C 195.816406 110.367188 202.488281 100.6875 209.929688 91.59375 C 210.253906 91.195312 211.058594 90.863281 210.445312 90.058594 C 207.585938 86.296875 204.648438 82.597656 201.429688 78.855469 C 199.972656 82.121094 198.621094 85.253906 197.179688 88.34375 C 196.734375 89.296875 196.914062 89.90625 197.722656 90.480469 C 199.171875 91.507812 200.335938 92.8125 201.300781 94.289062 C 201.609375 94.761719 202.3125 95.320312 201.558594 95.878906 C 200.765625 96.46875 200.304688 95.6875 199.945312 95.171875 C 198.90625 93.679688 197.652344 92.421875 196.167969 91.191406 C 194.867188 94.925781 193.699219 98.574219 192.3125 102.136719 C 191.695312 103.714844 191.410156 104.984375 192.929688 106.152344 C 193.316406 106.449219 193.675781 106.980469 193.234375 107.476562 C 192.734375 108.039062 192.34375 107.5 191.949219 107.214844 C 191.605469 106.960938 191.453125 106.4375 190.800781 106.457031 C 188.925781 112.082031 187.046875 117.726562 185.167969 123.371094 C 185.253906 123.445312 185.339844 123.519531 185.421875 123.597656 Z M 283.054688 140.464844 C 277.480469 146.15625 271.949219 151.894531 266.296875 157.519531 C 259.894531 163.886719 254.351562 171.082031 247.789062 177.324219 C 245.804688 179.214844 245.867188 179.277344 247.242188 181.691406 C 248.382812 183.699219 248.554688 183.664062 250.085938 181.839844 C 254.707031 176.351562 259.3125 170.84375 264.042969 165.449219 C 272.164062 156.179688 279.917969 146.582031 288.878906 138.074219 C 290.726562 136.320312 292.066406 134.210938 291.445312 131.191406 C 288.574219 134.375 285.925781 137.527344 283.054688 140.464844 Z M 246.347656 176.636719 C 249.527344 173.492188 252.421875 170.082031 255.5 166.855469 C 260.527344 161.585938 265.222656 156.023438 270.542969 150.992188 C 277.476562 144.433594 283.796875 137.226562 290.375 130.289062 C 292.144531 128.425781 292.753906 126.3125 292.316406 123.570312 C 291.234375 124.710938 290.179688 125.804688 289.144531 126.917969 C 282.519531 134.042969 276.082031 141.339844 269.226562 148.25 C 265.082031 152.421875 260.9375 156.605469 256.863281 160.84375 C 253.296875 164.554688 249.507812 168.035156 245.980469 171.785156 C 243.542969 174.378906 243.390625 174.238281 244.816406 177.546875 C 244.835938 177.59375 244.890625 177.625 245.25 177.972656 C 245.636719 177.496094 245.953125 177.023438 246.347656 176.636719 Z M 246.347656 176.636719 " fill-opacity="1" fill-rule="nonzero"/><g fill="#d0ccb9" fill-opacity="1"><g transform="translate(95.530452, 268.541295)"><g><path d="M 45.0625 -49.6875 C 44.726562 -45.25 44.5625 -41.273438 44.5625 -37.765625 C 44.5625 -35.566406 44.632812 -33.785156 44.78125 -32.421875 L 43.171875 -32.421875 C 42.046875 -38.179688 40.507812 -42.226562 38.5625 -44.5625 C 36.625 -46.90625 33.972656 -48.078125 30.609375 -48.078125 L 28.984375 -48.078125 L 28.984375 -8 C 28.984375 -6.03125 29.179688 -4.601562 29.578125 -3.71875 C 29.984375 -2.832031 30.6875 -2.234375 31.6875 -1.921875 C 32.695312 -1.617188 34.300781 -1.445312 36.5 -1.40625 L 36.5 0 C 30.601562 -0.132812 26.15625 -0.203125 23.15625 -0.203125 C 20.207031 -0.203125 15.925781 -0.132812 10.3125 0 L 10.3125 -1.40625 C 12.507812 -1.445312 14.113281 -1.617188 15.125 -1.921875 C 16.132812 -2.234375 16.835938 -2.832031 17.234375 -3.71875 C 17.628906 -4.601562 17.828125 -6.03125 17.828125 -8 L 17.828125 -48.078125 L 16.28125 -48.078125 C 14.039062 -48.078125 12.132812 -47.582031 10.5625 -46.59375 C 9 -45.613281 7.65625 -43.988281 6.53125 -41.71875 C 5.40625 -39.457031 4.445312 -36.359375 3.65625 -32.421875 L 2.03125 -32.421875 C 2.175781 -33.785156 2.25 -35.566406 2.25 -37.765625 C 2.25 -41.273438 2.082031 -45.25 1.75 -49.6875 C 6.007812 -49.550781 13.238281 -49.484375 23.4375 -49.484375 C 33.644531 -49.484375 40.851562 -49.550781 45.0625 -49.6875 Z M 45.0625 -49.6875 "/></g></g></g><g fill="#d0ccb9" fill-opacity="1"><g transform="translate(138.057865, 268.541295)"><g><path d="M 40.84375 -10.671875 C 40.84375 -6.367188 41.007812 -2.8125 41.34375 0 C 38.15625 -0.132812 32.796875 -0.203125 25.265625 -0.203125 C 15.066406 -0.203125 7.441406 -0.132812 2.390625 0 L 2.390625 -1.40625 C 3.929688 -1.5 5.0625 -1.6875 5.78125 -1.96875 C 6.507812 -2.25 7.003906 -2.785156 7.265625 -3.578125 C 7.523438 -4.367188 7.65625 -5.65625 7.65625 -7.4375 L 7.65625 -42.25 C 7.65625 -44.03125 7.523438 -45.316406 7.265625 -46.109375 C 7.003906 -46.910156 6.507812 -47.453125 5.78125 -47.734375 C 5.0625 -48.015625 3.929688 -48.195312 2.390625 -48.28125 L 2.390625 -49.6875 C 7.441406 -49.550781 15.066406 -49.484375 25.265625 -49.484375 C 32.140625 -49.484375 37.03125 -49.550781 39.9375 -49.6875 C 39.613281 -45.8125 39.453125 -42.351562 39.453125 -39.3125 C 39.453125 -37.25 39.519531 -35.65625 39.65625 -34.53125 L 38.046875 -34.53125 C 37.335938 -39.539062 36.070312 -43.050781 34.25 -45.0625 C 32.425781 -47.070312 29.851562 -48.078125 26.53125 -48.078125 L 23.65625 -48.078125 C 22.207031 -48.078125 21.15625 -47.957031 20.5 -47.71875 C 19.84375 -47.488281 19.394531 -47.035156 19.15625 -46.359375 C 18.925781 -45.679688 18.8125 -44.59375 18.8125 -43.09375 L 18.8125 -25.6875 L 21.0625 -25.6875 C 23.539062 -25.6875 25.421875 -26.597656 26.703125 -28.421875 C 27.992188 -30.242188 28.894531 -32.421875 29.40625 -34.953125 L 31.015625 -34.953125 C 30.878906 -32.984375 30.8125 -30.785156 30.8125 -28.359375 L 30.8125 -24.984375 C 30.8125 -22.597656 30.953125 -19.273438 31.234375 -15.015625 L 29.625 -15.015625 C 28.632812 -21.191406 25.78125 -24.28125 21.0625 -24.28125 L 18.8125 -24.28125 L 18.8125 -6.59375 C 18.8125 -5.101562 18.925781 -4.015625 19.15625 -3.328125 C 19.394531 -2.648438 19.84375 -2.191406 20.5 -1.953125 C 21.15625 -1.722656 22.207031 -1.609375 23.65625 -1.609375 L 27.09375 -1.609375 C 30.414062 -1.609375 33.09375 -2.742188 35.125 -5.015625 C 37.164062 -7.285156 38.609375 -11.132812 39.453125 -16.5625 L 41.0625 -16.5625 C 40.914062 -15.019531 40.84375 -13.054688 40.84375 -10.671875 Z M 40.84375 -10.671875 "/></g></g></g><g fill="#d0ccb9" fill-opacity="1"><g transform="translate(178.199233, 268.541295)"><g><path d="M 27.859375 -50.671875 C 30.671875 -50.671875 33.054688 -50.269531 35.015625 -49.46875 C 36.984375 -48.675781 38.90625 -47.554688 40.78125 -46.109375 C 41.289062 -45.691406 41.734375 -45.484375 42.109375 -45.484375 C 43.046875 -45.484375 43.65625 -46.882812 43.9375 -49.6875 L 45.546875 -49.6875 C 45.359375 -46.507812 45.265625 -40.847656 45.265625 -32.703125 L 43.65625 -32.703125 C 43.238281 -36.171875 42.675781 -38.816406 41.96875 -40.640625 C 41.269531 -42.460938 40.078125 -44.050781 38.390625 -45.40625 C 37.222656 -46.53125 35.863281 -47.382812 34.3125 -47.96875 C 32.769531 -48.550781 31.160156 -48.84375 29.484375 -48.84375 C 24.753906 -48.84375 21.242188 -46.539062 18.953125 -41.9375 C 16.660156 -37.332031 15.515625 -31.585938 15.515625 -24.703125 C 15.515625 -17.867188 16.707031 -12.160156 19.09375 -7.578125 C 21.476562 -2.992188 25.035156 -0.703125 29.765625 -0.703125 C 31.347656 -0.703125 32.921875 -0.992188 34.484375 -1.578125 C 36.054688 -2.160156 37.382812 -3.015625 38.46875 -4.140625 C 40.195312 -5.453125 41.398438 -7.085938 42.078125 -9.046875 C 42.753906 -11.015625 43.28125 -13.894531 43.65625 -17.6875 L 45.265625 -17.6875 C 45.265625 -9.21875 45.359375 -3.320312 45.546875 0 L 43.9375 0 C 43.800781 -1.5 43.601562 -2.5625 43.34375 -3.1875 C 43.082031 -3.820312 42.71875 -4.140625 42.25 -4.140625 C 41.875 -4.140625 41.382812 -3.953125 40.78125 -3.578125 C 38.675781 -2.078125 36.660156 -0.941406 34.734375 -0.171875 C 32.816406 0.597656 30.503906 0.984375 27.796875 0.984375 C 22.835938 0.984375 18.492188 -0.0195312 14.765625 -2.03125 C 11.046875 -4.039062 8.15625 -6.953125 6.09375 -10.765625 C 4.039062 -14.585938 3.015625 -19.140625 3.015625 -24.421875 C 3.015625 -29.566406 4.066406 -34.128906 6.171875 -38.109375 C 8.273438 -42.085938 11.210938 -45.175781 14.984375 -47.375 C 18.753906 -49.570312 23.046875 -50.671875 27.859375 -50.671875 Z M 27.859375 -50.671875 "/></g></g></g><g fill="#d0ccb9" fill-opacity="1"><g transform="translate(223.323221, 268.541295)"><g><path d="M 53.828125 -48.28125 C 52.242188 -48.195312 51.097656 -48.015625 50.390625 -47.734375 C 49.691406 -47.453125 49.210938 -46.910156 48.953125 -46.109375 C 48.691406 -45.316406 48.5625 -44.03125 48.5625 -42.25 L 48.5625 -7.4375 C 48.5625 -5.65625 48.691406 -4.367188 48.953125 -3.578125 C 49.210938 -2.785156 49.691406 -2.25 50.390625 -1.96875 C 51.097656 -1.6875 52.242188 -1.5 53.828125 -1.40625 L 53.828125 0 C 51.535156 -0.132812 47.984375 -0.203125 43.171875 -0.203125 C 38.441406 -0.203125 34.765625 -0.132812 32.140625 0 L 32.140625 -1.40625 C 33.691406 -1.5 34.828125 -1.6875 35.546875 -1.96875 C 36.273438 -2.25 36.765625 -2.785156 37.015625 -3.578125 C 37.273438 -4.367188 37.40625 -5.65625 37.40625 -7.4375 L 37.40625 -24.28125 L 18.8125 -24.28125 L 18.8125 -7.4375 C 18.8125 -5.65625 18.9375 -4.367188 19.1875 -3.578125 C 19.445312 -2.785156 19.925781 -2.25 20.625 -1.96875 C 21.332031 -1.6875 22.484375 -1.5 24.078125 -1.40625 L 24.078125 0 C 21.546875 -0.132812 18.007812 -0.203125 13.46875 -0.203125 C 8.46875 -0.203125 4.773438 -0.132812 2.390625 0 L 2.390625 -1.40625 C 3.929688 -1.5 5.0625 -1.6875 5.78125 -1.96875 C 6.507812 -2.25 7.003906 -2.785156 7.265625 -3.578125 C 7.523438 -4.367188 7.65625 -5.65625 7.65625 -7.4375 L 7.65625 -42.25 C 7.65625 -44.03125 7.523438 -45.316406 7.265625 -46.109375 C 7.003906 -46.910156 6.507812 -47.453125 5.78125 -47.734375 C 5.0625 -48.015625 3.929688 -48.195312 2.390625 -48.28125 L 2.390625 -49.6875 C 4.773438 -49.550781 8.46875 -49.484375 13.46875 -49.484375 C 18.007812 -49.484375 21.546875 -49.550781 24.078125 -49.6875 L 24.078125 -48.28125 C 22.484375 -48.195312 21.332031 -48.015625 20.625 -47.734375 C 19.925781 -47.453125 19.445312 -46.910156 19.1875 -46.109375 C 18.9375 -45.316406 18.8125 -44.03125 18.8125 -42.25 L 18.8125 -25.6875 L 37.40625 -25.6875 L 37.40625 -42.25 C 37.40625 -44.03125 37.273438 -45.316406 37.015625 -46.109375 C 36.765625 -46.910156 36.273438 -47.453125 35.546875 -47.734375 C 34.828125 -48.015625 33.691406 -48.195312 32.140625 -48.28125 L 32.140625 -49.6875 C 34.765625 -49.550781 38.441406 -49.484375 43.171875 -49.484375 C 47.984375 -49.484375 51.535156 -49.550781 53.828125 -49.6875 Z M 53.828125 -48.28125 "/></g></g></g><g fill="#d0ccb9" fill-opacity="1"><g transform="translate(116.795225, 331.61259)"><g><path d="M 24.5 -48.28125 C 22.8125 -48.195312 21.582031 -48.015625 20.8125 -47.734375 C 20.039062 -47.453125 19.515625 -46.910156 19.234375 -46.109375 C 18.953125 -45.316406 18.8125 -44.03125 18.8125 -42.25 L 18.8125 -6.59375 C 18.8125 -5.101562 18.925781 -4.015625 19.15625 -3.328125 C 19.394531 -2.648438 19.804688 -2.191406 20.390625 -1.953125 C 20.972656 -1.722656 21.921875 -1.609375 23.234375 -1.609375 L 26.671875 -1.609375 C 29.847656 -1.609375 32.59375 -3.035156 34.90625 -5.890625 C 37.226562 -8.742188 38.742188 -12.535156 39.453125 -17.265625 L 41.0625 -17.265625 C 40.914062 -15.671875 40.84375 -13.613281 40.84375 -11.09375 C 40.84375 -6.601562 41.007812 -2.90625 41.34375 0 C 38.15625 -0.132812 32.796875 -0.203125 25.265625 -0.203125 C 15.066406 -0.203125 7.441406 -0.132812 2.390625 0 L 2.390625 -1.40625 C 3.929688 -1.5 5.0625 -1.6875 5.78125 -1.96875 C 6.507812 -2.25 7.003906 -2.785156 7.265625 -3.578125 C 7.523438 -4.367188 7.65625 -5.65625 7.65625 -7.4375 L 7.65625 -42.25 C 7.65625 -44.03125 7.523438 -45.316406 7.265625 -46.109375 C 7.003906 -46.910156 6.507812 -47.453125 5.78125 -47.734375 C 5.0625 -48.015625 3.929688 -48.195312 2.390625 -48.28125 L 2.390625 -49.6875 C 4.773438 -49.550781 8.46875 -49.484375 13.46875 -49.484375 C 18.25 -49.484375 21.925781 -49.550781 24.5 -49.6875 Z M 24.5 -48.28125 "/></g></g></g><g fill="#d0ccb9" fill-opacity="1"><g transform="translate(155.322507, 331.61259)"><g><path d="M 27.859375 -50.671875 C 32.816406 -50.671875 37.15625 -49.664062 40.875 -47.65625 C 44.601562 -45.644531 47.492188 -42.734375 49.546875 -38.921875 C 51.609375 -35.109375 52.640625 -30.554688 52.640625 -25.265625 C 52.640625 -20.117188 51.585938 -15.554688 49.484375 -11.578125 C 47.378906 -7.597656 44.441406 -4.507812 40.671875 -2.3125 C 36.910156 -0.113281 32.617188 0.984375 27.796875 0.984375 C 22.835938 0.984375 18.492188 -0.0195312 14.765625 -2.03125 C 11.046875 -4.039062 8.15625 -6.953125 6.09375 -10.765625 C 4.039062 -14.585938 3.015625 -19.140625 3.015625 -24.421875 C 3.015625 -29.566406 4.066406 -34.128906 6.171875 -38.109375 C 8.273438 -42.085938 11.210938 -45.175781 14.984375 -47.375 C 18.753906 -49.570312 23.046875 -50.671875 27.859375 -50.671875 Z M 27.578125 -49.40625 C 25.003906 -49.40625 22.734375 -48.363281 20.765625 -46.28125 C 18.804688 -44.207031 17.300781 -41.296875 16.25 -37.546875 C 15.195312 -33.804688 14.671875 -29.523438 14.671875 -24.703125 C 14.671875 -19.835938 15.265625 -15.554688 16.453125 -11.859375 C 17.648438 -8.160156 19.265625 -5.304688 21.296875 -3.296875 C 23.335938 -1.285156 25.597656 -0.28125 28.078125 -0.28125 C 30.648438 -0.28125 32.914062 -1.320312 34.875 -3.40625 C 36.84375 -5.488281 38.351562 -8.398438 39.40625 -12.140625 C 40.457031 -15.878906 40.984375 -20.160156 40.984375 -24.984375 C 40.984375 -29.847656 40.382812 -34.128906 39.1875 -37.828125 C 38 -41.523438 36.382812 -44.378906 34.34375 -46.390625 C 32.3125 -48.398438 30.054688 -49.40625 27.578125 -49.40625 Z M 27.578125 -49.40625 "/></g></g></g><g fill="#d0ccb9" fill-opacity="1"><g transform="translate(206.622139, 331.61259)"><g><path d="M 28.421875 -50.671875 C 31.328125 -50.671875 33.773438 -50.269531 35.765625 -49.46875 C 37.753906 -48.675781 39.707031 -47.554688 41.625 -46.109375 C 42.1875 -45.691406 42.65625 -45.484375 43.03125 -45.484375 C 43.5 -45.484375 43.867188 -45.820312 44.140625 -46.5 C 44.421875 -47.175781 44.632812 -48.238281 44.78125 -49.6875 L 46.390625 -49.6875 C 46.203125 -46.507812 46.109375 -40.847656 46.109375 -32.703125 L 44.5 -32.703125 C 44.125 -35.890625 43.570312 -38.460938 42.84375 -40.421875 C 42.125 -42.390625 40.921875 -44.050781 39.234375 -45.40625 C 38.109375 -46.488281 36.726562 -47.332031 35.09375 -47.9375 C 33.457031 -48.539062 31.773438 -48.84375 30.046875 -48.84375 C 26.765625 -48.84375 24.035156 -47.734375 21.859375 -45.515625 C 19.679688 -43.296875 18.078125 -40.359375 17.046875 -36.703125 C 16.023438 -33.054688 15.515625 -29.054688 15.515625 -24.703125 C 15.515625 -8.515625 20.003906 -0.421875 28.984375 -0.421875 C 31.046875 -0.421875 32.707031 -0.890625 33.96875 -1.828125 C 34.582031 -2.242188 35.015625 -2.734375 35.265625 -3.296875 C 35.523438 -3.859375 35.65625 -4.582031 35.65625 -5.46875 L 35.65625 -12.359375 C 35.65625 -14.554688 35.46875 -16.15625 35.09375 -17.15625 C 34.71875 -18.164062 34.050781 -18.859375 33.09375 -19.234375 C 32.132812 -19.609375 30.625 -19.84375 28.5625 -19.9375 L 28.5625 -21.34375 C 31.46875 -21.195312 35.46875 -21.125 40.5625 -21.125 C 44.726562 -21.125 47.863281 -21.195312 49.96875 -21.34375 L 49.96875 -19.9375 C 49.03125 -19.84375 48.351562 -19.65625 47.9375 -19.375 C 47.519531 -19.09375 47.226562 -18.550781 47.0625 -17.75 C 46.894531 -16.957031 46.8125 -15.671875 46.8125 -13.890625 L 46.8125 0 L 45.40625 0 C 45.363281 -0.976562 45.164062 -1.890625 44.8125 -2.734375 C 44.457031 -3.578125 43.976562 -4 43.375 -4 C 42.582031 -4 41.316406 -3.507812 39.578125 -2.53125 C 35.515625 -0.1875 31.679688 0.984375 28.078125 0.984375 C 19.984375 0.984375 13.78125 -1.222656 9.46875 -5.640625 C 5.164062 -10.066406 3.015625 -16.28125 3.015625 -24.28125 C 3.015625 -29.519531 4.101562 -34.128906 6.28125 -38.109375 C 8.457031 -42.085938 11.460938 -45.175781 15.296875 -47.375 C 19.140625 -49.570312 23.515625 -50.671875 28.421875 -50.671875 Z M 28.421875 -50.671875 "/></g></g></g></svg>