<svg version="1.2" xmlns="http://www.w3.org/2000/svg" viewBox="0 0 1553 867" width="1553" height="867">
	<title>White logo - no background-svg</title>
	<style>
		.s0 { fill: #ffffff } 
	</style>
	<g id="Layer">
		<g id="SvgjsG4655">
			<g id="Layer">
				<path id="Layer" class="s0" d="m-804.6-106.6l12.3 12.3-617.7 617.7 605.4 605.4 605.3-605.4-617.6-617.6 12.3-12.4 12.3 12.3-12.3-12.3 12.3-12.3 629.9 629.9c3.2 3.3 5.1 7.8 5.1 12.3 0 4.6-1.9 9-5.1 12.3l-629.9 630.1c-6.8 6.8-17.8 6.8-24.6 0l-629.9-630c-6.9-6.8-6.9-17.8 0-24.6l629.9-630c3.3-3.2 7.8-5.1 12.3-5.1 4.6 0 9.1 1.9 12.3 5.1z"/>
				<path id="Layer" fill-rule="evenodd" class="s0" d="m-353.2 511c3.2 3.3 5.1 7.8 5.1 12.3 0 4.6-1.9 9-5.1 12.3l-439.1 439.2c-3.2 3.2-7.7 5.1-12.3 5.1-4.6 0-9-1.9-12.3-5.1l-438.9-439.1c-6.9-6.8-6.9-17.8 0-24.6l438.9-439c3.3-3.3 7.8-5.1 12.3-5.1 4.7 0 9.1 1.8 12.3 5.1zm-451.3-426.7l-12.3 12.3 12.3 12.3 12.2-12.3zm-414.3 439l414.3 414.4 414.5-414.4-414.5-414.5zm662.6 0l-12.4-12.4-12.3 12.3 12.4 12.4zm-248.2-223.6l-223.4 223.6 223.4 223.5 223.5-223.6zm12.4 484.1c-3.2 3.2-7.7 5.1-12.3 5.1-4.6 0-9-1.9-12.2-5.1l-248.2-248.2c-6.8-6.8-6.8-17.9 0-24.6l248-248c6.9-6.9 17.9-6.9 24.6 0l248.2 248c6.8 6.9 6.8 17.9 0 24.6z"/>
				<path id="Layer" class="s0" d="m-861.7 523.4l12.3-12.3 45 45 32.6-32.7-32.6-32.7-45 45-12.3-12.3 12.3-12.3-12.3 12.3-12.3-12.3 57.3-57.2c3.2-3.3 7.7-5.1 12.3-5.1 4.6 0 9 1.8 12.2 5.1l57.3 57.2c3.2 3.3 5.1 7.8 5.1 12.3 0 4.7-1.9 9.1-5.1 12.3l-57.3 57.3c-6.8 6.8-17.8 6.8-24.5 0l-57.3-57.3c-6.8-6.8-6.8-17.8 0-24.6z"/>
				<path id="Layer" class="s0" d="m-804.6-106.5l12.3 12.3-539.9 539.8c-6.8 6.9-17.9 6.9-24.6 0l-89.9-89.9c-3.3-3.3-5.1-7.8-5.1-12.3 0-4.6 1.8-9 5.1-12.3l629.8-630c3.3-3.2 7.8-5.1 12.3-5.1 4.7 0 9.1 1.9 12.3 5.1l630 630c3.3 3.3 5.1 7.8 5.1 12.3 0 4.6-1.8 9-5.1 12.3l-89.9 89.9c-6.9 6.9-17.9 6.9-24.6 0l-539.9-539.9 12.1-12.2 12.3 12.3-12.3-12.3 12.3-12.2 527.7 527.6 65.3-65.4-605.3-605.4-605.3 605.3 65.4 65.4 527.6-527.7c6.9-6.8 17.9-6.8 24.6 0z"/>
			</g>
		</g>
		<g id="SvgjsG4656">
			<path id="Layer" fill-rule="evenodd" class="s0" d="m80 161.1h-16.5v120.5h-56.9v-273.9h99.3c62 0 88.2 36.6 88.2 81.9 0 36.8-20.9 60.7-58 68.6l82.4 123.4c0 0-67.3 0-67.3 0zm-16.4-106.1v65.4h33.5c30.3 0 42.6-12.9 42.6-32.6 0-19.5-12.3-32.8-42.6-32.8zm336.7 230.4c-80.6 0-140.1-54.9-140.1-140.8 0-86 59.5-140.6 140.1-140.6 80.3 0 139.9 54.6 139.9 140.6 0 85.9-59.6 140.8-139.9 140.8zm0-52.1c47.2 0 83.4-33.1 83.4-88.7 0-55.3-36.2-88.3-83.4-88.3-47.2 0-83.4 33-83.4 88.3 0 55.6 36.2 88.7 83.4 88.7zm524.7 48.4h-56.7l-18-206.4-69.4 206.4h-36.7l-69.4-206.4-18.2 206.4h-56.8l22.9-273.9h81.1l58.4 171.9 59.1-171.9h81.1zm261.5 0l-19.9-56.5h-115.1l-19.9 56.5h-58.1l100.8-273.9h69.5l100.9 273.9c0 0-58.2 0-58.2 0zm-118.3-104.1h81.7l-40.7-116.1zm423.3-169.9h56.6v273.9h-65.7l-121.3-195.8v195.8h-56.7v-273.9h65l122.1 194.7c0 0 0-194.7 0-194.7z"/>
		</g>
		<g id="SvgjsG4657">
			<path id="Layer" class="s0" d="m136.3 691.7c-67.4 0-120.1-32.4-129.7-91.4l67.5-15.4c4.3 35.2 30.2 53.5 64.8 53.5 26.6 0 47.7-11.7 47.4-38.3-0.2-29.6-35-38.9-73.3-50.7-46.1-14.3-95.5-31.3-95.5-89.2 0-58.5 47.9-91.6 111-91.6 55.2 0 110.9 22.4 123.6 82.7l-63.1 15.7c-5.9-31.4-27-45.1-56.6-45.1-26.3 0-48.7 10.9-48.7 36.8 0 24.1 30.9 32.2 66.5 42.8 47.5 14.4 103.6 32.7 103.6 95.3 0 66.8-55.9 94.9-117.5 94.9zm381.5-318.7v57.4h-74.6v256.9h-64.6v-256.9h-75.1v-57.4c0 0 214.3 0 214.3 0zm253.2 57.4h-116.6v71.4h103.3v56.8h-103.3v71.1h116.6v57.7h-182.3v-314.4h182.3c0 0 0 57.4 0 57.4zm271 0h-116.7v71.4h103.4v56.8h-103.4v71.1h116.7v57.7h-182.4v-314.4h182.4c0 0 0 57.4 0 57.4zm153.9 199.3h98.5v57.7h-163.8v-314.4h65.3c0 0 0 256.7 0 256.7zm352.1-199.3h-116.6v71.4h103.4v56.8h-103.4v71.1h116.6v57.7h-182.3v-314.4h182.3c0 0 0 57.4 0 57.4z"/>
		</g>
		<g id="SvgjsG4658">
			<path id="Layer" fill-rule="evenodd" class="s0" d="m43.3 865.1c-19.1 0-34-9.1-36.7-25.8l19.1-4.4c1.2 10 8.6 15.2 18.3 15.2 7.6 0 13.5-3.4 13.5-10.9-0.1-8.3-9.9-11-20.8-14.3-13-4.1-27-8.9-27-25.2 0-16.6 13.5-25.9 31.4-25.9 15.6 0 31.4 6.3 34.9 23.4l-17.8 4.4c-1.7-8.9-7.6-12.7-16-12.7-7.4 0-13.8 3-13.8 10.4 0 6.8 8.8 9.1 18.8 12.1 13.5 4 29.3 9.2 29.3 26.9 0 18.9-15.8 26.8-33.2 26.8zm95.7 0c-26.1 0-45.5-17.8-45.5-45.7 0-27.9 19.4-45.6 45.5-45.6 26.1 0 45.4 17.7 45.4 45.6 0 27.9-19.3 45.7-45.4 45.7zm0-16.9c15.3 0 27.1-10.7 27.1-28.8 0-17.9-11.8-28.6-27.1-28.6-15.3 0-27.1 10.7-27.1 28.6 0 18.1 11.8 28.8 27.1 28.8zm120.9-56.9h-33.9v20.1h29.3v16.1h-29.3v36.4h-18.5v-88.9h52.4c0 0 0 16.3 0 16.3zm73.4-16.3v16.3h-21.1v72.6h-18.3v-72.6h-21.3v-16.3c0 0 60.7 0 60.7 0zm34.4 88.9l-23.2-88.9h19.2l17.3 67.3 19.9-67.3h15.6l19.7 67.3 17.6-67.3h19.1l-23.3 88.9h-23.7l-17.2-54.9-17.2 54.9c0 0-23.8 0-23.8 0zm185 0l-6.5-18.3h-37.3l-6.5 18.3h-18.9l32.7-88.9h22.6l32.7 88.9c0 0-18.8 0-18.8 0zm-38.4-33.8h26.5l-13.2-37.7zm100.5-5.3h-5.4v39.1h-18.5v-88.9h32.3c20.1 0 28.6 11.9 28.6 26.6 0 11.9-6.8 19.7-18.8 22.2l26.7 40.1c0 0-21.8 0-21.8 0zm-5.4-34.5v21.3h10.9c9.9 0 13.9-4.2 13.9-10.6 0-6.3-4-10.7-13.9-10.7zm121.5 1h-33v20.1h29.3v16.1h-29.3v20.1h33v16.3h-51.5v-88.9h51.5c0 0 0 16.3 0 16.3zm63.9 72.6v-88.9h32.2c28.3 0 42.3 17.9 42.3 44.4 0 26.7-14 44.5-42.3 44.5zm18.4-16.3h12.8c16.4 0 23.9-10.2 23.9-28.2 0-17.9-7.5-28.1-23.9-28.1h-12.8c0 0 0 56.3 0 56.3zm131-56.3h-32.9v20.1h29.2v16.1h-29.2v20.1h32.9v16.3h-51.5v-88.9h51.5c0 0 0 16.3 0 16.3zm81.7-16.3h19.6l-32.9 88.9h-20.3l-32.7-88.9h19.6l23.3 67.4zm90.6 16.2h-32.9v20.2h29.2v16.1h-29.2v20.1h32.9v16.3h-51.5v-88.9h51.5c0 0 0 16.2 0 16.2zm43.6 56.4h27.8v16.3h-46.3v-88.9h18.5c0 0 0 72.6 0 72.6zm87.4 17.5c-26.2 0-45.5-17.8-45.5-45.7 0-27.9 19.3-45.6 45.5-45.6 26 0 45.4 17.7 45.4 45.6 0 27.9-19.4 45.7-45.4 45.7zm0-16.9c15.3 0 27-10.8 27-28.8 0-17.9-11.7-28.7-27-28.7-15.4 0-27.1 10.8-27.1 28.7 0 18 11.7 28.8 27.1 28.8zm105.4-73.2c17.4 0 28.2 12.9 28.2 28.7 0 16.2-10.8 28.3-28.2 28.3h-18.5v31.9h-18.5v-88.9c0 0 37 0 37 0zm-3.1 41.6c9.2 0 13.5-5.1 13.5-13.1 0-7.7-4.3-13.1-13.5-13.1h-15.4v26.2zm104.4-25.4h-33v20.2h29.3v16.1h-29.3v20.1h33v16.3h-51.6v-88.9h51.6c0 0 0 16.2 0 16.2zm48.9 33.6h-5.4v39.1h-18.4v-88.9h32.2c20.1 0 28.6 11.9 28.6 26.6 0 11.9-6.7 19.7-18.8 22.2l26.8 40.1c0 0-21.9 0-21.9 0zm-5.3-34.5v21.3h10.9c9.8 0 13.8-4.2 13.8-10.6 0-6.3-4-10.7-13.8-10.7z"/>
		</g>
	</g>
</svg>